<svg width="385" height="371" viewBox="0 0 385 371" fill="none" xmlns="http://www.w3.org/2000/svg">
<path d="M308.651 164.297C308.651 164.297 312.121 152.547 323.891 127.687C340.001 93.6873 316.841 55.4273 270.951 35.4773C217.151 12.1073 147.951 20.8173 98.0407 35.0973C56.7807 46.9173 39.7307 77.7773 32.3107 108.537C28.5407 124.127 27.8307 140.067 25.4507 155.867C22.2907 176.927 15.3907 198.317 9.35072 218.947C2.06072 243.867 -5.17928 272.007 5.12072 298.947C36.8507 381.807 211.211 385.387 279.821 347.037C318.611 325.367 332.901 293.497 319.821 256.307C310.111 228.757 300.691 191.157 308.651 164.297Z" fill="#1A4BB9"/>
<path opacity="0.7" d="M308.651 164.297C308.651 164.297 312.121 152.547 323.891 127.687C340.001 93.6873 316.841 55.4273 270.951 35.4773C217.151 12.1073 147.951 20.8173 98.0407 35.0973C56.7807 46.9173 39.7307 77.7773 32.3107 108.537C28.5407 124.127 27.8307 140.067 25.4507 155.867C22.2907 176.927 15.3907 198.317 9.35072 218.947C2.06072 243.867 -5.17928 272.007 5.12072 298.947C36.8507 381.807 211.211 385.387 279.821 347.037C318.611 325.367 332.901 293.497 319.821 256.307C310.111 228.757 300.691 191.157 308.651 164.297Z" fill="white"/>
<path opacity="0.3" d="M278.92 92.19C279.075 92.2126 279.233 92.1987 279.381 92.1492C279.529 92.0997 279.664 92.0162 279.774 91.9052C279.885 91.7942 279.967 91.6589 280.016 91.5102C280.064 91.3615 280.077 91.2035 280.053 91.0489C280.03 90.8943 279.97 90.7474 279.879 90.62C279.788 90.4927 279.669 90.3884 279.53 90.3156C279.392 90.2427 279.238 90.2034 279.082 90.2007C278.926 90.198 278.771 90.232 278.63 90.3L274.84 90.89L274.73 90.17L278.52 89.58C278.713 89.487 278.871 89.3345 278.97 89.1451C279.07 88.9557 279.106 88.7393 279.074 88.5278C279.041 88.3163 278.942 88.1207 278.79 87.9699C278.638 87.8191 278.442 87.721 278.23 87.69L274.43 88.29L273.62 83.06L262.24 72.78L113.17 346.78L124.59 354.5L311.33 325.4L309.25 312L313.04 311.41C313.196 311.435 313.355 311.423 313.506 311.375C313.656 311.327 313.793 311.244 313.905 311.133C314.017 311.022 314.101 310.886 314.15 310.736C314.199 310.586 314.213 310.426 314.189 310.27C314.164 310.115 314.104 309.966 314.012 309.838C313.919 309.71 313.798 309.606 313.658 309.534C313.518 309.462 313.362 309.424 313.204 309.423C313.047 309.422 312.891 309.459 312.75 309.53L308.95 310.12L308.84 309.39L312.64 308.8C312.763 308.782 312.881 308.739 312.988 308.675C313.095 308.61 313.187 308.526 313.261 308.425C313.334 308.325 313.387 308.211 313.416 308.09C313.445 307.968 313.45 307.843 313.43 307.72C313.381 307.474 313.242 307.256 313.041 307.108C312.839 306.96 312.589 306.893 312.34 306.92L308.55 307.51L307.45 300.46L311.25 299.87C311.434 299.776 311.585 299.627 311.681 299.444C311.778 299.26 311.815 299.052 311.787 298.846C311.76 298.641 311.669 298.45 311.528 298.298C311.387 298.146 311.203 298.042 311 298L307.21 298.59L307.1 297.87L310.89 297.28C311.083 297.187 311.241 297.035 311.34 296.845C311.44 296.656 311.476 296.439 311.444 296.228C311.411 296.016 311.312 295.821 311.16 295.67C311.008 295.519 310.812 295.421 310.6 295.39L306.8 295.98L305.71 288.98L309.5 288.38C309.624 288.363 309.743 288.321 309.85 288.257C309.957 288.193 310.051 288.108 310.124 288.008C310.198 287.907 310.251 287.792 310.279 287.671C310.308 287.549 310.311 287.423 310.29 287.3C310.242 287.056 310.104 286.839 309.904 286.691C309.705 286.544 309.457 286.475 309.21 286.5L305.41 287.09L305.3 286.37L309.09 285.78C309.283 285.687 309.441 285.535 309.54 285.345C309.64 285.156 309.676 284.939 309.644 284.728C309.611 284.516 309.512 284.321 309.36 284.17C309.208 284.019 309.012 283.921 308.8 283.89L305.01 284.48L303.91 277.48L307.7 276.89C307.893 276.797 308.051 276.645 308.15 276.455C308.25 276.266 308.286 276.049 308.254 275.838C308.221 275.626 308.122 275.431 307.97 275.28C307.818 275.129 307.622 275.031 307.41 275L303.62 275.59L303.5 274.87L307.3 274.28C307.544 274.229 307.76 274.089 307.906 273.888C308.052 273.686 308.118 273.437 308.09 273.19C308.073 273.066 308.031 272.947 307.967 272.84C307.903 272.733 307.818 272.639 307.718 272.566C307.617 272.492 307.502 272.439 307.381 272.411C307.259 272.382 307.133 272.379 307.01 272.4L303.21 272.99L302.12 265.99L305.91 265.4C306.154 265.349 306.37 265.209 306.516 265.008C306.662 264.806 306.728 264.557 306.7 264.31C306.683 264.186 306.641 264.067 306.577 263.96C306.513 263.853 306.428 263.759 306.328 263.686C306.227 263.612 306.112 263.559 305.991 263.531C305.869 263.502 305.743 263.499 305.62 263.52L301.82 264.11L301.71 263.38L305.5 262.79C305.656 262.815 305.815 262.803 305.966 262.755C306.116 262.707 306.253 262.624 306.365 262.513C306.477 262.402 306.561 262.266 306.61 262.116C306.659 261.966 306.673 261.806 306.649 261.65C306.624 261.495 306.564 261.346 306.472 261.218C306.379 261.09 306.258 260.986 306.118 260.914C305.978 260.842 305.822 260.804 305.664 260.803C305.507 260.802 305.351 260.839 305.21 260.91L301.42 261.5L300.32 254.45L304.11 253.86C304.266 253.885 304.425 253.873 304.576 253.825C304.726 253.777 304.863 253.694 304.975 253.583C305.087 253.472 305.171 253.336 305.22 253.186C305.269 253.036 305.283 252.876 305.259 252.72C305.234 252.565 305.174 252.416 305.082 252.288C304.989 252.16 304.868 252.056 304.728 251.984C304.588 251.912 304.432 251.874 304.274 251.873C304.117 251.872 303.961 251.909 303.82 251.98L300.03 252.57L299.91 251.84L303.71 251.25C303.866 251.274 304.025 251.261 304.175 251.212C304.324 251.163 304.46 251.079 304.572 250.967C304.683 250.855 304.766 250.719 304.814 250.569C304.863 250.419 304.875 250.26 304.85 250.104C304.825 249.949 304.764 249.801 304.671 249.674C304.579 249.546 304.457 249.442 304.317 249.371C304.176 249.299 304.021 249.262 303.863 249.262C303.706 249.262 303.551 249.299 303.41 249.37L299.62 249.96L298.52 242.91L302.32 242.32C302.476 242.344 302.635 242.331 302.785 242.282C302.934 242.233 303.07 242.149 303.181 242.037C303.293 241.925 303.376 241.789 303.424 241.639C303.473 241.489 303.485 241.33 303.46 241.174C303.435 241.019 303.374 240.871 303.281 240.744C303.189 240.616 303.067 240.512 302.927 240.441C302.786 240.369 302.631 240.332 302.473 240.332C302.316 240.332 302.161 240.369 302.02 240.44L298.23 241.03L298.12 240.3L301.91 239.71C302.154 239.662 302.371 239.524 302.518 239.324C302.666 239.125 302.735 238.877 302.71 238.63C302.661 238.384 302.522 238.166 302.321 238.018C302.119 237.87 301.869 237.803 301.62 237.83L297.82 238.42L296.73 231.42L300.52 230.83C300.764 230.782 300.981 230.644 301.128 230.444C301.276 230.245 301.345 229.997 301.32 229.75C301.271 229.504 301.133 229.286 300.931 229.138C300.729 228.99 300.479 228.923 300.23 228.95L296.44 229.54L296.32 228.82L300.12 228.23C300.313 228.136 300.471 227.983 300.57 227.793C300.669 227.603 300.704 227.386 300.671 227.174C300.637 226.962 300.536 226.767 300.383 226.616C300.23 226.466 300.032 226.369 299.82 226.34L296.03 226.93L294.93 219.93L298.73 219.34C298.923 219.246 299.081 219.093 299.18 218.903C299.279 218.713 299.314 218.496 299.281 218.284C299.247 218.072 299.146 217.877 298.993 217.726C298.84 217.576 298.642 217.479 298.43 217.45L294.64 218.04L294.53 217.32L298.32 216.73C298.513 216.637 298.671 216.485 298.77 216.295C298.87 216.106 298.906 215.889 298.874 215.678C298.841 215.466 298.742 215.271 298.59 215.12C298.438 214.969 298.242 214.871 298.03 214.84L294.23 215.44L293.14 208.44L296.93 207.85C297.123 207.757 297.281 207.605 297.38 207.415C297.48 207.226 297.516 207.009 297.484 206.798C297.451 206.586 297.352 206.391 297.2 206.24C297.048 206.089 296.852 205.991 296.64 205.96L292.84 206.55L292.73 205.83L296.52 205.24C296.676 205.265 296.835 205.253 296.986 205.205C297.136 205.157 297.273 205.074 297.385 204.963C297.497 204.852 297.581 204.716 297.63 204.566C297.679 204.416 297.693 204.256 297.669 204.1C297.644 203.945 297.584 203.796 297.492 203.668C297.399 203.54 297.278 203.436 297.138 203.364C296.998 203.292 296.842 203.254 296.684 203.253C296.527 203.252 296.371 203.289 296.23 203.36L292.44 203.95L291.34 196.9L295.13 196.31C295.286 196.335 295.445 196.323 295.596 196.275C295.746 196.227 295.883 196.144 295.995 196.033C296.107 195.922 296.191 195.786 296.24 195.636C296.289 195.486 296.303 195.326 296.279 195.17C296.254 195.015 296.194 194.866 296.102 194.738C296.009 194.61 295.888 194.506 295.748 194.434C295.608 194.362 295.452 194.324 295.294 194.323C295.137 194.322 294.981 194.359 294.84 194.43L291.05 195.02L290.94 194.29L294.73 193.7C294.919 193.605 295.072 193.453 295.169 193.265C295.266 193.077 295.3 192.863 295.268 192.655C295.236 192.446 295.138 192.253 294.99 192.103C294.841 191.953 294.648 191.854 294.44 191.82L290.64 192.41L289.55 185.41L293.34 184.82C293.529 184.725 293.682 184.573 293.779 184.385C293.876 184.197 293.91 183.983 293.878 183.775C293.846 183.566 293.748 183.373 293.6 183.223C293.451 183.073 293.258 182.974 293.05 182.94L289.25 183.53L289.14 182.8L292.93 182.21C293.174 182.162 293.391 182.024 293.538 181.824C293.686 181.625 293.755 181.377 293.73 181.13C293.681 180.884 293.543 180.666 293.341 180.518C293.139 180.37 292.889 180.303 292.64 180.33L288.85 180.92L287.75 173.87L291.54 173.28C291.696 173.305 291.855 173.293 292.006 173.245C292.156 173.197 292.293 173.114 292.405 173.003C292.517 172.892 292.601 172.756 292.65 172.606C292.699 172.456 292.713 172.296 292.689 172.14C292.664 171.985 292.604 171.836 292.512 171.708C292.419 171.58 292.298 171.476 292.158 171.404C292.018 171.332 291.862 171.294 291.704 171.293C291.547 171.292 291.391 171.329 291.25 171.4L287.46 171.99L287.34 171.27L291.14 170.68C291.333 170.586 291.491 170.433 291.59 170.243C291.689 170.053 291.724 169.836 291.691 169.624C291.657 169.412 291.556 169.217 291.403 169.066C291.25 168.916 291.052 168.819 290.84 168.79L287.05 169.38L285.95 162.38L289.75 161.78C289.939 161.685 290.092 161.533 290.189 161.345C290.286 161.157 290.32 160.943 290.288 160.735C290.256 160.526 290.158 160.333 290.01 160.183C289.861 160.033 289.668 159.934 289.46 159.9L285.66 160.49L285.55 159.77L289.34 159.18C289.533 159.087 289.691 158.935 289.79 158.745C289.89 158.556 289.926 158.339 289.894 158.128C289.861 157.916 289.762 157.721 289.61 157.57C289.458 157.419 289.262 157.321 289.05 157.29L285.26 157.88L284.16 150.88L287.95 150.29C288.105 150.313 288.263 150.299 288.411 150.249C288.559 150.2 288.694 150.116 288.804 150.005C288.915 149.894 288.997 149.759 289.046 149.61C289.094 149.461 289.107 149.303 289.083 149.149C289.06 148.994 289 148.847 288.909 148.72C288.818 148.593 288.699 148.488 288.56 148.416C288.422 148.343 288.268 148.303 288.112 148.301C287.956 148.298 287.801 148.332 287.66 148.4L283.87 148.99L283.75 148.27L287.55 147.68C287.706 147.704 287.865 147.691 288.015 147.642C288.164 147.593 288.3 147.509 288.411 147.397C288.523 147.285 288.606 147.149 288.654 146.999C288.703 146.849 288.715 146.69 288.69 146.534C288.665 146.379 288.604 146.231 288.511 146.104C288.419 145.976 288.297 145.872 288.157 145.801C288.016 145.729 287.861 145.692 287.703 145.692C287.546 145.692 287.391 145.729 287.25 145.8L283.46 146.39L282.36 139.39L286.16 138.8C286.349 138.704 286.502 138.551 286.598 138.362C286.694 138.174 286.728 137.96 286.695 137.751C286.662 137.542 286.563 137.349 286.413 137.199C286.263 137.05 286.069 136.952 285.86 136.92L282.07 137.51L281.96 136.78L285.75 136.19C285.906 136.215 286.065 136.203 286.216 136.155C286.366 136.107 286.503 136.024 286.615 135.913C286.727 135.802 286.811 135.666 286.86 135.516C286.909 135.366 286.923 135.206 286.899 135.05C286.874 134.895 286.814 134.746 286.722 134.618C286.629 134.49 286.508 134.386 286.368 134.314C286.228 134.242 286.072 134.204 285.914 134.203C285.757 134.202 285.601 134.239 285.46 134.31L281.66 134.9L280.57 127.85L284.36 127.26C284.516 127.285 284.675 127.273 284.826 127.225C284.976 127.177 285.113 127.094 285.225 126.983C285.337 126.872 285.421 126.736 285.47 126.586C285.519 126.436 285.533 126.276 285.509 126.12C285.484 125.965 285.424 125.816 285.332 125.688C285.239 125.56 285.118 125.456 284.978 125.384C284.838 125.312 284.682 125.274 284.524 125.273C284.367 125.272 284.211 125.309 284.07 125.38L280.27 125.97L280.16 125.24L283.96 124.65C284.149 124.554 284.302 124.401 284.398 124.212C284.494 124.024 284.528 123.81 284.495 123.601C284.462 123.392 284.363 123.199 284.213 123.049C284.063 122.9 283.869 122.802 283.66 122.77L279.87 123.36L278.77 116.31L282.57 115.72C282.759 115.624 282.912 115.471 283.008 115.282C283.104 115.094 283.138 114.88 283.105 114.671C283.072 114.462 282.973 114.269 282.823 114.119C282.673 113.97 282.479 113.872 282.27 113.84L278.48 114.43L278.37 113.7L282.16 113.11C282.404 113.062 282.621 112.924 282.768 112.724C282.916 112.525 282.985 112.277 282.96 112.03C282.911 111.784 282.772 111.566 282.571 111.418C282.369 111.27 282.119 111.203 281.87 111.23L278.07 111.82L276.98 104.77L280.77 104.18C281.014 104.132 281.231 103.994 281.378 103.794C281.526 103.595 281.595 103.347 281.57 103.1C281.521 102.854 281.383 102.636 281.181 102.488C280.979 102.34 280.729 102.273 280.48 102.3L276.68 102.89L276.57 102.17L280.36 101.58C280.553 101.487 280.711 101.335 280.81 101.145C280.91 100.956 280.946 100.739 280.914 100.528C280.881 100.316 280.782 100.121 280.63 99.9699C280.478 99.8191 280.282 99.721 280.07 99.69L276.28 100.28L275.18 93.28L278.92 92.19Z" fill="black"/>
<path d="M119.2 349.39L292.35 322.45L253.71 74.1L80.55 101.1C79.5 101.263 78.4925 101.632 77.5849 102.185C76.6774 102.737 75.8877 103.464 75.2609 104.322C74.634 105.18 74.1824 106.153 73.9317 107.186C73.6811 108.218 73.6363 109.29 73.8 110.34L110 342.64C110.328 344.754 111.48 346.651 113.205 347.917C114.929 349.182 117.085 349.712 119.2 349.39Z" fill="#263238" stroke="#263238" stroke-miterlimit="10" stroke-linecap="round"/>
<path d="M122.415 340.709L112.535 342.247C111.84 342.356 111.131 342.183 110.564 341.769C109.996 341.354 109.616 340.731 109.508 340.037L106.031 317.706C105.923 317.011 106.095 316.302 106.51 315.735C106.925 315.167 107.548 314.788 108.242 314.68L118.123 313.141L122.415 340.709Z" fill="white" stroke="#263238" stroke-miterlimit="10" stroke-linecap="round"/>
<path d="M117.912 311.73L108.031 313.268C107.336 313.377 106.627 313.204 106.06 312.79C105.492 312.375 105.113 311.752 105.005 311.058L101.528 288.727C101.42 288.032 101.592 287.323 102.006 286.756C102.421 286.188 103.044 285.809 103.738 285.701L113.619 284.162L117.912 311.73Z" fill="#1A4BB9" stroke="#263238" stroke-miterlimit="10" stroke-linecap="round"/>
<path d="M113.39 282.702L103.51 284.24C102.815 284.348 102.106 284.176 101.539 283.761C100.971 283.347 100.592 282.724 100.483 282.029L97.0064 259.698C96.8983 259.004 97.0705 258.295 97.4851 257.727C97.8997 257.16 98.5227 256.78 99.2172 256.672L109.098 255.134L113.39 282.702Z" fill="white" stroke="#263238" stroke-miterlimit="10" stroke-linecap="round"/>
<path d="M108.888 253.732L99.0075 255.271C98.313 255.379 97.604 255.207 97.0365 254.792C96.469 254.378 96.0894 253.755 95.9813 253.06L92.5043 230.729C92.3962 230.035 92.5684 229.326 92.983 228.758C93.3976 228.191 94.0206 227.811 94.7151 227.703L104.596 226.165L108.888 253.732Z" fill="#1A4BB9" stroke="#263238" stroke-miterlimit="10" stroke-linecap="round"/>
<path d="M90.24 198.72L96.15 197.8L81.08 101L262.24 72.81L300.88 321.15L119.73 349.31L100.44 225.37L94.53 226.29C93.8393 226.393 93.1358 226.219 92.5736 225.805C92.0113 225.39 91.6361 224.77 91.53 224.08L88 201.75C87.9462 201.404 87.9615 201.05 88.0452 200.71C88.1289 200.37 88.2793 200.049 88.4876 199.767C88.6959 199.486 88.9581 199.248 89.2589 199.068C89.5597 198.888 89.8932 198.77 90.24 198.72Z" fill="white" stroke="#263238" stroke-miterlimit="10" stroke-linecap="round"/>
<path d="M109.61 153.88L110.21 167.45L177.81 156.42L176.04 145.06L109.61 153.88Z" fill="#1A4BB9"/>
<path d="M252.17 88C252.27 88.6952 252.574 89.3449 253.045 89.8666C253.515 90.3882 254.13 90.7582 254.811 90.9295C255.492 91.1008 256.208 91.0656 256.87 90.8284C257.531 90.5912 258.106 90.1627 258.523 89.5975C258.94 89.0323 259.179 88.3558 259.21 87.6542C259.242 86.9526 259.064 86.2575 258.699 85.6574C258.334 85.0573 257.799 84.5793 257.162 84.2841C256.524 83.989 255.814 83.8901 255.12 84C254.201 84.1455 253.377 84.6467 252.825 85.3952C252.273 86.1437 252.038 87.0794 252.17 88Z" fill="#263238" stroke="#263238" stroke-miterlimit="10" stroke-linecap="round"/>
<path d="M256 86.9L266.58 85.25C266.824 85.1993 267.04 85.0594 267.186 84.8578C267.332 84.6563 267.398 84.4074 267.37 84.16C267.319 83.9163 267.179 83.7002 266.978 83.5541C266.776 83.408 266.527 83.3424 266.28 83.37L255.74 85C255.494 85.0486 255.276 85.1875 255.128 85.3893C254.98 85.5911 254.913 85.8412 254.94 86.09C254.986 86.3318 255.12 86.5481 255.315 86.6976C255.511 86.847 255.755 86.9191 256 86.9Z" fill="white" stroke="#263238" stroke-miterlimit="10" stroke-linecap="round"/>
<path d="M256.44 89.5L267 87.86C267.246 87.8114 267.464 87.6725 267.612 87.4707C267.76 87.2689 267.827 87.0188 267.8 86.77C267.751 86.5244 267.613 86.306 267.411 86.1579C267.209 86.0097 266.959 85.9427 266.71 85.97L256.13 87.62C255.886 87.6707 255.67 87.8106 255.524 88.0122C255.378 88.2137 255.312 88.4626 255.34 88.71C255.391 88.9557 255.532 89.1732 255.736 89.3195C255.94 89.4659 256.191 89.5303 256.44 89.5Z" fill="white" stroke="#263238" stroke-miterlimit="10" stroke-linecap="round"/>
<path d="M254 99.53C254.098 100.224 254.4 100.872 254.867 101.395C255.334 101.917 255.946 102.288 256.624 102.462C257.303 102.637 258.018 102.606 258.679 102.374C259.34 102.141 259.917 101.718 260.337 101.158C260.757 100.597 261.002 99.9248 261.04 99.2253C261.078 98.5258 260.907 97.8308 260.55 97.2283C260.193 96.6257 259.665 96.1427 259.033 95.8404C258.401 95.5381 257.693 95.4301 257 95.53C256.072 95.6637 255.235 96.1599 254.673 96.9098C254.111 97.6597 253.869 98.6019 254 99.53Z" fill="#263238" stroke="#263238" stroke-miterlimit="10" stroke-linecap="round"/>
<path d="M257.83 98.43L268.4 96.79C268.646 96.7414 268.864 96.6025 269.012 96.4007C269.16 96.1989 269.227 95.9488 269.2 95.7C269.151 95.4544 269.012 95.236 268.811 95.0879C268.609 94.9397 268.359 94.8727 268.11 94.9L257.53 96.55C257.286 96.6007 257.07 96.7406 256.924 96.9422C256.778 97.1437 256.712 97.3926 256.74 97.64C256.791 97.8837 256.931 98.0998 257.132 98.2459C257.334 98.392 257.583 98.4576 257.83 98.43Z" fill="white" stroke="#263238" stroke-miterlimit="10" stroke-linecap="round"/>
<path d="M258.23 101L268.81 99.36C269.054 99.3093 269.27 99.1694 269.416 98.9678C269.562 98.7662 269.628 98.5174 269.6 98.27C269.551 98.0244 269.413 97.806 269.211 97.6579C269.009 97.5097 268.759 97.4427 268.51 97.47L257.94 99.12C257.694 99.1686 257.476 99.3075 257.328 99.5093C257.18 99.7111 257.113 99.9612 257.14 100.21C257.191 100.454 257.331 100.67 257.532 100.816C257.734 100.962 257.983 101.028 258.23 101Z" fill="white" stroke="#263238" stroke-miterlimit="10" stroke-linecap="round"/>
<path d="M255.76 111.07C255.86 111.765 256.164 112.415 256.635 112.937C257.105 113.458 257.72 113.828 258.401 114C259.082 114.171 259.798 114.136 260.46 113.898C261.121 113.661 261.696 113.233 262.113 112.668C262.53 112.102 262.769 111.426 262.8 110.724C262.832 110.023 262.654 109.328 262.289 108.727C261.924 108.127 261.389 107.649 260.752 107.354C260.114 107.059 259.404 106.96 258.71 107.07C257.791 107.216 256.967 107.717 256.415 108.465C255.863 109.214 255.628 110.149 255.76 111.07Z" fill="#263238" stroke="#263238" stroke-miterlimit="10" stroke-linecap="round"/>
<path d="M259.62 110L270.2 108.36C270.444 108.309 270.66 108.169 270.806 107.968C270.952 107.766 271.018 107.517 270.99 107.27C270.941 107.024 270.803 106.806 270.601 106.658C270.399 106.51 270.149 106.443 269.9 106.47L259.33 108.12C259.084 108.169 258.866 108.307 258.718 108.509C258.57 108.711 258.503 108.961 258.53 109.21C258.581 109.454 258.721 109.67 258.922 109.816C259.124 109.962 259.373 110.028 259.62 110Z" fill="white" stroke="#263238" stroke-miterlimit="10" stroke-linecap="round"/>
<path d="M260 112.58L270.57 110.93C270.814 110.882 271.031 110.744 271.178 110.544C271.326 110.345 271.395 110.097 271.37 109.85C271.321 109.604 271.182 109.386 270.981 109.238C270.779 109.09 270.529 109.023 270.28 109.05L259.71 110.7C259.466 110.748 259.249 110.886 259.101 111.086C258.954 111.285 258.885 111.533 258.91 111.78C258.959 112.026 259.097 112.244 259.299 112.392C259.501 112.54 259.751 112.607 260 112.58Z" fill="white" stroke="#263238" stroke-miterlimit="10" stroke-linecap="round"/>
<path d="M257.55 122.61C257.648 123.304 257.95 123.952 258.417 124.475C258.884 124.997 259.496 125.368 260.174 125.542C260.853 125.717 261.568 125.686 262.229 125.454C262.89 125.221 263.467 124.798 263.887 124.238C264.307 123.677 264.552 123.005 264.59 122.305C264.628 121.606 264.457 120.911 264.1 120.308C263.743 119.706 263.215 119.223 262.583 118.92C261.951 118.618 261.243 118.51 260.55 118.61C259.622 118.744 258.785 119.24 258.223 119.99C257.661 120.74 257.419 121.682 257.55 122.61Z" fill="#263238" stroke="#263238" stroke-miterlimit="10" stroke-linecap="round"/>
<path d="M261.42 121.51L272 119.86C272.244 119.812 272.461 119.674 272.608 119.474C272.756 119.275 272.825 119.027 272.8 118.78C272.751 118.534 272.613 118.316 272.411 118.168C272.209 118.02 271.959 117.953 271.71 117.98L261.13 119.63C261.007 119.648 260.889 119.691 260.782 119.755C260.675 119.82 260.583 119.904 260.509 120.005C260.436 120.105 260.383 120.219 260.354 120.34C260.325 120.461 260.32 120.587 260.34 120.71C260.388 120.954 260.526 121.171 260.726 121.318C260.925 121.466 261.173 121.535 261.42 121.51Z" fill="white" stroke="#263238" stroke-miterlimit="10" stroke-linecap="round"/>
<path d="M261.82 124.12L272.4 122.47C272.524 122.452 272.643 122.409 272.751 122.344C272.858 122.279 272.951 122.193 273.025 122.092C273.098 121.99 273.151 121.875 273.179 121.752C273.208 121.63 273.211 121.504 273.19 121.38C273.172 121.257 273.129 121.139 273.065 121.032C273 120.925 272.916 120.833 272.815 120.759C272.715 120.686 272.601 120.633 272.48 120.604C272.358 120.575 272.233 120.57 272.11 120.59L261.53 122.23C261.286 122.281 261.07 122.421 260.924 122.622C260.778 122.824 260.712 123.073 260.74 123.32C260.788 123.564 260.926 123.781 261.126 123.929C261.325 124.076 261.573 124.145 261.82 124.12Z" fill="white" stroke="#263238" stroke-miterlimit="10" stroke-linecap="round"/>
<path d="M259.35 134.15C259.45 134.845 259.754 135.495 260.225 136.017C260.695 136.538 261.31 136.908 261.991 137.079C262.672 137.251 263.388 137.216 264.05 136.978C264.711 136.741 265.286 136.313 265.703 135.748C266.12 135.182 266.359 134.506 266.39 133.804C266.422 133.103 266.244 132.408 265.879 131.807C265.514 131.207 264.979 130.729 264.342 130.434C263.704 130.139 262.994 130.04 262.3 130.15C261.381 130.296 260.557 130.797 260.005 131.545C259.453 132.294 259.218 133.229 259.35 134.15Z" fill="#263238" stroke="#263238" stroke-miterlimit="10" stroke-linecap="round"/>
<path d="M263.21 133.05L273.79 131.4C274.034 131.349 274.25 131.209 274.396 131.008C274.542 130.806 274.608 130.557 274.58 130.31C274.562 130.187 274.519 130.069 274.455 129.962C274.39 129.855 274.306 129.763 274.205 129.689C274.105 129.616 273.991 129.563 273.87 129.534C273.748 129.505 273.623 129.5 273.5 129.52L262.92 131.16C262.676 131.211 262.46 131.351 262.314 131.552C262.168 131.754 262.102 132.003 262.13 132.25C262.178 132.494 262.316 132.711 262.516 132.858C262.715 133.006 262.963 133.075 263.21 133.05Z" fill="white" stroke="#263238" stroke-miterlimit="10" stroke-linecap="round"/>
<path d="M263.62 135.66L274.19 134C274.436 133.951 274.654 133.813 274.802 133.611C274.95 133.409 275.017 133.159 274.99 132.91C274.939 132.666 274.799 132.45 274.598 132.304C274.396 132.158 274.147 132.092 273.9 132.12L263.33 133.76C263.084 133.809 262.866 133.947 262.718 134.149C262.57 134.351 262.503 134.601 262.53 134.85C262.576 135.097 262.714 135.318 262.916 135.468C263.118 135.619 263.37 135.687 263.62 135.66Z" fill="white" stroke="#263238" stroke-miterlimit="10" stroke-linecap="round"/>
<path d="M261.14 145.69C261.248 146.38 261.557 147.022 262.028 147.537C262.5 148.052 263.113 148.415 263.791 148.582C264.469 148.749 265.181 148.712 265.838 148.475C266.495 148.238 267.067 147.813 267.482 147.252C267.898 146.691 268.138 146.02 268.173 145.322C268.208 144.625 268.036 143.933 267.679 143.333C267.322 142.734 266.795 142.253 266.166 141.952C265.536 141.65 264.831 141.542 264.14 141.64C263.676 141.706 263.229 141.863 262.826 142.103C262.423 142.343 262.072 142.661 261.793 143.038C261.514 143.415 261.313 143.843 261.2 144.298C261.088 144.754 261.068 145.227 261.14 145.69Z" fill="#263238" stroke="#263238" stroke-miterlimit="10" stroke-linecap="round"/>
<path d="M265 144.59L275.57 142.94C275.816 142.891 276.034 142.753 276.182 142.551C276.33 142.349 276.397 142.099 276.37 141.85C276.319 141.606 276.179 141.39 275.978 141.244C275.776 141.098 275.527 141.032 275.28 141.06L264.71 142.7C264.464 142.749 264.246 142.887 264.098 143.089C263.95 143.291 263.883 143.541 263.91 143.79C263.959 144.036 264.098 144.254 264.299 144.402C264.501 144.55 264.751 144.617 265 144.59Z" fill="white" stroke="#263238" stroke-miterlimit="10" stroke-linecap="round"/>
<path d="M265.42 147.19L276 145.55C276.246 145.501 276.464 145.363 276.612 145.161C276.76 144.959 276.827 144.709 276.8 144.46C276.751 144.214 276.613 143.996 276.411 143.848C276.209 143.7 275.959 143.633 275.71 143.66L265.13 145.31C264.886 145.361 264.67 145.501 264.524 145.702C264.378 145.904 264.312 146.153 264.34 146.4C264.391 146.642 264.529 146.856 264.728 147.002C264.928 147.148 265.174 147.215 265.42 147.19Z" fill="white" stroke="#263238" stroke-miterlimit="10" stroke-linecap="round"/>
<path d="M262.94 157.22C263.04 157.915 263.344 158.565 263.815 159.087C264.285 159.608 264.9 159.978 265.581 160.15C266.262 160.321 266.978 160.286 267.64 160.048C268.301 159.811 268.876 159.383 269.293 158.818C269.71 158.252 269.949 157.576 269.98 156.874C270.012 156.173 269.834 155.478 269.469 154.877C269.104 154.277 268.569 153.799 267.932 153.504C267.294 153.209 266.584 153.11 265.89 153.22C264.971 153.366 264.147 153.867 263.595 154.615C263.043 155.364 262.808 156.299 262.94 157.22Z" fill="#263238" stroke="#263238" stroke-miterlimit="10" stroke-linecap="round"/>
<path d="M266.8 156.12L277.38 154.48C277.626 154.431 277.844 154.293 277.992 154.091C278.14 153.889 278.207 153.639 278.18 153.39C278.129 153.146 277.989 152.93 277.788 152.784C277.586 152.638 277.337 152.572 277.09 152.6L266.51 154.24C266.266 154.291 266.05 154.431 265.904 154.632C265.758 154.834 265.692 155.083 265.72 155.33C265.737 155.454 265.779 155.573 265.843 155.68C265.907 155.787 265.992 155.881 266.092 155.954C266.193 156.028 266.308 156.081 266.429 156.109C266.551 156.138 266.677 156.141 266.8 156.12Z" fill="white" stroke="#263238" stroke-miterlimit="10" stroke-linecap="round"/>
<path d="M267.21 158.73L277.79 157.09C278.034 157.039 278.25 156.899 278.396 156.698C278.542 156.496 278.608 156.247 278.58 156C278.531 155.754 278.393 155.536 278.191 155.388C277.989 155.24 277.739 155.173 277.49 155.2L266.92 156.85C266.674 156.899 266.456 157.037 266.308 157.239C266.16 157.441 266.093 157.691 266.12 157.94C266.171 158.184 266.311 158.4 266.512 158.546C266.714 158.692 266.963 158.758 267.21 158.73Z" fill="white" stroke="#263238" stroke-miterlimit="10" stroke-linecap="round"/>
<path d="M264.74 168.76C264.84 169.455 265.144 170.105 265.615 170.627C266.085 171.148 266.7 171.518 267.381 171.689C268.062 171.861 268.778 171.826 269.44 171.588C270.101 171.351 270.676 170.923 271.093 170.358C271.51 169.792 271.749 169.116 271.78 168.414C271.812 167.713 271.634 167.018 271.269 166.417C270.904 165.817 270.369 165.339 269.732 165.044C269.094 164.749 268.384 164.65 267.69 164.76C266.771 164.906 265.947 165.407 265.395 166.155C264.843 166.904 264.608 167.839 264.74 168.76Z" fill="#263238" stroke="#263238" stroke-miterlimit="10" stroke-linecap="round"/>
<path d="M268.6 167.66L279.18 166C279.424 165.949 279.64 165.809 279.786 165.608C279.932 165.406 279.998 165.157 279.97 164.91C279.921 164.664 279.783 164.446 279.581 164.298C279.379 164.15 279.129 164.083 278.88 164.11L268.31 165.76C268.064 165.809 267.846 165.947 267.698 166.149C267.55 166.351 267.483 166.601 267.51 166.85C267.556 167.097 267.694 167.318 267.896 167.468C268.098 167.619 268.35 167.687 268.6 167.66Z" fill="white" stroke="#263238" stroke-miterlimit="10" stroke-linecap="round"/>
<path d="M269 170.27L279.57 168.62C279.814 168.572 280.031 168.434 280.178 168.234C280.326 168.035 280.395 167.787 280.37 167.54C280.321 167.294 280.182 167.076 279.981 166.928C279.779 166.78 279.529 166.713 279.28 166.74L268.7 168.39C268.456 168.441 268.24 168.581 268.094 168.782C267.948 168.984 267.882 169.233 267.91 169.48C267.961 169.724 268.101 169.94 268.302 170.086C268.504 170.232 268.753 170.298 269 170.27Z" fill="white" stroke="#263238" stroke-miterlimit="10" stroke-linecap="round"/>
<path d="M266.53 180.3C266.628 180.994 266.93 181.642 267.397 182.165C267.864 182.687 268.476 183.058 269.154 183.232C269.833 183.407 270.548 183.376 271.209 183.144C271.87 182.911 272.447 182.488 272.867 181.928C273.287 181.367 273.532 180.695 273.57 179.995C273.608 179.296 273.437 178.601 273.08 177.998C272.723 177.396 272.195 176.913 271.563 176.61C270.931 176.308 270.223 176.2 269.53 176.3C268.602 176.434 267.765 176.93 267.203 177.68C266.641 178.43 266.399 179.372 266.53 180.3Z" fill="#263238" stroke="#263238" stroke-miterlimit="10" stroke-linecap="round"/>
<path d="M270.4 179.2L281 177.56C281.246 177.511 281.464 177.372 281.612 177.171C281.76 176.969 281.827 176.719 281.8 176.47C281.751 176.224 281.613 176.006 281.411 175.858C281.209 175.71 280.959 175.643 280.71 175.67L270.13 177.32C269.886 177.371 269.67 177.511 269.524 177.712C269.378 177.914 269.312 178.163 269.34 178.41C269.39 178.648 269.526 178.86 269.721 179.005C269.916 179.151 270.157 179.22 270.4 179.2Z" fill="white" stroke="#263238" stroke-miterlimit="10" stroke-linecap="round"/>
<path d="M270.8 181.81L281.38 180.16C281.624 180.109 281.84 179.969 281.986 179.768C282.132 179.566 282.198 179.317 282.17 179.07C282.119 178.826 281.979 178.61 281.778 178.464C281.576 178.318 281.327 178.252 281.08 178.28L270.51 179.93C270.266 179.978 270.049 180.116 269.902 180.316C269.754 180.515 269.685 180.763 269.71 181.01C269.759 181.256 269.897 181.474 270.099 181.622C270.301 181.77 270.551 181.837 270.8 181.81Z" fill="white" stroke="#263238" stroke-miterlimit="10" stroke-linecap="round"/>
<path d="M268.33 191.84C268.43 192.535 268.734 193.185 269.205 193.707C269.675 194.228 270.29 194.598 270.971 194.769C271.652 194.941 272.368 194.906 273.03 194.668C273.691 194.431 274.266 194.003 274.683 193.438C275.1 192.872 275.339 192.196 275.37 191.494C275.402 190.793 275.224 190.098 274.859 189.497C274.494 188.897 273.959 188.419 273.322 188.124C272.684 187.829 271.974 187.73 271.28 187.84C270.361 187.986 269.537 188.487 268.985 189.235C268.433 189.984 268.198 190.919 268.33 191.84Z" fill="#263238" stroke="#263238" stroke-miterlimit="10" stroke-linecap="round"/>
<path d="M272.19 190.74L282.77 189.09C283.014 189.039 283.23 188.899 283.376 188.698C283.522 188.496 283.588 188.247 283.56 188C283.509 187.756 283.369 187.54 283.168 187.394C282.966 187.248 282.717 187.182 282.47 187.21L271.9 188.86C271.656 188.908 271.439 189.046 271.291 189.246C271.144 189.445 271.075 189.693 271.1 189.94C271.149 190.186 271.287 190.404 271.489 190.552C271.691 190.7 271.941 190.767 272.19 190.74Z" fill="white" stroke="#263238" stroke-miterlimit="10" stroke-linecap="round"/>
<path d="M272.6 193.35L283.17 191.7C283.416 191.651 283.634 191.513 283.782 191.311C283.93 191.109 283.997 190.859 283.97 190.61C283.919 190.366 283.779 190.15 283.578 190.004C283.376 189.858 283.127 189.792 282.88 189.82L272.3 191.46C272.056 191.511 271.84 191.651 271.694 191.852C271.548 192.054 271.482 192.303 271.51 192.55C271.559 192.796 271.697 193.014 271.899 193.162C272.101 193.31 272.351 193.377 272.6 193.35Z" fill="white" stroke="#263238" stroke-miterlimit="10" stroke-linecap="round"/>
<path d="M270.12 203.38C270.227 204.07 270.537 204.712 271.008 205.227C271.48 205.742 272.093 206.105 272.771 206.272C273.449 206.439 274.161 206.402 274.818 206.165C275.475 205.928 276.047 205.503 276.462 204.942C276.878 204.381 277.118 203.71 277.153 203.012C277.188 202.315 277.016 201.623 276.659 201.023C276.302 200.424 275.775 199.943 275.146 199.642C274.516 199.34 273.811 199.232 273.12 199.33C272.656 199.396 272.209 199.553 271.806 199.793C271.403 200.033 271.052 200.351 270.773 200.728C270.494 201.105 270.293 201.533 270.18 201.988C270.068 202.444 270.048 202.917 270.12 203.38Z" fill="#263238" stroke="#263238" stroke-miterlimit="10" stroke-linecap="round"/>
<path d="M274 202.28L284.57 200.63C284.816 200.581 285.034 200.442 285.182 200.241C285.33 200.039 285.397 199.789 285.37 199.54C285.319 199.296 285.179 199.08 284.978 198.934C284.776 198.788 284.527 198.722 284.28 198.75L273.7 200.39C273.456 200.441 273.24 200.581 273.094 200.782C272.948 200.984 272.882 201.233 272.91 201.48C272.959 201.726 273.097 201.944 273.299 202.092C273.501 202.24 273.751 202.307 274 202.28Z" fill="white" stroke="#263238" stroke-miterlimit="10" stroke-linecap="round"/>
<path d="M274.39 204.88L285 203.24C285.244 203.189 285.46 203.049 285.606 202.848C285.752 202.646 285.818 202.397 285.79 202.15C285.773 202.026 285.731 201.907 285.667 201.8C285.603 201.693 285.518 201.599 285.418 201.526C285.317 201.452 285.202 201.399 285.081 201.371C284.959 201.342 284.833 201.339 284.71 201.36L274.1 203C273.854 203.049 273.636 203.188 273.488 203.389C273.34 203.591 273.273 203.841 273.3 204.09C273.351 204.334 273.491 204.55 273.692 204.696C273.894 204.842 274.143 204.908 274.39 204.88Z" fill="white" stroke="#263238" stroke-miterlimit="10" stroke-linecap="round"/>
<path d="M271.92 214.91C272.02 215.605 272.324 216.255 272.795 216.777C273.265 217.298 273.88 217.668 274.561 217.84C275.242 218.011 275.958 217.976 276.62 217.738C277.281 217.501 277.856 217.073 278.273 216.508C278.69 215.942 278.929 215.266 278.96 214.564C278.992 213.863 278.814 213.168 278.449 212.567C278.084 211.967 277.549 211.489 276.912 211.194C276.274 210.899 275.564 210.8 274.87 210.91C273.951 211.056 273.127 211.557 272.575 212.305C272.023 213.054 271.788 213.989 271.92 214.91Z" fill="#263238" stroke="#263238" stroke-miterlimit="10" stroke-linecap="round"/>
<path d="M275.78 213.82L286.36 212.17C286.604 212.119 286.82 211.979 286.966 211.778C287.112 211.576 287.178 211.327 287.15 211.08C287.099 210.838 286.961 210.624 286.762 210.478C286.562 210.332 286.316 210.265 286.07 210.29L275.49 211.93C275.244 211.979 275.026 212.118 274.878 212.319C274.73 212.521 274.663 212.771 274.69 213.02C274.739 213.266 274.878 213.484 275.079 213.632C275.281 213.78 275.531 213.847 275.78 213.82Z" fill="white" stroke="#263238" stroke-miterlimit="10" stroke-linecap="round"/>
<path d="M276.19 216.42L286.76 214.78C287.006 214.731 287.224 214.593 287.372 214.391C287.52 214.189 287.587 213.939 287.56 213.69C287.511 213.444 287.373 213.226 287.171 213.078C286.969 212.93 286.719 212.863 286.47 212.89L275.9 214.54C275.654 214.589 275.436 214.728 275.288 214.929C275.14 215.131 275.073 215.381 275.1 215.63C275.151 215.874 275.291 216.09 275.492 216.236C275.694 216.382 275.943 216.448 276.19 216.42Z" fill="white" stroke="#263238" stroke-miterlimit="10" stroke-linecap="round"/>
<path d="M273.71 226.45C273.808 227.144 274.11 227.792 274.577 228.315C275.044 228.837 275.656 229.208 276.334 229.382C277.013 229.557 277.728 229.526 278.389 229.294C279.05 229.061 279.627 228.638 280.047 228.078C280.467 227.517 280.712 226.845 280.75 226.145C280.788 225.446 280.617 224.751 280.26 224.148C279.903 223.546 279.375 223.063 278.743 222.76C278.111 222.458 277.403 222.35 276.71 222.45C275.783 222.586 274.948 223.083 274.386 223.832C273.824 224.581 273.581 225.522 273.71 226.45Z" fill="#263238" stroke="#263238" stroke-miterlimit="10" stroke-linecap="round"/>
<path d="M277.58 225.35L288.15 223.71C288.396 223.661 288.614 223.523 288.762 223.321C288.91 223.119 288.977 222.869 288.95 222.62C288.901 222.374 288.763 222.156 288.561 222.008C288.359 221.86 288.109 221.793 287.86 221.82L277.29 223.47C277.044 223.519 276.826 223.658 276.678 223.859C276.53 224.061 276.463 224.311 276.49 224.56C276.541 224.804 276.681 225.02 276.882 225.166C277.084 225.312 277.333 225.378 277.58 225.35Z" fill="white" stroke="#263238" stroke-miterlimit="10" stroke-linecap="round"/>
<path d="M278 228L288.58 226.36C288.824 226.309 289.04 226.169 289.186 225.968C289.332 225.766 289.398 225.517 289.37 225.27C289.322 225.026 289.184 224.809 288.984 224.661C288.785 224.514 288.537 224.445 288.29 224.47L277.71 226.12C277.466 226.171 277.25 226.311 277.104 226.512C276.958 226.714 276.892 226.963 276.92 227.21C276.938 227.333 276.981 227.451 277.045 227.558C277.11 227.665 277.194 227.757 277.295 227.831C277.395 227.904 277.509 227.957 277.63 227.986C277.751 228.015 277.877 228.02 278 228Z" fill="white" stroke="#263238" stroke-miterlimit="10" stroke-linecap="round"/>
<path d="M275.51 238C275.61 238.695 275.914 239.345 276.385 239.867C276.855 240.388 277.47 240.758 278.151 240.93C278.832 241.101 279.548 241.066 280.21 240.828C280.871 240.591 281.446 240.163 281.863 239.598C282.28 239.032 282.519 238.356 282.55 237.654C282.582 236.953 282.404 236.258 282.039 235.657C281.674 235.057 281.139 234.579 280.502 234.284C279.864 233.989 279.154 233.89 278.46 234C277.541 234.146 276.717 234.647 276.165 235.395C275.613 236.144 275.378 237.079 275.51 238Z" fill="#263238" stroke="#263238" stroke-miterlimit="10" stroke-linecap="round"/>
<path d="M279.37 236.89L290 235.25C290.124 235.232 290.243 235.189 290.351 235.124C290.458 235.059 290.551 234.973 290.625 234.872C290.698 234.77 290.751 234.655 290.779 234.532C290.808 234.41 290.811 234.284 290.79 234.16C290.742 233.916 290.604 233.699 290.404 233.552C290.205 233.404 289.957 233.335 289.71 233.36L279.08 235C278.956 235.018 278.837 235.061 278.729 235.126C278.622 235.191 278.529 235.277 278.455 235.378C278.382 235.48 278.329 235.595 278.301 235.718C278.272 235.84 278.269 235.966 278.29 236.09C278.307 236.214 278.349 236.333 278.413 236.441C278.476 236.549 278.561 236.643 278.662 236.717C278.762 236.792 278.877 236.845 278.998 236.875C279.12 236.905 279.246 236.91 279.37 236.89Z" fill="white" stroke="#263238" stroke-miterlimit="10" stroke-linecap="round"/>
<path d="M279.78 239.5L290.35 237.85C290.474 237.833 290.593 237.791 290.701 237.727C290.809 237.664 290.903 237.579 290.977 237.478C291.052 237.378 291.105 237.263 291.135 237.142C291.165 237.02 291.17 236.894 291.15 236.77C291.101 236.524 290.962 236.306 290.761 236.158C290.559 236.01 290.309 235.943 290.06 235.97L279.49 237.62C279.246 237.668 279.029 237.806 278.881 238.006C278.734 238.205 278.665 238.453 278.69 238.7C278.739 238.946 278.877 239.164 279.079 239.312C279.281 239.46 279.531 239.527 279.78 239.5Z" fill="white" stroke="#263238" stroke-miterlimit="10" stroke-linecap="round"/>
<path d="M277.3 249.53C277.398 250.224 277.7 250.872 278.167 251.394C278.634 251.917 279.246 252.288 279.924 252.462C280.603 252.637 281.318 252.606 281.979 252.374C282.64 252.141 283.217 251.718 283.637 251.158C284.057 250.597 284.302 249.925 284.34 249.225C284.378 248.526 284.207 247.831 283.85 247.228C283.493 246.626 282.965 246.143 282.333 245.84C281.701 245.538 280.993 245.43 280.3 245.53C279.373 245.666 278.538 246.163 277.976 246.912C277.414 247.661 277.171 248.602 277.3 249.53Z" fill="#263238" stroke="#263238" stroke-miterlimit="10" stroke-linecap="round"/>
<path d="M281.17 248.43L291.74 246.78C291.984 246.732 292.201 246.594 292.348 246.394C292.496 246.195 292.565 245.947 292.54 245.7C292.491 245.454 292.353 245.236 292.151 245.088C291.949 244.94 291.699 244.873 291.45 244.9L280.88 246.55C280.636 246.598 280.419 246.736 280.272 246.936C280.124 247.135 280.055 247.383 280.08 247.63C280.129 247.876 280.267 248.094 280.469 248.242C280.671 248.39 280.921 248.457 281.17 248.43Z" fill="white" stroke="#263238" stroke-miterlimit="10" stroke-linecap="round"/>
<path d="M281.58 251L292.15 249.35C292.396 249.301 292.614 249.162 292.762 248.961C292.91 248.759 292.977 248.509 292.95 248.26C292.899 248.016 292.759 247.8 292.558 247.654C292.356 247.508 292.107 247.442 291.86 247.47L281.28 249.11C281.036 249.161 280.82 249.301 280.674 249.502C280.528 249.704 280.462 249.953 280.49 250.2C280.539 250.446 280.677 250.664 280.879 250.812C281.081 250.96 281.331 251.027 281.58 251Z" fill="white" stroke="#263238" stroke-miterlimit="10" stroke-linecap="round"/>
<path d="M279.1 261.07C279.2 261.765 279.504 262.415 279.975 262.937C280.445 263.458 281.06 263.828 281.741 264C282.422 264.171 283.138 264.136 283.8 263.898C284.461 263.661 285.036 263.233 285.453 262.668C285.87 262.102 286.109 261.426 286.14 260.724C286.172 260.023 285.994 259.328 285.629 258.727C285.264 258.127 284.729 257.649 284.092 257.354C283.454 257.059 282.744 256.96 282.05 257.07C281.131 257.216 280.307 257.717 279.755 258.465C279.203 259.214 278.968 260.149 279.1 261.07Z" fill="#263238" stroke="#263238" stroke-miterlimit="10" stroke-linecap="round"/>
<path d="M283 260L293.57 258.35C293.816 258.301 294.034 258.162 294.182 257.961C294.33 257.759 294.397 257.509 294.37 257.26C294.319 257.016 294.179 256.8 293.978 256.654C293.776 256.508 293.527 256.442 293.28 256.47L282.7 258.11C282.456 258.161 282.24 258.301 282.094 258.502C281.948 258.704 281.882 258.953 281.91 259.2C281.959 259.446 282.097 259.664 282.299 259.812C282.501 259.96 282.751 260.027 283 260Z" fill="white" stroke="#263238" stroke-miterlimit="10" stroke-linecap="round"/>
<path d="M283.37 262.58L294 260.93C294.244 260.879 294.46 260.739 294.606 260.538C294.752 260.336 294.818 260.087 294.79 259.84C294.739 259.596 294.599 259.38 294.398 259.234C294.196 259.088 293.947 259.022 293.7 259.05L283.13 260.69C282.884 260.739 282.666 260.877 282.518 261.079C282.37 261.281 282.303 261.531 282.33 261.78C282.378 262.016 282.509 262.227 282.7 262.374C282.892 262.521 283.129 262.594 283.37 262.58Z" fill="white" stroke="#263238" stroke-miterlimit="10" stroke-linecap="round"/>
<path d="M280.9 272.61C281.007 273.3 281.317 273.942 281.788 274.457C282.26 274.972 282.873 275.335 283.551 275.502C284.229 275.669 284.941 275.632 285.598 275.395C286.255 275.158 286.827 274.733 287.242 274.172C287.658 273.611 287.898 272.94 287.933 272.242C287.968 271.545 287.796 270.853 287.439 270.253C287.082 269.654 286.555 269.173 285.926 268.872C285.296 268.57 284.591 268.462 283.9 268.56C283.436 268.626 282.989 268.783 282.586 269.023C282.183 269.263 281.832 269.581 281.553 269.958C281.274 270.335 281.073 270.763 280.96 271.218C280.848 271.674 280.828 272.147 280.9 272.61Z" fill="#263238" stroke="#263238" stroke-miterlimit="10" stroke-linecap="round"/>
<path d="M284.76 271.51L295.34 269.86C295.584 269.809 295.8 269.669 295.946 269.468C296.092 269.266 296.158 269.017 296.13 268.77C296.075 268.522 295.927 268.305 295.717 268.162C295.507 268.019 295.251 267.961 295 268L284.43 269.64C284.184 269.689 283.966 269.827 283.818 270.029C283.67 270.231 283.603 270.481 283.63 270.73C283.683 270.98 283.83 271.2 284.04 271.345C284.25 271.49 284.508 271.549 284.76 271.51Z" fill="white" stroke="#263238" stroke-miterlimit="10" stroke-linecap="round"/>
<path d="M285.17 274.11L295.74 272.47C295.986 272.421 296.204 272.283 296.352 272.081C296.5 271.879 296.567 271.629 296.54 271.38C296.491 271.134 296.352 270.916 296.151 270.768C295.949 270.62 295.699 270.553 295.45 270.58L284.87 272.23C284.626 272.281 284.41 272.421 284.264 272.622C284.118 272.824 284.052 273.073 284.08 273.32C284.131 273.564 284.271 273.78 284.472 273.926C284.674 274.072 284.923 274.138 285.17 274.11Z" fill="white" stroke="#263238" stroke-miterlimit="10" stroke-linecap="round"/>
<path d="M282.69 284.14C282.79 284.835 283.094 285.485 283.565 286.007C284.035 286.528 284.65 286.898 285.331 287.07C286.012 287.241 286.728 287.206 287.39 286.968C288.051 286.731 288.626 286.303 289.043 285.738C289.46 285.172 289.699 284.496 289.73 283.794C289.762 283.093 289.584 282.398 289.219 281.797C288.854 281.197 288.319 280.719 287.682 280.424C287.044 280.129 286.334 280.03 285.64 280.14C284.721 280.286 283.897 280.787 283.345 281.535C282.793 282.284 282.558 283.219 282.69 284.14Z" fill="#263238" stroke="#263238" stroke-miterlimit="10" stroke-linecap="round"/>
<path d="M286.56 283L297.13 281.36C297.376 281.311 297.594 281.173 297.742 280.971C297.89 280.769 297.957 280.519 297.93 280.27C297.912 280.146 297.869 280.027 297.804 279.919C297.739 279.812 297.653 279.719 297.552 279.645C297.45 279.572 297.335 279.519 297.212 279.491C297.09 279.462 296.964 279.459 296.84 279.48L286.26 281.12C286.016 281.171 285.8 281.311 285.654 281.512C285.508 281.714 285.442 281.963 285.47 282.21C285.488 282.334 285.531 282.453 285.596 282.561C285.661 282.668 285.747 282.761 285.848 282.835C285.95 282.908 286.065 282.961 286.187 282.989C286.31 283.018 286.436 283.021 286.56 283Z" fill="white" stroke="#263238" stroke-miterlimit="10" stroke-linecap="round"/>
<path d="M287 285.65L297.54 284C297.784 283.949 298 283.809 298.146 283.608C298.292 283.406 298.358 283.157 298.33 282.91C298.281 282.664 298.143 282.446 297.941 282.298C297.739 282.15 297.489 282.083 297.24 282.11L286.67 283.76C286.424 283.809 286.206 283.948 286.058 284.149C285.91 284.351 285.843 284.601 285.87 284.85C285.919 285.103 286.064 285.328 286.274 285.477C286.485 285.626 286.745 285.688 287 285.65Z" fill="white" stroke="#263238" stroke-miterlimit="10" stroke-linecap="round"/>
<path d="M284.49 295.68C284.59 296.375 284.894 297.025 285.365 297.547C285.835 298.068 286.45 298.438 287.131 298.61C287.812 298.781 288.528 298.746 289.19 298.508C289.851 298.271 290.426 297.843 290.843 297.278C291.26 296.712 291.499 296.036 291.53 295.334C291.562 294.633 291.384 293.938 291.019 293.337C290.654 292.737 290.119 292.259 289.482 291.964C288.844 291.669 288.134 291.57 287.44 291.68C286.521 291.826 285.697 292.327 285.145 293.075C284.593 293.824 284.358 294.759 284.49 295.68Z" fill="#263238" stroke="#263238" stroke-miterlimit="10" stroke-linecap="round"/>
<path d="M288.35 294.58L298.93 292.94C299.174 292.889 299.39 292.749 299.536 292.548C299.682 292.346 299.748 292.097 299.72 291.85C299.671 291.604 299.533 291.386 299.331 291.238C299.129 291.09 298.879 291.023 298.63 291.05L288.06 292.7C287.814 292.749 287.596 292.887 287.448 293.089C287.3 293.291 287.233 293.541 287.26 293.79C287.311 294.034 287.451 294.25 287.652 294.396C287.854 294.542 288.103 294.608 288.35 294.58Z" fill="white" stroke="#263238" stroke-miterlimit="10" stroke-linecap="round"/>
<path d="M288.76 297.19L299.33 295.54C299.574 295.492 299.791 295.354 299.938 295.154C300.086 294.955 300.155 294.707 300.13 294.46C300.081 294.214 299.942 293.996 299.741 293.848C299.539 293.7 299.289 293.633 299.04 293.66L288.46 295.31C288.216 295.361 288 295.501 287.854 295.702C287.708 295.904 287.642 296.153 287.67 296.4C287.721 296.644 287.861 296.86 288.062 297.006C288.264 297.152 288.513 297.218 288.76 297.19Z" fill="white" stroke="#263238" stroke-miterlimit="10" stroke-linecap="round"/>
<path d="M286.28 307.22C286.378 307.914 286.68 308.562 287.147 309.084C287.614 309.607 288.226 309.978 288.904 310.152C289.583 310.327 290.298 310.296 290.959 310.064C291.62 309.831 292.197 309.408 292.617 308.848C293.037 308.287 293.282 307.615 293.32 306.915C293.358 306.216 293.187 305.521 292.83 304.918C292.473 304.316 291.945 303.833 291.313 303.53C290.681 303.228 289.973 303.12 289.28 303.22C288.352 303.354 287.515 303.85 286.953 304.6C286.391 305.35 286.149 306.292 286.28 307.22Z" fill="#263238" stroke="#263238" stroke-miterlimit="10" stroke-linecap="round"/>
<path d="M290.15 306.12L300.72 304.48C300.966 304.431 301.184 304.293 301.332 304.091C301.48 303.889 301.547 303.639 301.52 303.39C301.471 303.144 301.332 302.926 301.131 302.778C300.929 302.63 300.679 302.563 300.43 302.59L289.85 304.24C289.606 304.291 289.39 304.431 289.244 304.632C289.098 304.834 289.032 305.083 289.06 305.33C289.111 305.574 289.251 305.79 289.452 305.936C289.654 306.082 289.903 306.148 290.15 306.12Z" fill="white" stroke="#263238" stroke-miterlimit="10" stroke-linecap="round"/>
<path d="M290.55 308.73L301.13 307.08C301.374 307.029 301.59 306.889 301.736 306.688C301.882 306.486 301.948 306.237 301.92 305.99C301.902 305.867 301.859 305.749 301.795 305.642C301.73 305.535 301.646 305.443 301.545 305.369C301.445 305.296 301.331 305.243 301.21 305.214C301.088 305.185 300.963 305.18 300.84 305.2L290.26 306.85C290.136 306.867 290.017 306.909 289.91 306.973C289.803 307.037 289.709 307.122 289.636 307.222C289.562 307.323 289.509 307.438 289.481 307.559C289.452 307.681 289.449 307.807 289.47 307.93C289.518 308.174 289.656 308.391 289.856 308.538C290.055 308.686 290.303 308.755 290.55 308.73Z" fill="white" stroke="#263238" stroke-miterlimit="10" stroke-linecap="round"/>
<g opacity="0.3">
<path d="M135.08 111.51L137.71 111.11" stroke="black" stroke-miterlimit="10" stroke-linecap="round"/>
<path d="M140.34 110.7L142.97 110.29" stroke="black" stroke-miterlimit="10" stroke-linecap="round"/>
<path d="M109.38 119.22L112 118.81" stroke="black" stroke-miterlimit="10" stroke-linecap="round"/>
<path d="M114.63 118.4L117.26 117.99" stroke="black" stroke-miterlimit="10" stroke-linecap="round"/>
<path d="M119.89 117.59L122.51 117.18" stroke="black" stroke-miterlimit="10" stroke-linecap="round"/>
<path d="M125.14 116.77L127.77 116.36" stroke="black" stroke-miterlimit="10" stroke-linecap="round"/>
<path d="M130.39 115.95L133.02 115.54" stroke="black" stroke-miterlimit="10" stroke-linecap="round"/>
<path d="M135.65 115.13L138.27 114.72" stroke="black" stroke-miterlimit="10" stroke-linecap="round"/>
<path d="M140.9 114.31L143.53 113.91" stroke="black" stroke-miterlimit="10" stroke-linecap="round"/>
<path d="M109.94 122.84L112.57 122.43" stroke="black" stroke-miterlimit="10" stroke-linecap="round"/>
<path d="M115.19 122.02L117.82 121.61" stroke="black" stroke-miterlimit="10" stroke-linecap="round"/>
<path d="M120.45 121.2L123.08 120.8" stroke="black" stroke-miterlimit="10" stroke-linecap="round"/>
<path d="M125.7 120.39L128.33 119.98" stroke="black" stroke-miterlimit="10" stroke-linecap="round"/>
<path d="M130.96 119.57L133.58 119.16" stroke="black" stroke-miterlimit="10" stroke-linecap="round"/>
<path d="M136.21 118.75L138.84 118.34" stroke="black" stroke-miterlimit="10" stroke-linecap="round"/>
<path d="M141.46 117.93L144.09 117.52" stroke="black" stroke-miterlimit="10" stroke-linecap="round"/>
<path d="M110.5 126.46L113.13 126.05" stroke="black" stroke-miterlimit="10" stroke-linecap="round"/>
<path d="M115.76 125.64L118.38 125.23" stroke="black" stroke-miterlimit="10" stroke-linecap="round"/>
<path d="M121.01 124.82L123.64 124.41" stroke="black" stroke-miterlimit="10" stroke-linecap="round"/>
<path d="M126.27 124.01L128.89 123.6" stroke="black" stroke-miterlimit="10" stroke-linecap="round"/>
<path d="M131.52 123.19L134.15 122.78" stroke="black" stroke-miterlimit="10" stroke-linecap="round"/>
<path d="M136.77 122.37L139.4 121.96" stroke="black" stroke-miterlimit="10" stroke-linecap="round"/>
<path d="M142.03 121.55L144.65 121.14" stroke="black" stroke-miterlimit="10" stroke-linecap="round"/>
<path d="M111.07 130.08L113.69 129.67" stroke="black" stroke-miterlimit="10" stroke-linecap="round"/>
<path d="M116.32 129.26L118.95 128.85" stroke="black" stroke-miterlimit="10" stroke-linecap="round"/>
<path d="M121.57 128.44L124.2 128.03" stroke="black" stroke-miterlimit="10" stroke-linecap="round"/>
<path d="M126.83 127.62L129.46 127.22" stroke="black" stroke-miterlimit="10" stroke-linecap="round"/>
<path d="M132.08 126.81L134.71 126.4" stroke="black" stroke-miterlimit="10" stroke-linecap="round"/>
<path d="M137.34 125.99L139.96 125.58" stroke="black" stroke-miterlimit="10" stroke-linecap="round"/>
<path d="M142.59 125.17L145.22 124.76" stroke="black" stroke-miterlimit="10" stroke-linecap="round"/>
<path d="M108.07 110.85L110.7 110.44" stroke="black" stroke-miterlimit="10" stroke-linecap="round"/>
<path d="M113.33 110.03L115.96 109.63" stroke="black" stroke-miterlimit="10" stroke-linecap="round"/>
<path d="M118.58 109.22L121.21 108.81" stroke="black" stroke-miterlimit="10" stroke-linecap="round"/>
<path d="M123.84 108.4L126.46 107.99" stroke="black" stroke-miterlimit="10" stroke-linecap="round"/>
<path d="M129.09 107.58L131.72 107.17" stroke="black" stroke-miterlimit="10" stroke-linecap="round"/>
<path d="M134.35 106.76L136.97 106.36" stroke="black" stroke-miterlimit="10" stroke-linecap="round"/>
<path d="M139.6 105.95L142.23 105.54" stroke="black" stroke-miterlimit="10" stroke-linecap="round"/>
<path d="M142.77 107.54L108.17 112.92" stroke="black" stroke-miterlimit="10" stroke-linecap="round"/>
<path d="M117.77 104.71L131.12 102.63" stroke="black" stroke-miterlimit="10" stroke-linecap="round"/>
<path d="M101.19 142.03L248.42 119.12" stroke="black" stroke-miterlimit="10" stroke-linecap="round"/>
<path d="M103.04 153.89L250.26 130.98" stroke="black" stroke-miterlimit="10" stroke-linecap="round"/>
<path d="M104.88 165.74L252.11 142.83" stroke="black" stroke-miterlimit="10" stroke-linecap="round"/>
<path d="M106.73 177.6L253.95 154.69" stroke="black" stroke-miterlimit="10" stroke-linecap="round"/>
<path d="M108.57 189.46L255.8 166.55" stroke="black" stroke-miterlimit="10" stroke-linecap="round"/>
<path d="M110.42 201.32L257.64 178.4" stroke="black" stroke-miterlimit="10" stroke-linecap="round"/>
<path d="M112.26 213.17L259.49 190.26" stroke="black" stroke-miterlimit="10" stroke-linecap="round"/>
<path d="M114.11 225.03L261.33 202.12" stroke="black" stroke-miterlimit="10" stroke-linecap="round"/>
<path d="M115.95 236.89L263.18 213.98" stroke="black" stroke-miterlimit="10" stroke-linecap="round"/>
<path d="M117.8 248.75L265.02 225.83" stroke="black" stroke-miterlimit="10" stroke-linecap="round"/>
<path d="M119.64 260.6L266.87 237.69" stroke="black" stroke-miterlimit="10" stroke-linecap="round"/>
<path d="M121.49 272.46L268.72 249.55" stroke="black" stroke-miterlimit="10" stroke-linecap="round"/>
<path d="M123.33 284.32L270.56 261.41" stroke="black" stroke-miterlimit="10" stroke-linecap="round"/>
<path d="M127.72 312.48L274.94 289.57" stroke="black" stroke-miterlimit="10" stroke-linecap="round"/>
<path d="M129.18 321.87L276.4 298.95" stroke="black" stroke-miterlimit="10" stroke-linecap="round"/>
<path d="M130.64 331.25L277.86 308.34" stroke="black" stroke-miterlimit="10" stroke-linecap="round"/>
</g>
<path d="M122.19 153.44C122.19 153.44 109.63 167.03 116.89 164.89C124.15 162.75 134.08 148.55 131.97 154.45C129.86 160.35 129.97 164.37 133.38 160.3C136.79 156.23 138.7 155.42 138.01 157.55C137.32 159.68 140.14 158.23 140.14 158.23C140.14 158.23 147.14 154.11 146.41 156.23C145.68 158.35 145.24 158.44 147.22 158.13L153.64 157.13C153.64 157.13 153.22 157.71 159.15 156.78C165.08 155.85 167.39 154.49 170.36 154.03" stroke="#263238" stroke-miterlimit="10" stroke-linecap="round"/>
<path d="M116.49 172C116.49 172 126.17 165.94 127.39 167.27C128.61 168.6 126.94 170.88 131.31 169.7C135.68 168.52 139.66 164.86 139.97 166.83C140.28 168.8 143.09 167.36 143.09 167.36L145.56 166.97C145.56 166.97 150.08 166.78 151.49 166.05C152.9 165.32 154.36 158.52 153.28 167.8C152.2 177.08 148.41 169.06 157.42 165.13C166.43 161.2 168.1 165.49 168.1 165.49C169.097 165.265 170.067 164.929 170.99 164.49C172.88 163.68 174.55 161.4 176.34 163.15C178.13 164.9 181.34 159.34 181.34 159.34C182.589 159.573 183.822 159.887 185.03 160.28C186.188 160.685 187.418 160.838 188.64 160.73C190.15 160.788 191.661 160.721 193.16 160.53C195.16 160.22 196.81 157.94 198.44 158.7C200.07 159.46 202.54 152.49 201.3 160.78C200.06 169.07 192.04 172.85 195.3 167.78C198.177 163.352 201.874 159.513 206.19 156.47C209.84 153.88 210.9 154.22 211.7 156.12C212.5 158.02 213.49 157.86 215.39 157.06C217.29 156.26 215.66 155.5 217.29 156.26C217.833 156.569 218.431 156.767 219.05 156.844C219.67 156.922 220.298 156.876 220.9 156.71C222.39 156.48 215.44 160.6 222.39 156.48C229.34 152.36 231.82 135.78 228.18 144.95C224.54 154.12 225.92 156.44 230.79 155.17" stroke="#263238" stroke-miterlimit="10" stroke-linecap="round"/>
<path d="M117.54 188.57C117.54 188.57 129.42 177.11 128.69 175.7C127.96 174.29 124.17 175.9 121.4 180.88C118.63 185.86 120.58 188.6 128.03 184.41C135.48 180.22 124.64 185.41 132.29 185.77C139.94 186.13 142.2 181.19 142.43 182.67C142.66 184.15 140.11 184.04 146.12 183.67C152.13 183.3 149.19 180.67 155.35 181.22C161.51 181.77 164.25 179.83 164.25 179.83L168.2 179.22C168.2 179.22 160.2 179.95 170.59 178.34C180.98 176.73 185.54 163.87 180.54 170.72C175.54 177.57 177.89 179.72 183.02 176.91L188.15 174.09C188.15 174.09 194.63 167.01 191.57 176.59C188.51 186.17 184.89 179.15 196.28 174.34C207.67 169.53 207.38 174.13 211.18 172.53C214.98 170.93 214.36 166.97 216.88 170.12C219.4 173.27 219.24 172.29 223.19 171.67C227.14 171.05 226.08 170.67 229.54 170.18L237 169" stroke="#263238" stroke-miterlimit="10" stroke-linecap="round"/>
<path d="M119.54 224.19C119.54 224.19 127.82 218.85 129.14 211.05C130.46 203.25 123.93 213.38 124.64 224.4C125.35 235.42 121.47 220.34 133.02 216.52C144.57 212.7 132.02 219.72 133.3 221.52C134.58 223.32 144.05 215.8 143.94 218.34C143.83 220.88 145.94 221.57 151.76 216.62C157.58 211.67 148.11 212.62 147.66 216.25C147.21 219.88 150.02 218.41 157.2 215.77C164.38 213.13 157.35 216.77 161.8 216.07C166.25 215.37 176.04 206.77 174.11 210.61C172.18 214.45 174.04 216.7 176.2 214.34C178.36 211.98 182.96 205.69 183.34 208.16C183.569 209.619 183.252 211.11 182.45 212.35" stroke="#263238" stroke-miterlimit="10" stroke-linecap="round"/>
<path opacity="0.3" d="M73.13 130.09C72.9369 129.886 72.7298 129.695 72.51 129.52C71.8755 129.026 71.1798 128.616 70.44 128.3L70 128.14H69.89C65.95 126.92 52.48 126.34 47.96 126.14C46.8325 126.101 45.7249 126.444 44.8171 127.114C43.9094 127.784 43.2549 128.741 42.96 129.83V129.94C42 133.61 28.3 224.15 28.3 224.15C28.3 224.15 28.2 226.15 28.06 229.28C28 230.65 27.94 232.28 27.86 233.93C27.86 234.36 27.86 234.79 27.86 235.23C27.86 236.11 27.79 237.01 27.75 237.92C27.62 241.13 27.5 244.51 27.41 247.6C27.34 249.8 27.29 251.86 27.26 253.6C27.26 254.99 27.26 256.17 27.26 257.07C27.2484 259.165 27.3653 261.259 27.61 263.34C28 265.92 28.9 267.11 31.12 267.5C31.67 267.6 32.47 267.72 33.44 267.84L34.04 267.91L36.79 268.21L37.55 268.28L39.9 268.47L41.52 268.57L43.15 268.65C44.22 268.7 45.28 268.72 46.29 268.72C47.7608 268.742 49.2312 268.658 50.69 268.47H50.82L51.19 268.4L51.6 268.3H51.68L52.09 268.17L52.78 267.91L53.41 267.65C54.2586 267.311 55.0669 266.878 55.82 266.36C56.0634 266.186 56.2971 265.999 56.52 265.8C56.7333 265.613 56.9333 265.413 57.12 265.2L57.38 264.89C57.7444 264.432 58.0784 263.951 58.38 263.45C58.4298 263.372 58.4701 263.288 58.5 263.2L58.56 263.05L58.66 262.79C58.6822 262.712 58.7089 262.635 58.74 262.56C58.74 262.45 58.8 262.36 58.84 262.24L58.93 261.96C58.93 261.83 59 261.71 59.04 261.57C59.08 261.43 59.11 261.35 59.14 261.24C59.17 261.13 59.22 260.94 59.27 260.78C59.32 260.62 59.34 260.51 59.38 260.38C59.42 260.25 59.46 260.06 59.51 259.88C59.56 259.7 59.59 259.58 59.63 259.43C59.67 259.28 59.72 259.07 59.77 258.87L59.89 258.4L60.04 257.79C60.04 257.62 60.13 257.43 60.18 257.25L60.33 256.61C60.38 256.43 60.42 256.23 60.47 256.04C60.52 255.85 60.58 255.59 60.63 255.36L60.78 254.75C60.78 254.52 60.89 254.29 60.94 254.05C60.99 253.81 61.04 253.61 61.1 253.39C61.16 253.17 61.21 252.91 61.26 252.66C61.2646 252.59 61.2646 252.52 61.26 252.45C61.26 252.31 61.33 252.17 61.36 252.03C61.39 251.89 61.48 251.49 61.55 251.21C61.62 250.93 61.64 250.79 61.69 250.57C61.74 250.35 61.81 250.02 61.88 249.74L62.03 249.08L62.21 248.25C62.21 248.01 62.32 247.76 62.37 247.52L62.55 246.73C62.55 246.48 62.66 246.22 62.71 245.97L62.89 245.18C62.89 245.06 62.89 244.94 62.96 244.82C63.03 244.7 63.03 244.54 63.06 244.4C63.09 244.26 63.17 243.88 63.22 243.62C63.27 243.36 63.33 243.11 63.39 242.85C63.45 242.59 63.5 242.31 63.56 242.05C63.62 241.79 63.67 241.53 63.73 241.27C63.79 241.01 63.83 240.77 63.89 240.52C63.95 240.27 64 239.97 64.06 239.69L64.21 238.97C64.27 238.71 64.32 238.46 64.37 238.21C64.42 237.96 64.48 237.68 64.54 237.42L64.69 236.67C64.69 236.44 64.79 236.21 64.83 235.98C64.87 235.75 64.9 235.64 64.94 235.47L65 235.18C65 234.96 65.09 234.74 65.13 234.52C65.17 234.3 65.24 234.02 65.29 233.77C65.34 233.52 65.37 233.34 65.42 233.13L65.57 232.36C65.57 232.19 65.64 232.01 65.67 231.84L65.79 231.26C65.79 231.19 65.79 231.12 65.79 231.04C65.79 230.96 65.86 230.71 65.89 230.54L66.04 229.81L66.13 229.31C66.18 229.08 66.22 228.85 66.26 228.64L66.35 228.2L66.47 227.53C66.47 227.41 66.47 227.3 66.54 227.19L66.66 226.54L66.72 226.22C66.72 226.02 66.79 225.83 66.82 225.65C66.82 225.41 66.9 225.17 66.94 224.96C67.11 223.96 67.34 221.75 67.62 218.66C67.73 217.5 67.84 216.22 67.96 214.82C68.39 209.72 68.89 203.16 69.42 195.96C69.42 195.31 69.51 194.65 69.56 193.96C71.56 166.74 73.78 131.81 73.78 131.81C73.7928 131.494 73.7419 131.179 73.6302 130.884C73.5185 130.588 73.3484 130.318 73.13 130.09Z" fill="black"/>
<path d="M23.63 223.15C23.63 223.15 22.4 248.91 22.54 256.05C22.68 263.19 22.85 265.86 26.39 266.49C29.93 267.12 43.59 268.49 47.39 267.11C51.19 265.73 52.39 264.51 53.67 262.4C54.95 260.29 60.97 231.83 62.33 223.84C63.69 215.85 69.18 130.72 69.18 130.72C69.18 130.72 69.39 128.91 65.74 127.3C62.74 125.95 48.02 125.3 43.26 125.14C42.1254 125.089 41.0072 125.425 40.0893 126.094C39.1715 126.763 38.5087 127.724 38.21 128.82C38.21 128.82 38.21 128.9 38.21 128.93C37.3 132.6 23.63 223.15 23.63 223.15Z" fill="#1A4BB9"/>
<mask id="mask0_0_1" style="mask-type:luminance" maskUnits="userSpaceOnUse" x="22" y="125" width="48" height="143">
<path d="M23.63 223.15C23.63 223.15 22.4 248.91 22.54 256.05C22.68 263.19 22.85 265.86 26.39 266.49C29.93 267.12 43.59 268.49 47.39 267.11C51.19 265.73 52.39 264.51 53.67 262.4C54.95 260.29 60.97 231.83 62.33 223.84C63.69 215.85 69.18 130.72 69.18 130.72C69.18 130.72 69.39 128.91 65.74 127.3C62.74 125.95 48.02 125.3 43.26 125.14C42.1254 125.089 41.0072 125.425 40.0893 126.094C39.1715 126.763 38.5087 127.724 38.21 128.82C38.21 128.82 38.21 128.9 38.21 128.93C37.3 132.6 23.63 223.15 23.63 223.15Z" fill="white"/>
</mask>
<g mask="url(#mask0_0_1)">
<path opacity="0.5" d="M45.37 267.53C46.0505 267.466 46.7214 267.325 47.37 267.11C51.21 265.73 52.37 264.51 53.65 262.4C54.93 260.29 60.95 231.83 62.31 223.84C63.67 215.85 69.16 130.72 69.16 130.72C69.16 130.72 69.37 128.91 65.72 127.3C65.3673 127.152 65.0027 127.035 64.63 126.95C63.84 146.7 61.17 170.15 56.48 198.01C52.1 224.37 47.13 256.23 45.37 267.53Z" fill="black"/>
</g>
<path d="M23.63 223.15C23.63 223.15 22.4 248.91 22.54 256.05C22.68 263.19 22.85 265.86 26.39 266.49C29.93 267.12 43.59 268.49 47.39 267.11C51.19 265.73 52.39 264.51 53.67 262.4C54.95 260.29 60.97 231.83 62.33 223.84C63.69 215.85 69.18 130.72 69.18 130.72C69.18 130.72 69.39 128.91 65.74 127.3C62.74 125.95 48.02 125.3 43.26 125.14C42.1254 125.089 41.0072 125.425 40.0893 126.094C39.1715 126.763 38.5087 127.724 38.21 128.82C38.21 128.82 38.21 128.9 38.21 128.93C37.3 132.6 23.63 223.15 23.63 223.15Z" stroke="#263238" stroke-linecap="round" stroke-linejoin="round"/>
<path d="M51.57 226.14C47.3 226.14 28.91 224.2 26.06 223.59C25.2488 223.421 24.4475 223.208 23.66 222.95V223.15C23.66 223.15 22.43 248.91 22.57 256.05C22.71 263.19 22.88 265.86 26.42 266.49C29.96 267.12 43.62 268.49 47.42 267.11C51.22 265.73 52.42 264.51 53.7 262.4C54.98 260.29 60.7 233.4 62.24 224.54C58.64 226.41 55.08 226.11 51.57 226.14Z" fill="#263238"/>
<mask id="mask1_0_1" style="mask-type:luminance" maskUnits="userSpaceOnUse" x="22" y="222" width="41" height="46">
<path d="M51.57 226.14C47.3 226.14 28.91 224.2 26.06 223.59C25.2488 223.421 24.4475 223.208 23.66 222.95V223.15C23.66 223.15 22.43 248.91 22.57 256.05C22.71 263.19 22.88 265.86 26.42 266.49C29.96 267.12 43.62 268.49 47.42 267.11C51.22 265.73 52.42 264.51 53.7 262.4C54.98 260.29 60.7 233.4 62.24 224.54C58.64 226.41 55.08 226.11 51.57 226.14Z" fill="white"/>
</mask>
<g mask="url(#mask1_0_1)">
<path opacity="0.5" d="M45.37 267.53C46.0505 267.466 46.7214 267.325 47.37 267.11C51.21 265.73 52.37 264.51 53.65 262.4C54.93 260.29 60.95 231.83 62.31 223.84C63.67 215.85 69.16 130.72 69.16 130.72C69.16 130.72 69.37 128.91 65.72 127.3C65.3673 127.152 65.0027 127.035 64.63 126.95C63.84 146.7 61.17 170.15 56.48 198.01C52.1 224.37 47.13 256.23 45.37 267.53Z" fill="black"/>
<path opacity="0.26" d="M51.61 228.52C54.4186 228.4 57.2055 227.971 59.92 227.24" stroke="white" stroke-linecap="round" stroke-linejoin="round"/>
<path d="M25.09 225.57C25.09 225.57 47.66 228.66 51.61 228.52" stroke="white" stroke-linecap="round" stroke-linejoin="round"/>
</g>
<path d="M51.57 226.14C47.3 226.14 28.91 224.2 26.06 223.59C25.2488 223.421 24.4475 223.208 23.66 222.95V223.15C23.66 223.15 22.43 248.91 22.57 256.05C22.71 263.19 22.88 265.86 26.42 266.49C29.96 267.12 43.62 268.49 47.42 267.11C51.22 265.73 52.42 264.51 53.7 262.4C54.98 260.29 60.7 233.4 62.24 224.54C58.64 226.41 55.08 226.11 51.57 226.14Z" stroke="#263238" stroke-linecap="round" stroke-linejoin="round"/>
<path d="M345.678 120.514C366.697 109.568 374.863 83.6549 363.916 62.636C352.97 41.617 327.057 33.4516 306.038 44.3981C285.019 55.3445 276.854 81.2576 287.8 102.277C298.746 123.295 324.659 131.461 345.678 120.514Z" fill="#263238" stroke="#263238" stroke-linecap="round" stroke-linejoin="round"/>
<path d="M365.232 83.4932C368.157 59.9759 351.464 38.5401 327.946 35.615C304.429 32.69 282.993 49.3833 280.068 72.9006C277.143 96.4179 293.836 117.854 317.354 120.779C340.871 123.704 362.307 107.011 365.232 83.4932Z" fill="white" stroke="#263238" stroke-linecap="round" stroke-linejoin="round"/>
<path d="M360.796 84.4688C364.257 63.4054 349.987 43.5247 328.923 40.0641C307.86 36.6035 287.979 50.8734 284.519 71.9369C281.058 93.0003 295.328 112.881 316.391 116.342C337.455 119.802 357.336 105.532 360.796 84.4688Z" fill="#263238" stroke="#263238" stroke-linecap="round" stroke-linejoin="round"/>
<path d="M318.13 49.15C318.13 49.15 313.87 38.49 306.4 31C298.93 23.51 268.56 18.74 268.56 18.74C273.464 23.4743 277.923 28.6494 281.88 34.2C288.81 43.79 311.74 65.65 311.74 65.65C311.74 65.65 300.54 56.05 290.41 54.99C280.28 53.93 254.7 59.25 253.1 59.25C251.5 59.25 262.69 63.52 270.69 67.25C278.69 70.98 309.6 74.18 309.6 74.18C309.6 74.18 296.28 77.91 287.21 81.11C278.14 84.31 269.62 107.76 269.62 107.76C269.62 107.76 281.35 97.1 291.48 94.43C301.61 91.76 316 87 316 87C316 87 306.94 97.13 304.81 104.06C302.68 110.99 304.27 126.98 304.27 126.98C304.27 126.98 309.07 112.05 314.93 106.19C320.79 100.33 327.19 90.19 327.19 90.19C330.143 95.0043 332.814 99.986 335.19 105.11C339.45 114.18 342.12 127.5 342.12 127.5C342.12 127.5 349.05 112.58 348.52 105.11C347.99 97.64 340 84.33 340 84.33C340 84.33 345.33 80.6 353.32 83.8C361.31 87 375.18 100.33 375.18 100.33C375.18 100.33 371.98 82.74 366.65 75.81C361.32 68.88 338.4 66.74 338.4 66.74C338.4 66.74 351.19 59.28 359.19 57.68C367.19 56.08 377.85 59.81 377.85 59.81C377.85 59.81 365.58 42.81 355.99 41.69C346.4 40.57 331.99 55.55 331.99 55.55C331.99 55.55 335.19 39.55 336.26 34.23C337.33 28.91 335.19 15.57 335.19 15.57C335.19 15.57 329.33 18.77 322.4 28.9C320.367 31.8166 318.941 35.1123 318.207 38.5911C317.474 42.07 317.447 45.6608 318.13 49.15Z" fill="#1A4BB9"/>
<path opacity="0.5" d="M318.13 49.15C318.13 49.15 313.87 38.49 306.4 31C298.93 23.51 268.56 18.74 268.56 18.74C273.464 23.4743 277.923 28.6494 281.88 34.2C288.81 43.79 311.74 65.65 311.74 65.65C311.74 65.65 300.54 56.05 290.41 54.99C280.28 53.93 254.7 59.25 253.1 59.25C251.5 59.25 262.69 63.52 270.69 67.25C278.69 70.98 309.6 74.18 309.6 74.18C309.6 74.18 296.28 77.91 287.21 81.11C278.14 84.31 269.62 107.76 269.62 107.76C269.62 107.76 281.35 97.1 291.48 94.43C301.61 91.76 316 87 316 87C316 87 306.94 97.13 304.81 104.06C302.68 110.99 304.27 126.98 304.27 126.98C304.27 126.98 309.07 112.05 314.93 106.19C320.79 100.33 327.19 90.19 327.19 90.19C330.143 95.0043 332.814 99.986 335.19 105.11C339.45 114.18 342.12 127.5 342.12 127.5C342.12 127.5 349.05 112.58 348.52 105.11C347.99 97.64 340 84.33 340 84.33C340 84.33 345.33 80.6 353.32 83.8C361.31 87 375.18 100.33 375.18 100.33C375.18 100.33 371.98 82.74 366.65 75.81C361.32 68.88 338.4 66.74 338.4 66.74C338.4 66.74 351.19 59.28 359.19 57.68C367.19 56.08 377.85 59.81 377.85 59.81C377.85 59.81 365.58 42.81 355.99 41.69C346.4 40.57 331.99 55.55 331.99 55.55C331.99 55.55 335.19 39.55 336.26 34.23C337.33 28.91 335.19 15.57 335.19 15.57C335.19 15.57 329.33 18.77 322.4 28.9C320.367 31.8166 318.941 35.1123 318.207 38.5911C317.474 42.07 317.447 45.6608 318.13 49.15Z" fill="black"/>
<path d="M328.63 32.93C329 31.39 329.41 29.87 329.86 28.36" stroke="#263238" stroke-width="0.5" stroke-linecap="round" stroke-linejoin="round"/>
<path d="M293 32.92C298 36.57 304.23 41.58 307.44 45.92C313.3 53.92 325.03 70.98 325.03 70.98C324.697 59.5255 325.605 48.0687 327.74 36.81" stroke="#263238" stroke-width="0.5" stroke-linecap="round" stroke-linejoin="round"/>
<path d="M285.62 27.83C285.62 27.83 287.17 28.83 289.5 30.42" stroke="#263238" stroke-width="0.5" stroke-linecap="round" stroke-linejoin="round"/>
<path d="M325.06 71C325.06 71 345.32 50.74 353.85 49.14C362.38 47.54 369.85 53.94 369.85 53.94" stroke="#263238" stroke-width="0.5" stroke-linecap="round" stroke-linejoin="round"/>
<path d="M288.86 88C283.93 91.14 283.48 92.91 283.48 92.91" stroke="#263238" stroke-width="0.5" stroke-linecap="round" stroke-linejoin="round"/>
<path d="M369.31 89.67C369.31 89.67 366.11 81.67 354.91 77.94C343.71 74.21 326.13 73.67 326.13 73.67C326.13 73.67 301.46 81.75 292.44 85.96" stroke="#263238" stroke-width="0.5" stroke-linecap="round" stroke-linejoin="round"/>
<path d="M315.36 70.63C321.36 72.36 326.13 73.63 326.13 73.63" stroke="#263238" stroke-width="0.5" stroke-linecap="round" stroke-linejoin="round"/>
<path d="M277.81 61.16C283.6 61.51 291.06 62.3 295.21 64.08C298.59 65.53 305.26 67.63 311.54 69.5" stroke="#263238" stroke-width="0.5" stroke-linecap="round" stroke-linejoin="round"/>
<path d="M269.62 60.88C269.62 60.88 271.57 60.88 274.45 60.99" stroke="#263238" stroke-width="0.5" stroke-linecap="round" stroke-linejoin="round"/>
<path d="M325.06 76.87C325.06 76.87 310.14 99.26 309.06 104.59C308.419 107.752 308.06 110.965 307.99 114.19" stroke="#263238" stroke-width="0.5" stroke-linecap="round" stroke-linejoin="round"/>
<path d="M331.7 83.92C334.57 87.63 338.02 92.57 339.45 96.6C341.136 101.453 342.387 106.446 343.19 111.52" stroke="#263238" stroke-width="0.5" stroke-linecap="round" stroke-linejoin="round"/>
<path d="M327.19 78.47C327.19 78.47 328.38 79.79 330.03 81.82" stroke="#263238" stroke-width="0.5" stroke-linecap="round" stroke-linejoin="round"/>
<path d="M311.36 53.75C311.36 53.75 308.6 42.6 310.31 32.18C312.02 21.76 333.91 0.179993 333.91 0.179993C332.683 6.88656 332.077 13.6921 332.1 20.51C332.1 32.35 326.19 63.51 326.19 63.51C326.19 63.51 329.69 49.18 337.3 42.41C344.91 35.64 368.79 25 370.09 24C371.39 23 364.79 33.06 360.47 40.76C356.15 48.46 332.9 69.08 332.9 69.08C332.9 69.08 345.9 64.34 355.13 61.65C364.36 58.96 385 73.08 385 73.08C385 73.08 369.26 71.26 359.48 75C349.7 78.74 335.21 83.24 335.21 83.24C335.21 83.24 348.48 86.19 354.21 90.57C359.94 94.95 368 108.88 368 108.88C368 108.88 355.4 99.55 347.22 98.21C339.04 96.87 327.93 92.37 327.93 92.37C328.346 98.0042 329.084 103.61 330.14 109.16C331.96 119.01 337.57 131.39 337.57 131.39C337.57 131.39 323.24 123.31 319.32 116.93C315.4 110.55 314.12 95.07 314.12 95.07C314.12 95.07 307.61 95.15 302.98 102.41C298.35 109.67 294.87 128.58 294.87 128.58C294.87 128.58 287.2 112.43 287.49 103.69C287.78 94.95 305.16 79.85 305.16 79.85C305.16 79.85 290.41 81.25 282.98 84.61C275.55 87.97 269.07 97.23 269.07 97.23C269.07 97.23 269.07 76.23 276.25 69.76C283.43 63.29 303.83 67 303.83 67L287.93 52.16C283.93 48.46 277.93 36.39 277.93 36.39C277.93 36.39 284.55 35.56 296.09 39.75C299.445 40.938 302.527 42.79 305.15 45.1954C307.774 47.6008 309.886 50.5102 311.36 53.75Z" fill="#1A4BB9"/>
<path d="M293.37 46.69C292.17 45.6567 290.95 44.6567 289.71 43.69" stroke="#263238" stroke-width="0.5" stroke-linecap="round" stroke-linejoin="round"/>
<path d="M322.28 25.92C320.35 31.79 318.21 39.5 318.15 44.92C318.05 54.83 318.48 75.53 318.48 75.53C312.073 66.028 304.653 57.2499 296.35 49.35" stroke="#263238" stroke-width="0.5" stroke-linecap="round" stroke-linejoin="round"/>
<path d="M325.34 17.46C325.34 17.46 324.64 19.17 323.69 21.83" stroke="#263238" stroke-width="0.5" stroke-linecap="round" stroke-linejoin="round"/>
<path d="M318.48 75.54C318.48 75.54 290.21 70.9 282.35 74.54C274.49 78.18 272.16 87.76 272.16 87.76" stroke="#263238" stroke-width="0.5" stroke-linecap="round" stroke-linejoin="round"/>
<path d="M357.77 68.18C363.61 67.86 365 69.04 365 69.04" stroke="#263238" stroke-width="0.5" stroke-linecap="round" stroke-linejoin="round"/>
<path d="M293.42 116.5C293.42 116.5 291.36 108.14 298.27 98.58C305.18 89.02 319.17 78.33 319.17 78.33C319.17 78.33 343.91 70.5 353.7 68.66" stroke="#263238" stroke-width="0.5" stroke-linecap="round" stroke-linejoin="round"/>
<path d="M326.14 69.58C322.31 74.46 319.14 78.33 319.14 78.33" stroke="#263238" stroke-width="0.5" stroke-linecap="round" stroke-linejoin="round"/>
<path d="M351.12 40C346.61 43.66 341.02 48.65 338.68 52.52C336.78 55.67 332.6 61.27 328.59 66.45" stroke="#263238" stroke-width="0.5" stroke-linecap="round" stroke-linejoin="round"/>
<path d="M357.6 35C357.6 35 356.02 36.13 353.75 37.9" stroke="#263238" stroke-width="0.5" stroke-linecap="round" stroke-linejoin="round"/>
<path d="M321.9 80.3C321.9 80.3 347.08 89.78 351.06 93.49C353.419 95.6859 355.581 98.0851 357.52 100.66" stroke="#263238" stroke-width="0.5" stroke-linecap="round" stroke-linejoin="round"/>
<path d="M320.62 89.89C320.45 94.59 320.53 100.62 321.71 104.72C323.176 109.646 325.076 114.431 327.39 119.02" stroke="#263238" stroke-width="0.5" stroke-linecap="round" stroke-linejoin="round"/>
<path d="M321.1 82.85C321.1 82.85 320.9 84.6 320.75 87.22" stroke="#263238" stroke-width="0.5" stroke-linecap="round" stroke-linejoin="round"/>
</svg>
