<svg width="34" height="34" viewBox="0 0 34 34" fill="none" xmlns="http://www.w3.org/2000/svg">
<path d="M29.3917 4.53424V32.6767H27.9609V28.813V27.3816V20.5707V19.1393V12.3325V10.9018V4.53424H29.3917Z" fill="#9FCAFF"/>
<path d="M17.74 28.813V32.6767H16.3086V28.813V27.3816V20.5707V19.1393V12.3325V10.9018V4.53424H17.74V10.9018V12.3325V19.1393V20.5707V27.3816V28.813Z" fill="#9FCAFF"/>
<path d="M6.08697 28.813V32.6767H4.65625V4.53424H6.08697V10.9018V12.3325V19.1393V20.5707V27.3816V28.813Z" fill="#9FCAFF"/>
<path d="M16.3077 27.3815H6.08594V28.8122H16.3077V27.3815Z" fill="#D7E9FF"/>
<path d="M27.962 27.3815H17.7402V28.8122H27.962V27.3815Z" fill="#D7E9FF"/>
<path d="M6.13354 19.1393H16.3077V20.5707H6.13354H6.08594V19.1393H6.13354Z" fill="#D7E9FF"/>
<path d="M27.962 19.1393H17.7402V20.57H27.962V19.1393Z" fill="#D7E9FF"/>
<path d="M27.962 10.9017H17.7402V12.3325H27.962V10.9017Z" fill="#D7E9FF"/>
<path d="M6.13354 10.9017H16.3077V12.3325H6.13354H6.08594V10.9017H6.13354Z" fill="#D7E9FF"/>
<path d="M29.3926 3.10284V4.53424H27.9619H17.7401H16.3087H6.08697H4.65625V3.10284H29.3926Z" fill="#D7E9FF"/>
<path d="M16.2853 33.1534C16.0221 33.1534 15.8086 32.9406 15.8086 32.6767V4.53424C15.8086 4.27108 16.0221 4.05756 16.2853 4.05756C16.5484 4.05756 16.762 4.27108 16.762 4.53424V32.6767C16.762 32.9399 16.5491 33.1534 16.2853 33.1534Z" fill="#8D97AA"/>
<path d="M17.7169 33.1534C17.4538 33.1534 17.2402 32.9406 17.2402 32.6767V4.53424C17.2402 4.27108 17.4538 4.05756 17.7169 4.05756C17.9801 4.05756 18.1936 4.27108 18.1936 4.53424V32.6767C18.1936 32.9399 17.9808 33.1534 17.7169 33.1534Z" fill="#8D97AA"/>
<path d="M6.06457 33.1534C5.80141 33.1534 5.58789 32.9406 5.58789 32.6767V4.53424C5.58789 4.27108 5.80141 4.05756 6.06457 4.05756C6.32773 4.05756 6.54125 4.27108 6.54125 4.53424V32.6767C6.54125 32.9399 6.32841 33.1534 6.06457 33.1534Z" fill="#8D97AA"/>
<path d="M4.63293 33.1534C4.36977 33.1534 4.15625 32.9406 4.15625 32.6767V3.10284C4.15625 2.83968 4.36977 2.62616 4.63293 2.62616C4.89609 2.62616 5.10961 2.83968 5.10961 3.10284V32.676C5.10961 32.9392 4.89677 33.1527 4.63293 33.1527V33.1534Z" fill="#8D97AA"/>
<path d="M29.3686 5.01092H4.63293C4.36977 5.01092 4.15625 4.7974 4.15625 4.53424C4.15625 4.27108 4.36977 4.05756 4.63293 4.05756H29.3679C29.6311 4.05756 29.8446 4.27108 29.8446 4.53424C29.8446 4.7974 29.6311 5.01092 29.3679 5.01092H29.3686Z" fill="#8D97AA"/>
<path d="M16.2849 12.8071H6.11145C5.84829 12.8071 5.63477 12.5936 5.63477 12.3304C5.63477 12.0673 5.84829 11.8538 6.11145 11.8538H16.2849C16.5481 11.8538 16.7616 12.0673 16.7616 12.3304C16.7616 12.5936 16.5481 12.8071 16.2849 12.8071Z" fill="#8D97AA"/>
<path d="M16.2849 21.0487H6.11145C5.84829 21.0487 5.63477 20.8352 5.63477 20.572C5.63477 20.3089 5.84829 20.0953 6.11145 20.0953H16.2849C16.5481 20.0953 16.7616 20.3089 16.7616 20.572C16.7616 20.8352 16.5481 21.0487 16.2849 21.0487Z" fill="#8D97AA"/>
<path d="M16.285 29.2903H6.06457C5.80141 29.2903 5.58789 29.0768 5.58789 28.8137C5.58789 28.5505 5.80141 28.337 6.06457 28.337H16.2857C16.5488 28.337 16.7623 28.5505 16.7623 28.8137C16.7623 29.0768 16.5488 29.2903 16.2857 29.2903H16.285Z" fill="#8D97AA"/>
<path d="M27.9376 33.1534C27.6745 33.1534 27.4609 32.9406 27.4609 32.6767V4.53424C27.4609 4.27108 27.6745 4.05756 27.9376 4.05756C28.2008 4.05756 28.4143 4.27108 28.4143 4.53424V32.6767C28.4143 32.9399 28.2015 33.1534 27.9376 33.1534Z" fill="#8D97AA"/>
<path d="M29.3693 33.1534C29.1061 33.1534 28.8926 32.9406 28.8926 32.6767V3.10284C28.8926 2.83968 29.1061 2.62616 29.3693 2.62616C29.6324 2.62616 29.8459 2.83968 29.8459 3.10284V32.676C29.8459 32.9392 29.6331 33.1527 29.3693 33.1527V33.1534Z" fill="#8D97AA"/>
<path d="M29.3686 3.58044H4.63293C4.36977 3.58044 4.15625 3.36692 4.15625 3.10376C4.15625 2.8406 4.36977 2.62708 4.63293 2.62708H29.3679C29.6311 2.62708 29.8446 2.8406 29.8446 3.10376C29.8446 3.36692 29.6311 3.58044 29.3679 3.58044H29.3686Z" fill="#8D97AA"/>
<path d="M27.938 12.8071H17.7169C17.4538 12.8071 17.2402 12.5936 17.2402 12.3304C17.2402 12.0673 17.4538 11.8538 17.7169 11.8538H27.938C28.2012 11.8538 28.4147 12.0673 28.4147 12.3304C28.4147 12.5936 28.2012 12.8071 27.938 12.8071Z" fill="#8D97AA"/>
<path d="M27.938 21.0487H17.7169C17.4538 21.0487 17.2402 20.8352 17.2402 20.572C17.2402 20.3089 17.4538 20.0953 17.7169 20.0953H27.938C28.2012 20.0953 28.4147 20.3089 28.4147 20.572C28.4147 20.8352 28.2012 21.0487 27.938 21.0487Z" fill="#8D97AA"/>
<path d="M27.938 29.2903H17.7169C17.4538 29.2903 17.2402 29.0768 17.2402 28.8137C17.2402 28.5505 17.4538 28.337 17.7169 28.337H27.938C28.2012 28.337 28.4147 28.5505 28.4147 28.8137C28.4147 29.0768 28.2012 29.2903 27.938 29.2903Z" fill="#8D97AA"/>
<path d="M16.2849 11.3764H6.11145C5.84829 11.3764 5.63477 11.1629 5.63477 10.8997C5.63477 10.6366 5.84829 10.423 6.11145 10.423H16.2849C16.5481 10.423 16.7616 10.6366 16.7616 10.8997C16.7616 11.1629 16.5481 11.3764 16.2849 11.3764Z" fill="#8D97AA"/>
<path d="M16.2849 19.618H6.11145C5.84829 19.618 5.63477 19.4045 5.63477 19.1413C5.63477 18.8781 5.84829 18.6646 6.11145 18.6646H16.2849C16.5481 18.6646 16.7616 18.8781 16.7616 19.1413C16.7616 19.4045 16.5481 19.618 16.2849 19.618Z" fill="#8D97AA"/>
<path d="M16.285 27.8596H6.06457C5.80141 27.8596 5.58789 27.6461 5.58789 27.3829C5.58789 27.1198 5.80141 26.9062 6.06457 26.9062H16.2857C16.5488 26.9062 16.7623 27.1198 16.7623 27.3829C16.7623 27.6461 16.5488 27.8596 16.2857 27.8596H16.285Z" fill="#8D97AA"/>
<path d="M27.938 11.3764H17.7169C17.4538 11.3764 17.2402 11.1629 17.2402 10.8997C17.2402 10.6366 17.4538 10.423 17.7169 10.423H27.938C28.2012 10.423 28.4147 10.6366 28.4147 10.8997C28.4147 11.1629 28.2012 11.3764 27.938 11.3764Z" fill="#8D97AA"/>
<path d="M27.938 19.618H17.7169C17.4538 19.618 17.2402 19.4045 17.2402 19.1413C17.2402 18.8781 17.4538 18.6646 17.7169 18.6646H27.938C28.2012 18.6646 28.4147 18.8781 28.4147 19.1413C28.4147 19.4045 28.2012 19.618 27.938 19.618Z" fill="#8D97AA"/>
<path d="M27.938 27.8596H17.7169C17.4538 27.8596 17.2402 27.6461 17.2402 27.3829C17.2402 27.1198 17.4538 26.9062 17.7169 26.9062H27.938C28.2012 26.9062 28.4147 27.1198 28.4147 27.3829C28.4147 27.6461 28.2012 27.8596 27.938 27.8596Z" fill="#8D97AA"/>
<path d="M6.06365 33.1534H4.63293C4.36977 33.1534 4.15625 32.9399 4.15625 32.6767C4.15625 32.4135 4.36977 32.2 4.63293 32.2H6.06365C6.32681 32.2 6.54033 32.4135 6.54033 32.6767C6.54033 32.9399 6.32681 33.1534 6.06365 33.1534Z" fill="#8D97AA"/>
<path d="M17.716 33.1534H16.2853C16.0221 33.1534 15.8086 32.9399 15.8086 32.6767C15.8086 32.4135 16.0221 32.2 16.2853 32.2H17.716C17.9792 32.2 18.1927 32.4135 18.1927 32.6767C18.1927 32.9399 17.9792 33.1534 17.716 33.1534Z" fill="#8D97AA"/>
<path d="M29.3683 33.1534H27.9376C27.6745 33.1534 27.4609 32.9399 27.4609 32.6767C27.4609 32.4135 27.6745 32.2 27.9376 32.2H29.3683C29.6315 32.2 29.845 32.4135 29.845 32.6767C29.845 32.9399 29.6315 33.1534 29.3683 33.1534Z" fill="#8D97AA"/>
</svg>
