<svg width="40" height="34" viewBox="0 0 40 34" fill="none" xmlns="http://www.w3.org/2000/svg">
<path d="M15.2876 2.07971H5.00195V9.88067H15.2876V2.07971Z" fill="#FCD7AC"/>
<path d="M15.1269 9.92066H5.16369C5.05329 9.92066 4.96289 9.82845 4.96289 9.71585V2.24455C4.96289 2.13194 5.05329 2.03973 5.16369 2.03973H15.1269C15.2373 2.03973 15.3277 2.13194 15.3277 2.24455V9.71585C15.3277 9.82845 15.2373 9.92066 15.1269 9.92066ZM5.16369 2.1197C5.09649 2.1197 5.04209 2.17519 5.04209 2.24373V9.71503C5.04209 9.78357 5.09649 9.83906 5.16369 9.83906H15.1269C15.1941 9.83906 15.2485 9.78357 15.2485 9.71503V2.24373C15.2485 2.17519 15.1941 2.1197 15.1269 2.1197H5.16369Z" fill="black"/>
<path d="M8.17235 2.07971H5.00195V9.88067H8.17235V2.07971Z" fill="#FCCC86"/>
<path d="M8.01169 9.92066H5.16369C5.05329 9.92066 4.96289 9.82845 4.96289 9.71585V2.24455C4.96289 2.13194 5.05329 2.03973 5.16369 2.03973H8.01169C8.12209 2.03973 8.21249 2.13194 8.21249 2.24455V9.71585C8.21249 9.82845 8.12209 9.92066 8.01169 9.92066ZM5.16369 2.1197C5.09649 2.1197 5.04209 2.17519 5.04209 2.24373V9.71503C5.04209 9.78357 5.09649 9.83906 5.16369 9.83906H8.01169C8.07889 9.83906 8.13329 9.78357 8.13329 9.71503V2.24373C8.13329 2.17519 8.07889 2.1197 8.01169 2.1197H5.16369Z" fill="black"/>
<path d="M10.877 9.83986V7.66767L11.1674 7.96388L11.5186 7.60565L11.821 7.9141L12.1114 7.61789L12.405 7.91736L12.7106 7.60565V9.83986H10.877Z" fill="white"/>
<path d="M16.7658 9.87335H3.52344V19.9159H16.7658V9.87335Z" fill="#FCD7AC"/>
<path d="M16.5583 19.968H3.73106C3.58866 19.968 3.47266 19.8497 3.47266 19.7045V10.0855C3.47266 9.94022 3.58866 9.8219 3.73106 9.8219H16.5575C16.6999 9.8219 16.8159 9.94022 16.8159 10.0855V19.7045C16.8159 19.8497 16.6999 19.968 16.5575 19.968H16.5583ZM3.73106 9.92553C3.64466 9.92553 3.57426 9.99734 3.57426 10.0855V19.7045C3.57426 19.7926 3.64466 19.8644 3.73106 19.8644H16.5575C16.6439 19.8644 16.7143 19.7926 16.7143 19.7045V10.0855C16.7143 9.99734 16.6439 9.92553 16.5575 9.92553H3.73106Z" fill="black"/>
<path d="M7.60504 9.87335H3.52344V19.9159H7.60504V9.87335Z" fill="#FCCC86"/>
<path d="M7.39746 19.968H3.73106C3.58866 19.968 3.47266 19.8497 3.47266 19.7045V10.0855C3.47266 9.94022 3.58866 9.8219 3.73106 9.8219H7.39746C7.53986 9.8219 7.65586 9.94022 7.65586 10.0855V19.7045C7.65586 19.8497 7.53986 19.968 7.39746 19.968ZM3.73106 9.92553C3.64466 9.92553 3.57426 9.99734 3.57426 10.0855V19.7045C3.57426 19.7926 3.64466 19.8644 3.73106 19.8644H7.39746C7.48386 19.8644 7.55426 19.7926 7.55426 19.7045V10.0855C7.55426 9.99734 7.48386 9.92553 7.39746 9.92553H3.73106Z" fill="black"/>
<path d="M11.0879 19.8644V17.068L11.4623 17.4491L11.9135 16.988L12.3031 17.3854L12.6767 17.0044L13.0551 17.3895L13.4479 16.988V19.8644H11.0879Z" fill="white"/>
<path d="M18.6654 19.9011H1.62695V32.8233H18.6654V19.9011Z" fill="#FCD7AC"/>
<path d="M18.3973 32.8902H1.89335C1.71015 32.8902 1.56055 32.7376 1.56055 32.5508V20.1737C1.56055 19.9868 1.71015 19.8342 1.89335 19.8342H18.3973C18.5805 19.8342 18.7301 19.9868 18.7301 20.1737V32.5508C18.7301 32.7376 18.5805 32.8902 18.3973 32.8902ZM1.89335 19.9681C1.78215 19.9681 1.69175 20.0603 1.69175 20.1737V32.5508C1.69175 32.6642 1.78215 32.7564 1.89335 32.7564H18.3973C18.5085 32.7564 18.5989 32.6642 18.5989 32.5508V20.1737C18.5989 20.0603 18.5085 19.9681 18.3973 19.9681H1.89335Z" fill="black"/>
<path d="M6.87895 19.9011H1.62695V32.8233H6.87895V19.9011Z" fill="#FCCC86"/>
<path d="M6.61095 32.8902H1.89335C1.71015 32.8902 1.56055 32.7376 1.56055 32.5508V20.1737C1.56055 19.9868 1.71015 19.8342 1.89335 19.8342H6.61095C6.79415 19.8342 6.94375 19.9868 6.94375 20.1737V32.5508C6.94375 32.7376 6.79415 32.8902 6.61095 32.8902ZM1.89335 19.9681C1.78215 19.9681 1.69175 20.0603 1.69175 20.1737V32.5508C1.69175 32.6642 1.78215 32.7564 1.89335 32.7564H6.61095C6.72215 32.7564 6.81255 32.6642 6.81255 32.5508V20.1737C6.81255 20.0603 6.72215 19.9681 6.61095 19.9681H1.89335Z" fill="black"/>
<path d="M11.3574 32.7564V29.1578L11.8382 29.6491L12.4198 29.0558L12.9206 29.5667L13.4022 29.0762L13.8878 29.5724L14.3942 29.0558V32.7564H11.3574Z" fill="white"/>
<path d="M34.4419 2.16046H24.1562V9.96142H34.4419V2.16046Z" fill="#FCD7AC"/>
<path d="M34.2812 10.0014H24.318C24.2076 10.0014 24.1172 9.9092 24.1172 9.7966V2.3253C24.1172 2.21269 24.2076 2.12048 24.318 2.12048H34.2812C34.3916 2.12048 34.482 2.21269 34.482 2.3253V9.7966C34.482 9.9092 34.3916 10.0014 34.2812 10.0014ZM24.3188 2.20045C24.2516 2.20045 24.1972 2.25594 24.1972 2.32448V9.79578C24.1972 9.86432 24.2516 9.91981 24.3188 9.91981H34.282C34.3492 9.91981 34.4036 9.86432 34.4036 9.79578V2.32448C34.4036 2.25594 34.3492 2.20045 34.282 2.20045H24.3188Z" fill="black"/>
<path d="M27.3267 2.16046H24.1562V9.96142H27.3267V2.16046Z" fill="#FCCC86"/>
<path d="M27.166 10.0014H24.318C24.2076 10.0014 24.1172 9.9092 24.1172 9.7966V2.3253C24.1172 2.21269 24.2076 2.12048 24.318 2.12048H27.166C27.2764 2.12048 27.3668 2.21269 27.3668 2.3253V9.7966C27.3668 9.9092 27.2764 10.0014 27.166 10.0014ZM24.3188 2.20045C24.2516 2.20045 24.1972 2.25594 24.1972 2.32448V9.79578C24.1972 9.86432 24.2516 9.91981 24.3188 9.91981H27.1668C27.234 9.91981 27.2884 9.86432 27.2884 9.79578V2.32448C27.2884 2.25594 27.234 2.20045 27.1668 2.20045H24.3188Z" fill="black"/>
<path d="M30.0332 9.92061V7.74842L30.3236 8.04463L30.674 7.6864L30.9764 7.99485L31.2668 7.69864L31.5604 7.99811L31.866 7.6864V9.92061H30.0332Z" fill="white"/>
<path d="M35.9221 9.9541H22.6797V19.9966H35.9221V9.9541Z" fill="#FCD7AC"/>
<path d="M35.7137 20.0489H22.8873C22.7449 20.0489 22.6289 19.9305 22.6289 19.7853V10.1663C22.6289 10.021 22.7449 9.90271 22.8873 9.90271H35.7137C35.8561 9.90271 35.9721 10.021 35.9721 10.1663V19.7853C35.9721 19.9305 35.8561 20.0489 35.7137 20.0489ZM22.8873 10.0063C22.8009 10.0063 22.7305 10.0781 22.7305 10.1663V19.7853C22.7305 19.8734 22.8009 19.9452 22.8873 19.9452H35.7137C35.8001 19.9452 35.8705 19.8734 35.8705 19.7853V10.1663C35.8705 10.0781 35.8001 10.0063 35.7137 10.0063H22.8873Z" fill="black"/>
<path d="M26.7613 9.9541H22.6797V19.9966H26.7613V9.9541Z" fill="#FCCC86"/>
<path d="M26.5537 20.0489H22.8873C22.7449 20.0489 22.6289 19.9305 22.6289 19.7853V10.1663C22.6289 10.021 22.7449 9.90271 22.8873 9.90271H26.5537C26.6961 9.90271 26.8121 10.021 26.8121 10.1663V19.7853C26.8121 19.9305 26.6961 20.0489 26.5537 20.0489ZM22.8873 10.0063C22.8009 10.0063 22.7305 10.0781 22.7305 10.1663V19.7853C22.7305 19.8734 22.8009 19.9452 22.8873 19.9452H26.5537C26.6401 19.9452 26.7105 19.8734 26.7105 19.7853V10.1663C26.7105 10.0781 26.6401 10.0063 26.5537 10.0063H22.8873Z" fill="black"/>
<path d="M30.2441 19.9452V17.1479L30.6177 17.5298L31.0697 17.0688L31.4593 17.4662L31.8329 17.0851L32.2105 17.4703L32.6041 17.0688V19.9452H30.2441Z" fill="white"/>
<path d="M37.8197 19.9819H20.7812V32.904H37.8197V19.9819Z" fill="#FCD7AC"/>
<path d="M37.5536 32.971H21.0496C20.8664 32.971 20.7168 32.8184 20.7168 32.6315V20.2544C20.7168 20.0676 20.8664 19.915 21.0496 19.915H37.5536C37.7368 19.915 37.8864 20.0676 37.8864 20.2544V32.6315C37.8864 32.8184 37.7368 32.971 37.5536 32.971ZM21.0488 20.0488C20.9376 20.0488 20.8472 20.141 20.8472 20.2544V32.6315C20.8472 32.7449 20.9376 32.8372 21.0488 32.8372H37.5528C37.664 32.8372 37.7544 32.7449 37.7544 32.6315V20.2544C37.7544 20.141 37.664 20.0488 37.5528 20.0488H21.0488Z" fill="black"/>
<path d="M26.0332 19.9819H20.7812V32.904H26.0332V19.9819Z" fill="#FCCC86"/>
<path d="M25.7652 32.971H21.0476C20.8644 32.971 20.7148 32.8184 20.7148 32.6315V20.2544C20.7148 20.0676 20.8644 19.915 21.0476 19.915H25.7652C25.9484 19.915 26.098 20.0676 26.098 20.2544V32.6315C26.098 32.8184 25.9484 32.971 25.7652 32.971ZM21.0476 20.0488C20.9364 20.0488 20.846 20.141 20.846 20.2544V32.6315C20.846 32.7449 20.9364 32.8372 21.0476 32.8372H25.7652C25.8764 32.8372 25.9668 32.7449 25.9668 32.6315V20.2544C25.9668 20.141 25.8764 20.0488 25.7652 20.0488H21.0476Z" fill="black"/>
<path d="M30.5117 32.8372V29.2386L30.9933 29.7298L31.5741 29.1366L32.0757 29.6474L32.5565 29.157L33.0429 29.6531L33.5485 29.1366V32.8372H30.5117Z" fill="white"/>
</svg>
