<svg width="64" height="40" viewBox="0 0 64 40" fill="none" xmlns="http://www.w3.org/2000/svg">
<g filter="url(#filter0_d_178_6783)">
<mask id="mask0_178_6783" style="mask-type:alpha" maskUnits="userSpaceOnUse" x="-7" y="-15" width="71" height="71">
<rect x="-6.45361" y="8.61401" width="52.1586" height="52.1586" transform="rotate(-26.2487 -6.45361 8.61401)" fill="#D9D9D9"/>
</mask>
<g mask="url(#mask0_178_6783)">
<path d="M26.0506 36.202C24.3938 37.019 22.666 37.5076 20.867 37.6677C19.068 37.8279 17.2872 37.6358 15.5245 37.0915C13.2443 36.3986 11.2624 35.2254 9.57874 33.5719C7.89508 31.9184 6.52461 30.0196 5.46733 27.8755C4.2178 25.3416 3.82181 22.9825 4.27934 20.7981C4.73687 18.6138 6.15139 16.9369 8.52288 15.7675C8.97769 15.5432 9.42816 15.3716 9.87428 15.2526C10.3204 15.1335 10.7947 15.0511 11.2971 15.0053L25.082 13.5992L34.5897 3.5193C34.932 3.14862 35.2861 2.82255 35.6521 2.54109C36.0181 2.25963 36.4286 2.00676 36.8834 1.78249C39.2549 0.613066 41.4463 0.511775 43.4577 1.47862C45.4692 2.44546 47.0996 4.19584 48.3492 6.72977C49.4065 8.87386 50.0785 11.1171 50.3652 13.4594C50.652 15.8017 50.3761 18.0883 49.5376 20.3191C48.8963 22.0488 47.9645 23.5785 46.7423 24.9082C45.52 26.2379 44.0805 27.3112 42.4237 28.1282C40.2796 29.1855 38.2201 29.5953 36.2451 29.3576L33.2827 29.001L32.3081 29.4816L30.7874 32.0489C29.7737 33.7603 28.1947 35.1447 26.0506 36.202ZM24.0089 27.5162C24.951 27.0517 25.5901 26.4639 25.9261 25.753C26.2621 25.0421 26.2459 24.3131 25.8774 23.5659C25.2527 22.299 23.8113 21.5053 21.5533 21.1851C19.2953 20.8649 17.2405 21.1613 15.3888 22.0744C14.4467 22.539 13.8076 23.1267 13.4716 23.8376C13.1356 24.5485 13.1518 25.2775 13.5203 26.0247C14.1451 27.2917 15.5864 28.0853 17.8444 28.4055C20.1024 28.7258 22.1572 28.4293 24.0089 27.5162ZM36.776 21.2206C38.6277 20.3075 40.1139 18.8578 41.2345 16.8715C42.3551 14.8852 42.603 13.2586 41.9782 11.9916C41.5938 11.212 41.0294 10.7431 40.2851 10.5851C39.5409 10.4271 38.6814 10.5884 37.7068 11.069C35.8551 11.9821 34.369 13.4318 33.2484 15.4181C32.1278 17.4044 31.8799 19.031 32.5046 20.2979C32.8731 21.0451 33.4334 21.5058 34.1857 21.6801C34.938 21.8543 35.8014 21.7012 36.776 21.2206Z" fill="#FED1C0"/>
</g>
</g>
<defs>
<filter id="filter0_d_178_6783" x="1.09521" y="0.822266" width="49.3794" height="36.9001" filterUnits="userSpaceOnUse" color-interpolation-filters="sRGB">
<feFlood flood-opacity="0" result="BackgroundImageFix"/>
<feColorMatrix in="SourceAlpha" type="matrix" values="0 0 0 0 0 0 0 0 0 0 0 0 0 0 0 0 0 0 127 0" result="hardAlpha"/>
<feOffset dx="-3"/>
<feComposite in2="hardAlpha" operator="out"/>
<feColorMatrix type="matrix" values="0 0 0 0 0.243137 0 0 0 0 0.0980392 0 0 0 0 0.0980392 0 0 0 0.08 0"/>
<feBlend mode="normal" in2="BackgroundImageFix" result="effect1_dropShadow_178_6783"/>
<feBlend mode="normal" in="SourceGraphic" in2="effect1_dropShadow_178_6783" result="shape"/>
</filter>
</defs>
</svg>
