<svg width="338" height="289" viewBox="0 0 338 289" fill="none" xmlns="http://www.w3.org/2000/svg">
<path d="M119.155 282H117.618L111.86 273.129V282H110.331V270.53H111.86L117.642 279.424V270.53H119.155V282ZM121.242 277.651C121.242 276.827 121.4 276.089 121.715 275.438C122.03 274.786 122.476 274.272 123.054 273.894C123.632 273.51 124.317 273.319 125.11 273.319C125.914 273.319 126.607 273.51 127.19 273.894C127.773 274.272 128.219 274.786 128.529 275.438C128.844 276.089 129.002 276.827 129.002 277.651V277.833C129.002 278.652 128.844 279.39 128.529 280.046C128.219 280.698 127.773 281.212 127.19 281.59C126.612 281.968 125.924 282.158 125.126 282.158C124.328 282.158 123.637 281.968 123.054 281.59C122.476 281.212 122.03 280.698 121.715 280.046C121.4 279.39 121.242 278.652 121.242 277.833V277.651ZM122.715 277.833C122.715 278.395 122.805 278.914 122.983 279.392C123.162 279.87 123.427 280.254 123.779 280.543C124.136 280.831 124.585 280.976 125.126 280.976C125.662 280.976 126.106 280.831 126.457 280.543C126.815 280.254 127.082 279.87 127.261 279.392C127.44 278.914 127.529 278.395 127.529 277.833V277.651C127.529 277.089 127.44 276.57 127.261 276.092C127.082 275.614 126.815 275.23 126.457 274.941C126.1 274.647 125.651 274.5 125.11 274.5C124.58 274.5 124.136 274.647 123.779 274.941C123.422 275.23 123.154 275.614 122.975 276.092C122.802 276.57 122.715 277.089 122.715 277.651V277.833ZM136.596 282H135.068V270.53H136.596V282ZM141.394 276.927H136.265V275.698H141.394V276.927ZM142.174 271.767H136.265V270.53H142.174V271.767ZM145.357 282H143.883V273.476H145.357V282ZM143.773 271.207C143.773 270.976 143.844 270.779 143.986 270.616C144.133 270.454 144.348 270.372 144.632 270.372C144.915 270.372 145.131 270.454 145.278 270.616C145.43 270.779 145.506 270.976 145.506 271.207C145.506 271.433 145.43 271.627 145.278 271.79C145.131 271.948 144.915 272.027 144.632 272.027C144.348 272.027 144.133 271.948 143.986 271.79C143.844 271.627 143.773 271.433 143.773 271.207ZM149.28 282H147.807V269.9H149.28V282ZM155.149 282.158C154.356 282.158 153.665 281.982 153.077 281.63C152.494 281.273 152.04 280.784 151.714 280.164C151.394 279.545 151.233 278.836 151.233 278.037V277.699C151.233 276.774 151.409 275.987 151.761 275.335C152.118 274.679 152.581 274.18 153.148 273.838C153.72 273.492 154.324 273.319 154.96 273.319C155.779 273.319 156.446 273.502 156.961 273.87C157.481 274.232 157.861 274.729 158.103 275.359C158.35 275.984 158.473 276.693 158.473 277.486V278.14H152.108V276.958H157V276.848C156.979 276.47 156.903 276.102 156.772 275.745C156.64 275.383 156.43 275.086 156.141 274.855C155.852 274.618 155.459 274.5 154.96 274.5C154.519 274.5 154.127 274.626 153.786 274.878C153.45 275.125 153.185 275.488 152.99 275.966C152.801 276.438 152.707 277.016 152.707 277.699V278.037C152.707 278.578 152.806 279.072 153.006 279.518C153.206 279.96 153.494 280.314 153.873 280.582C154.251 280.845 154.702 280.976 155.228 280.976C155.742 280.976 156.178 280.871 156.535 280.661C156.892 280.451 157.205 280.17 157.473 279.818L158.363 280.511C158.09 280.931 157.696 281.312 157.181 281.653C156.672 281.989 155.994 282.158 155.149 282.158ZM164.87 282H163.294L167.675 270.53H168.683L168.659 271.538L164.87 282ZM168.029 271.538L168.013 270.53H169.014L173.402 282H171.834L168.029 271.538ZM171.645 278.999H165.193V277.762H171.645V278.999ZM179.239 273.476H180.744L177.687 282H176.695L176.923 280.692L179.239 273.476ZM177.38 280.732L177.553 282H176.569L173.481 273.476H174.985L177.38 280.732ZM187.054 276.155C187.054 275.645 186.902 275.241 186.597 274.941C186.298 274.637 185.854 274.484 185.266 274.484C184.904 274.484 184.583 274.548 184.305 274.674C184.032 274.8 183.819 274.965 183.667 275.17C183.514 275.375 183.438 275.598 183.438 275.839H181.965C181.965 275.43 182.104 275.033 182.383 274.65C182.661 274.261 183.052 273.944 183.556 273.697C184.066 273.445 184.665 273.319 185.353 273.319C185.972 273.319 186.521 273.424 186.999 273.634C187.477 273.844 187.85 274.161 188.118 274.587C188.391 275.007 188.527 275.535 188.527 276.17V280.141C188.527 280.424 188.551 280.726 188.598 281.047C188.651 281.367 188.727 281.643 188.827 281.874V282H187.291C187.217 281.832 187.159 281.609 187.117 281.33C187.075 281.047 187.054 280.784 187.054 280.543V276.155ZM187.322 277.856H185.857C185.027 277.856 184.386 277.988 183.935 278.25C183.483 278.513 183.257 278.907 183.257 279.432C183.257 279.841 183.394 280.188 183.667 280.472C183.945 280.755 184.349 280.897 184.88 280.897C185.326 280.897 185.72 280.803 186.062 280.613C186.403 280.424 186.673 280.191 186.873 279.912C187.073 279.634 187.18 279.366 187.196 279.109L187.826 279.81C187.79 280.031 187.69 280.275 187.527 280.543C187.364 280.81 187.146 281.068 186.873 281.315C186.605 281.556 186.285 281.758 185.912 281.921C185.544 282.079 185.129 282.158 184.667 282.158C184.09 282.158 183.583 282.047 183.147 281.827C182.716 281.601 182.38 281.296 182.138 280.913C181.902 280.529 181.784 280.104 181.784 279.637C181.784 278.718 182.131 278.022 182.824 277.549C183.517 277.071 184.449 276.832 185.62 276.832H187.306L187.322 277.856ZM192.419 282H190.946V273.476H192.419V282ZM190.836 271.207C190.836 270.976 190.907 270.779 191.048 270.616C191.195 270.454 191.411 270.372 191.694 270.372C191.978 270.372 192.193 270.454 192.34 270.616C192.493 270.779 192.569 270.976 192.569 271.207C192.569 271.433 192.493 271.627 192.34 271.79C192.193 271.948 191.978 272.027 191.694 272.027C191.411 272.027 191.195 271.948 191.048 271.79C190.907 271.627 190.836 271.433 190.836 271.207ZM196.342 282H194.869V269.9H196.342V282ZM203.692 276.155C203.692 275.645 203.54 275.241 203.235 274.941C202.936 274.637 202.492 274.484 201.904 274.484C201.542 274.484 201.221 274.548 200.943 274.674C200.67 274.8 200.457 274.965 200.305 275.17C200.153 275.375 200.076 275.598 200.076 275.839H198.603C198.603 275.43 198.742 275.033 199.021 274.65C199.299 274.261 199.69 273.944 200.195 273.697C200.704 273.445 201.303 273.319 201.991 273.319C202.61 273.319 203.159 273.424 203.637 273.634C204.115 273.844 204.488 274.161 204.756 274.587C205.029 275.007 205.166 275.535 205.166 276.17V280.141C205.166 280.424 205.189 280.726 205.236 281.047C205.289 281.367 205.365 281.643 205.465 281.874V282H203.929C203.855 281.832 203.797 281.609 203.755 281.33C203.713 281.047 203.692 280.784 203.692 280.543V276.155ZM203.96 277.856H202.495C201.665 277.856 201.024 277.988 200.573 278.25C200.121 278.513 199.895 278.907 199.895 279.432C199.895 279.841 200.032 280.188 200.305 280.472C200.583 280.755 200.988 280.897 201.518 280.897C201.964 280.897 202.358 280.803 202.7 280.613C203.041 280.424 203.312 280.191 203.511 279.912C203.711 279.634 203.818 279.366 203.834 279.109L204.464 279.81C204.428 280.031 204.328 280.275 204.165 280.543C204.002 280.81 203.784 281.068 203.511 281.315C203.243 281.556 202.923 281.758 202.55 281.921C202.182 282.079 201.768 282.158 201.305 282.158C200.728 282.158 200.221 282.047 199.785 281.827C199.354 281.601 199.018 281.296 198.777 280.913C198.54 280.529 198.422 280.104 198.422 279.637C198.422 278.718 198.769 278.022 199.462 277.549C200.155 277.071 201.087 276.832 202.259 276.832H203.944L203.96 277.856ZM208.931 269.9V280.346L208.805 282H207.458V269.9H208.931ZM214.682 277.833C214.682 278.662 214.553 279.403 214.296 280.054C214.039 280.705 213.663 281.22 213.169 281.598C212.676 281.971 212.077 282.158 211.373 282.158C210.649 282.158 210.045 281.995 209.561 281.669C209.078 281.338 208.703 280.873 208.435 280.275C208.167 279.671 207.991 278.957 207.907 278.132V277.368C207.991 276.533 208.167 275.813 208.435 275.209C208.703 274.605 209.076 274.14 209.554 273.815C210.037 273.484 210.638 273.319 211.358 273.319C212.072 273.319 212.676 273.5 213.169 273.862C213.663 274.225 214.039 274.734 214.296 275.39C214.553 276.042 214.682 276.801 214.682 277.667V277.833ZM213.209 277.667C213.209 277.1 213.138 276.58 212.996 276.107C212.854 275.629 212.621 275.249 212.295 274.965C211.975 274.681 211.539 274.54 210.987 274.54C210.625 274.54 210.307 274.603 210.034 274.729C209.766 274.855 209.538 275.025 209.349 275.241C209.16 275.451 209.005 275.692 208.884 275.966C208.768 276.233 208.682 276.512 208.624 276.801V278.715C208.708 279.083 208.845 279.437 209.034 279.778C209.223 280.115 209.477 280.39 209.798 280.606C210.123 280.821 210.525 280.929 211.003 280.929C211.528 280.929 211.951 280.789 212.271 280.511C212.597 280.227 212.833 279.852 212.98 279.385C213.133 278.917 213.209 278.4 213.209 277.833V277.667ZM218.117 282H216.644V269.9H218.117V282ZM223.986 282.158C223.193 282.158 222.502 281.982 221.914 281.63C221.331 281.273 220.877 280.784 220.551 280.164C220.231 279.545 220.071 278.836 220.071 278.037V277.699C220.071 276.774 220.246 275.987 220.598 275.335C220.955 274.679 221.418 274.18 221.985 273.838C222.557 273.492 223.161 273.319 223.797 273.319C224.616 273.319 225.283 273.502 225.798 273.87C226.318 274.232 226.698 274.729 226.94 275.359C227.187 275.984 227.31 276.693 227.31 277.486V278.14H220.945V276.958H225.837V276.848C225.816 276.47 225.74 276.102 225.609 275.745C225.477 275.383 225.267 275.086 224.978 274.855C224.69 274.618 224.296 274.5 223.797 274.5C223.356 274.5 222.964 274.626 222.623 274.878C222.287 275.125 222.022 275.488 221.827 275.966C221.638 276.438 221.544 277.016 221.544 277.699V278.037C221.544 278.578 221.643 279.072 221.843 279.518C222.043 279.96 222.331 280.314 222.71 280.582C223.088 280.845 223.539 280.976 224.065 280.976C224.579 280.976 225.015 280.871 225.372 280.661C225.729 280.451 226.042 280.17 226.31 279.818L227.2 280.511C226.927 280.931 226.533 281.312 226.018 281.653C225.509 281.989 224.831 282.158 223.986 282.158Z" fill="#7A7A7A"/>
<path d="M75.1703 70.493L12.1738 113.768L74.225 209.026L137.221 165.751L75.1703 70.493Z" fill="#F5F5F5"/>
<path d="M104.668 161.246L103.955 165.789L72.6365 161.153L73.3495 156.61L104.668 161.246Z" fill="#E0E0E0"/>
<path d="M88.8964 145.038L93.3881 145.701L88.408 177.367L83.9106 176.698L88.8964 145.038Z" fill="#E0E0E0"/>
<path d="M60.0765 104.793C60.1214 104.856 53.8106 109.279 45.9782 114.652C38.1458 120.026 31.762 124.339 31.717 124.27C31.6721 124.2 37.9829 119.784 45.8153 114.404C53.6477 109.025 60.0035 104.724 60.0765 104.793Z" fill="#E0E0E0"/>
<path d="M83.22 98.8193C83.2649 98.8885 72.7656 106.176 59.7734 115.102C46.7811 124.027 36.192 131.206 36.1583 131.142C36.1246 131.079 46.6015 123.779 59.6105 114.854C72.6196 105.929 83.1751 98.7502 83.22 98.8193Z" fill="#E0E0E0"/>
<path d="M87.8633 105.946C87.9082 106.015 77.4089 113.309 64.4167 122.234C51.4245 131.159 40.8353 138.338 40.8016 138.269C40.7679 138.199 51.256 130.912 64.2539 121.98C77.2517 113.049 87.8184 105.877 87.8633 105.946Z" fill="#E0E0E0"/>
<path d="M92.5066 113.078C92.5515 113.147 82.0521 120.441 69.0599 129.361C56.0677 138.28 45.4785 145.47 45.4785 145.401C45.4785 145.332 55.9273 138.038 68.9252 129.113C81.923 120.187 92.4616 113.009 92.5066 113.078Z" fill="#E0E0E0"/>
<path d="M97.1328 120.21C97.1777 120.28 86.6784 127.568 73.6862 136.493C60.694 145.418 50.1048 152.597 50.0767 152.528C50.0486 152.458 60.5424 145.17 73.5514 136.245C86.5605 127.32 97.1328 120.141 97.1328 120.21Z" fill="#E0E0E0"/>
<path d="M285.823 134.322L232.916 170.666L285.028 250.665L337.934 214.321L285.823 134.322Z" fill="#F5F5F5"/>
<path d="M310.601 210.554L310 214.371L283.695 210.479L284.302 206.662L310.601 210.554Z" fill="#E0E0E0"/>
<path d="M297.356 196.941L301.129 197.501L296.946 224.092L293.167 223.533L297.356 196.941Z" fill="#E0E0E0"/>
<path d="M273.129 163.171C273.174 163.241 267.879 166.959 261.299 171.474C254.718 175.989 249.351 179.598 249.306 179.546C249.261 179.494 254.561 175.764 261.136 171.243C267.711 166.723 273.084 163.073 273.129 163.171Z" fill="#E0E0E0"/>
<path d="M292.583 158.126C292.628 158.195 283.819 164.33 272.932 171.82C262.045 179.31 253.135 185.34 253.09 185.271C253.045 185.202 261.854 179.067 272.741 171.572C283.628 164.076 292.521 158.057 292.583 158.126Z" fill="#E0E0E0"/>
<path d="M296.486 164.111C296.531 164.18 287.721 170.315 276.834 177.81C265.948 185.306 257.037 191.325 256.992 191.256C256.947 191.187 265.729 185.081 276.644 177.585C287.558 170.09 296.452 164.047 296.486 164.111Z" fill="#E0E0E0"/>
<path d="M300.382 170.09C300.427 170.159 291.612 176.294 280.731 183.79C269.85 191.285 260.934 197.305 260.889 197.235C260.844 197.166 269.653 191.037 280.54 183.536C291.427 176.035 300.343 170.033 300.382 170.09Z" fill="#E0E0E0"/>
<path d="M304.312 176.092C304.357 176.162 295.548 182.291 284.661 189.786C273.774 197.282 264.864 203.301 264.819 203.238C264.774 203.174 273.583 197.034 284.47 189.538C295.357 182.043 304.239 176.023 304.312 176.092Z" fill="#E0E0E0"/>
<path d="M202.121 73.9975L144.393 42.2905L98.9296 129.582L156.658 161.289L202.121 73.9975Z" fill="#F5F5F5"/>
<path d="M146.777 133.979L143.117 135.265L133.819 108.875L137.485 107.583L146.777 133.979Z" fill="#E0E0E0"/>
<path d="M152.392 115.044L153.728 118.833L128.204 127.81L126.868 124.022L152.392 115.044Z" fill="#E0E0E0"/>
<path d="M170.527 76.108C170.482 76.1944 164.632 73.0694 157.451 69.1314C150.27 65.1934 144.492 61.9242 144.537 61.8377C144.582 61.7512 150.438 64.8762 157.619 68.8143C164.8 72.7523 170.572 76.0157 170.527 76.108Z" fill="#E0E0E0"/>
<path d="M184.384 91.8084C184.339 91.8949 174.648 86.6596 162.74 80.1212C150.831 73.5828 141.219 68.2091 141.264 68.1226C141.309 68.0362 150.994 73.2657 162.903 79.8098C174.811 86.354 184.429 91.7219 184.384 91.8084Z" fill="#E0E0E0"/>
<path d="M180.982 98.3411C180.937 98.4276 171.246 93.1981 159.337 86.6539C147.429 80.1098 137.817 74.7418 137.861 74.6554C137.906 74.5689 147.592 79.8042 159.5 86.3426C171.409 92.8809 181.027 98.2546 180.982 98.3411Z" fill="#E0E0E0"/>
<path d="M177.579 104.873C177.534 104.96 167.843 99.7303 155.935 93.192C144.026 86.6536 134.414 81.2972 134.459 81.1934C134.504 81.0896 144.189 86.3365 156.098 92.8748C168.006 99.4132 177.624 104.787 177.579 104.873Z" fill="#E0E0E0"/>
<path d="M174.177 111.406C174.132 111.493 164.441 106.263 152.532 99.7247C140.624 93.1863 131.006 87.8126 131.056 87.7262C131.107 87.6397 140.786 92.8692 152.695 99.4076C164.604 105.946 174.222 111.32 174.177 111.406Z" fill="#E0E0E0"/>
<path opacity="0.2" d="M174.474 0H173.026V25.3578H174.474V0Z" fill="black"/>
<path d="M139.933 56.0373H207.567C207.567 56.0373 201.323 25.3691 173.239 25.3691C148.26 25.3691 139.933 56.0373 139.933 56.0373Z" fill="#2E2C5E"/>
<path d="M174.474 0H173.026V25.3578H174.474V0Z" fill="#2E2C5E"/>
<path d="M324.34 253.596C324.34 253.676 251.771 253.746 162.268 253.746C72.7655 253.746 0.185303 253.694 0.185303 253.596C0.185303 253.498 72.743 253.446 162.268 253.446C251.793 253.446 324.34 253.509 324.34 253.596Z" fill="#263238"/>
<path d="M18.1298 217.485C19.079 217.555 20.0048 217.821 20.8517 218.267C21.6987 218.713 22.4495 219.329 23.0594 220.079C24.2721 221.589 25.1308 223.364 25.5692 225.269C26.518 228.913 25.9341 233.22 24.9235 236.846C21.0831 235.434 18.7081 231.225 17.6245 229.011C15.9401 225.516 14.9351 218.136 18.1129 217.479" fill="#2E2C5E"/>
<path d="M30.4537 241.269C29.877 240.35 29.5472 239.291 29.4979 238.2C29.4486 237.108 29.6815 236.022 30.173 235.053C30.6798 234.093 31.3678 233.246 32.1969 232.562C33.0259 231.878 33.9793 231.37 35.0015 231.069C35.9392 230.769 37.0284 230.648 37.8425 231.207C38.2095 231.492 38.4953 231.873 38.6701 232.31C38.8449 232.747 38.9023 233.225 38.8363 233.692C38.6889 234.629 38.3014 235.509 37.7134 236.241C35.8437 238.841 33.5754 241.003 30.4144 241.269" fill="#2E2C5E"/>
<path d="M30.8804 253.452C30.797 253.207 30.7387 252.954 30.7063 252.696C30.6052 252.154 30.4705 251.457 30.3077 250.621C29.8037 248.331 29.6634 245.973 29.8922 243.638C30.1569 241.292 31.0272 239.06 32.4131 237.175C32.8366 236.611 33.3249 236.102 33.8673 235.658C34.0147 235.538 34.1684 235.427 34.3277 235.324C34.3784 235.281 34.4352 235.246 34.4962 235.22C33.786 235.843 33.1372 236.537 32.5591 237.29C31.2463 239.177 30.4196 241.375 30.1561 243.679C29.7967 246.365 30.2403 248.827 30.4986 250.598C30.6333 251.48 30.7456 252.195 30.8074 252.69C30.8516 252.942 30.876 253.196 30.8804 253.452Z" fill="#263238"/>
<path d="M19.365 223.037C19.4291 223.128 19.4819 223.227 19.5222 223.331C19.6233 223.562 19.758 223.85 19.9152 224.213C20.2577 224.98 20.735 226.093 21.3133 227.471C22.4699 230.233 24.0195 234.073 25.6365 238.351C27.2535 242.629 28.6291 246.533 29.5668 249.375C30.0496 250.794 30.4258 251.947 30.6897 252.748C30.8076 253.129 30.8974 253.434 30.9704 253.671C31.0105 253.777 31.0387 253.887 31.0546 253.999C30.9977 253.901 30.9525 253.797 30.9199 253.688C30.8357 253.457 30.729 253.157 30.5886 252.783L29.4039 249.439C28.3989 246.619 26.9953 242.721 25.3839 238.449C23.7725 234.177 22.2453 230.325 21.1336 227.546C20.5721 226.179 20.1398 225.067 19.8198 224.254C19.6738 223.885 19.5559 223.591 19.4661 223.354C19.4239 223.252 19.3901 223.146 19.365 223.037Z" fill="#263238"/>
<path d="M26.3158 245.391C25.1605 243.416 23.564 241.751 21.6582 240.535C19.7525 239.319 17.5922 238.586 15.3561 238.397C14.2331 238.316 12.8519 238.512 12.3466 239.55C11.8413 240.588 12.5151 241.857 13.2899 242.698C14.9361 244.467 17.0553 245.695 19.3804 246.229C21.7055 246.762 24.1324 246.577 26.3551 245.697" fill="#2E2C5E"/>
<path d="M17.0855 241.522C17.3235 241.51 17.5621 241.52 17.7985 241.551C18.0753 241.566 18.351 241.599 18.6239 241.649C18.9439 241.712 19.3201 241.747 19.7131 241.862C20.1524 241.958 20.5856 242.081 21.0101 242.231C21.5019 242.394 21.9838 242.586 22.453 242.808C23.5324 243.304 24.5534 243.925 25.4962 244.659C26.4281 245.409 27.2722 246.269 28.0115 247.219C28.3308 247.632 28.6252 248.066 28.893 248.516C29.1351 248.905 29.3563 249.307 29.5555 249.721C29.7242 250.058 29.8742 250.405 30.0047 250.759C30.1173 251.021 30.2129 251.291 30.2911 251.566C30.3742 251.796 30.4363 252.034 30.4763 252.275C30.4146 252.275 30.1451 251.284 29.3871 249.808C29.1807 249.411 28.9539 249.026 28.7077 248.654C28.4341 248.218 28.138 247.796 27.8206 247.392C26.3521 245.528 24.4793 244.043 22.352 243.056C21.8635 242.837 21.3975 242.629 20.9427 242.479C20.5252 242.323 20.0997 242.19 19.6682 242.081C18.0961 241.637 17.0799 241.586 17.0855 241.522Z" fill="#263238"/>
<path d="M271.95 60.817C270.299 61.2033 269.496 63.1579 269.339 64.8876C269.182 66.6173 269.395 68.4508 268.688 70.0306C267.89 71.8065 265.987 73.1211 265.925 75.0757C265.886 76.2692 266.577 77.382 266.543 78.587C266.487 80.5474 264.544 82.0465 264.437 83.9838C264.364 85.3964 265.28 86.7456 265.061 88.1409C264.892 89.2249 264.067 90.0782 263.719 91.1161C263.028 93.1917 264.415 95.4692 266.217 96.6339C267.227 97.2858 268.363 97.7034 269.546 97.8576C270.729 98.0118 271.931 97.8988 273.067 97.5265C274.204 97.1542 275.247 96.5316 276.125 95.7022C277.002 94.8728 277.693 93.8567 278.148 92.7247C279.148 90.2339 278.929 87.426 278.71 84.7449C278.036 76.3807 277.534 68.0049 277.205 59.6177" fill="#263238"/>
<path d="M267.155 90.3261C267.494 90.1093 267.76 89.7888 267.913 89.4094C268.075 88.9581 268.14 88.4762 268.104 87.9968C268.042 87.361 267.904 86.7355 267.694 86.1344C267.425 85.3788 267.325 84.5709 267.402 83.7704C267.542 82.871 268.171 82.133 268.738 81.4065C269.043 81.0509 269.299 80.653 269.496 80.2245C269.694 79.7911 269.726 79.2972 269.586 78.8407C269.294 77.9009 268.396 77.209 267.986 76.1193C267.793 75.5798 267.762 74.9935 267.896 74.4357C268.023 73.9126 268.212 73.4073 268.457 72.9308C268.931 72.0726 269.308 71.1614 269.58 70.2151C269.973 68.3874 269.788 66.6404 270.058 65.2047C270.207 64.0548 270.704 62.9821 271.478 62.1373C271.697 61.9097 271.947 61.7156 272.219 61.5607C272.313 61.5105 272.413 61.4736 272.517 61.4512C272.165 61.6501 271.842 61.8985 271.557 62.1892C270.839 63.0424 270.388 64.0968 270.26 65.2162C270.161 65.9809 270.109 66.7512 270.102 67.5225C270.101 68.4303 270.014 69.3358 269.844 70.2267C269.576 71.1947 269.199 72.1274 268.721 73.0058C268.3 73.911 267.913 74.9719 268.283 75.9636C268.654 76.9553 269.547 77.6414 269.889 78.7023C270.044 79.2265 270.006 79.7906 269.782 80.2879C269.564 80.7595 269.28 81.1964 268.94 81.5852C268.379 82.3117 267.767 83.0036 267.632 83.8108C267.553 84.5764 267.642 85.3505 267.89 86.0768C268.091 86.6965 268.215 87.3396 268.261 87.991C268.289 88.4927 268.202 88.9941 268.008 89.4555C267.888 89.7447 267.694 89.9956 267.447 90.182C267.359 90.248 267.26 90.2969 267.155 90.3261Z" fill="#455A64"/>
<path d="M262.764 103.997L257.711 118.988L236.578 120.141L233.052 128.213L255.117 130.52C256.16 130.959 257.278 131.177 258.405 131.16C259.532 131.143 260.644 130.892 261.673 130.422C262.703 129.951 263.629 129.271 264.395 128.423C265.162 127.575 265.753 126.576 266.133 125.486L272.023 108.604L262.764 103.997Z" fill="#B78876"/>
<path d="M306.451 245.449C306.451 245.449 290.966 194.929 290.635 193.291C290.337 191.804 296.249 155.451 297.002 146.012L276.076 146.814V147.027L267.183 147.534L275.144 250.811H284.773L283.819 216.533C289.759 232.902 298.271 249.588 298.271 249.588L306.451 245.449Z" fill="#B78876"/>
<path d="M284.212 228.832C284.212 228.52 284.094 217.346 284.094 217.346C283.976 218.015 280.405 207.648 280.489 207.02C280.534 206.691 284.212 228.832 284.212 228.832Z" fill="#A36957"/>
<path d="M280.085 202.107C280.036 202.313 280.015 202.524 280.023 202.736C279.992 203.312 279.992 203.889 280.023 204.466C280.023 204.829 280.074 205.221 280.119 205.648C280.164 206.074 280.225 206.524 280.321 206.991C280.521 208.011 280.785 209.016 281.113 210.001C281.809 212.094 282.584 213.921 283.128 215.248C283.386 215.824 283.611 216.372 283.802 216.81C283.871 217.014 283.965 217.208 284.083 217.387C284.053 217.187 283.996 216.993 283.914 216.81C283.785 216.43 283.589 215.882 283.353 215.207C282.859 213.858 282.118 212.013 281.427 209.943C281.1 208.973 280.832 207.983 280.624 206.98C280.523 206.518 280.456 206.074 280.394 205.659C280.332 205.244 280.287 204.852 280.259 204.506C280.192 203.791 280.164 203.214 280.147 202.811C280.157 202.575 280.137 202.338 280.085 202.107Z" fill="#A36957"/>
<path d="M274.965 251.335V250.407L284.83 249.963L284.858 253.797L284.251 253.837C281.54 253.999 270.467 254.472 268.66 253.912C266.633 253.29 274.965 251.335 274.965 251.335Z" fill="#455A64"/>
<path d="M284.987 253.567C284.931 253.571 284.875 253.571 284.819 253.567L284.336 253.601L282.55 253.682C281.045 253.746 278.962 253.803 276.666 253.815C274.37 253.826 272.281 253.786 270.771 253.74L268.991 253.665H268.502H268.334C268.39 253.66 268.446 253.66 268.502 253.665H268.991L270.776 253.7C272.281 253.7 274.364 253.746 276.66 253.734C278.957 253.723 281.045 253.682 282.55 253.642L284.336 253.596H284.987V253.567Z" fill="#263238"/>
<path d="M271.748 253.89C271.666 253.588 271.553 253.296 271.411 253.019C271.233 252.763 271.028 252.529 270.799 252.321C271.105 252.434 271.36 252.66 271.512 252.956C271.698 253.228 271.781 253.559 271.748 253.89Z" fill="#263238"/>
<path d="M274.656 252.373C274.656 252.373 274.493 252.218 274.347 251.987C274.201 251.756 274.111 251.555 274.139 251.537C274.167 251.52 274.302 251.687 274.448 251.918C274.594 252.149 274.684 252.356 274.656 252.373Z" fill="#263238"/>
<path d="M275.453 251.964C275.453 251.993 275.274 251.883 275.105 251.727C274.937 251.572 274.813 251.428 274.836 251.405C274.858 251.382 275.015 251.485 275.184 251.641C275.352 251.797 275.476 251.912 275.453 251.964Z" fill="#263238"/>
<path d="M275.953 250.983C275.788 251.046 275.611 251.069 275.436 251.053C275.264 251.076 275.089 251.058 274.925 251.001C275.088 250.939 275.263 250.915 275.436 250.931C275.61 250.907 275.787 250.925 275.953 250.983Z" fill="#263238"/>
<path d="M276.121 250.315C275.954 250.426 275.759 250.486 275.56 250.488C275.369 250.514 275.175 250.486 274.999 250.407C275.184 250.375 275.372 250.36 275.56 250.361C275.745 250.327 275.933 250.312 276.121 250.315Z" fill="#263238"/>
<path d="M274.325 251.491C274.115 251.531 273.9 251.531 273.69 251.491C273.463 251.463 273.24 251.413 273.022 251.341C272.887 251.303 272.757 251.249 272.635 251.18C272.56 251.135 272.504 251.063 272.477 250.978C272.467 250.93 272.471 250.88 272.488 250.834C272.505 250.788 272.534 250.748 272.573 250.719C272.728 250.641 272.899 250.6 273.071 250.599C273.244 250.597 273.415 250.635 273.572 250.709C273.729 250.784 273.868 250.893 273.978 251.029C274.089 251.165 274.169 251.325 274.212 251.497C274.224 251.554 274.224 251.613 274.212 251.67C274.149 251.462 274.05 251.266 273.92 251.093C273.771 250.921 273.576 250.796 273.359 250.736C273.11 250.653 272.84 250.674 272.607 250.794C272.511 250.868 272.55 250.99 272.657 251.059C272.772 251.122 272.892 251.174 273.016 251.214C273.228 251.286 273.443 251.342 273.662 251.382C274.083 251.474 274.325 251.474 274.325 251.491Z" fill="#263238"/>
<path d="M274.162 251.525C274.08 251.392 274.052 251.23 274.083 251.076C274.104 250.906 274.164 250.744 274.257 250.603C274.31 250.507 274.386 250.426 274.477 250.367C274.568 250.309 274.672 250.275 274.78 250.269C274.843 250.284 274.899 250.323 274.935 250.379C274.972 250.434 274.986 250.502 274.976 250.568C274.962 250.672 274.926 250.77 274.869 250.857C274.784 251 274.684 251.133 274.572 251.254C274.474 251.369 274.351 251.459 274.212 251.514C274.212 251.514 274.336 251.399 274.51 251.191C274.611 251.072 274.699 250.943 274.774 250.805C274.858 250.666 274.92 250.418 274.774 250.39C274.628 250.361 274.46 250.54 274.364 250.666C274.275 250.791 274.213 250.935 274.184 251.087C274.162 251.232 274.154 251.379 274.162 251.525Z" fill="#263238"/>
<path d="M284.779 250.811C284.779 250.811 284.498 250.811 284.055 250.84C283.477 250.911 282.931 251.147 282.477 251.521C282.024 251.895 281.681 252.392 281.489 252.956C281.343 253.388 281.332 253.682 281.309 253.676C281.287 253.671 281.309 253.601 281.309 253.475C281.324 253.289 281.358 253.105 281.41 252.927C281.589 252.337 281.933 251.813 282.399 251.422C282.87 251.038 283.443 250.807 284.044 250.759C284.23 250.736 284.419 250.736 284.605 250.759C284.665 250.769 284.724 250.786 284.779 250.811Z" fill="#263238"/>
<path d="M280.057 252.759C279.586 252.872 279.103 252.921 278.62 252.904C278.139 252.928 277.657 252.886 277.188 252.777C277.188 252.742 277.828 252.777 278.62 252.777C279.411 252.777 280.051 252.725 280.057 252.759Z" fill="#263238"/>
<path d="M281.977 252.742C281.977 252.742 281.927 252.881 281.859 253.031C281.792 253.18 281.758 253.319 281.724 253.313C281.691 253.307 281.674 253.157 281.753 252.979C281.831 252.8 281.955 252.713 281.977 252.742Z" fill="#263238"/>
<path d="M282.702 251.814C282.702 251.814 282.662 251.941 282.561 252.045C282.46 252.149 282.359 252.218 282.331 252.195C282.303 252.172 282.37 252.068 282.471 251.958C282.573 251.849 282.674 251.785 282.702 251.814Z" fill="#263238"/>
<path d="M283.734 251.387C283.734 251.422 283.6 251.422 283.454 251.474C283.308 251.526 283.207 251.606 283.179 251.583C283.151 251.56 283.235 251.422 283.414 251.358C283.594 251.295 283.746 251.353 283.734 251.387Z" fill="#263238"/>
<path d="M284.47 251.18C284.47 251.214 284.431 251.266 284.347 251.295C284.262 251.324 284.189 251.33 284.178 251.295C284.167 251.261 284.223 251.209 284.302 251.18C284.38 251.151 284.459 251.151 284.47 251.18Z" fill="#263238"/>
<path d="M298.074 250.442L297.704 249.594L306.524 245.045L308.08 248.504L307.518 248.798C305.109 250.084 295.2 255.17 293.324 255.423C291.253 255.729 298.074 250.442 298.074 250.442Z" fill="#455A64"/>
<path d="M308.113 248.256L307.967 248.349L307.535 248.579L305.94 249.41C304.593 250.096 302.718 251.024 300.623 252.004C298.529 252.984 296.609 253.82 295.217 254.414L293.56 255.1L293.111 255.279C293.059 255.304 293.005 255.321 292.948 255.331L293.1 255.256L293.543 255.054L295.183 254.333C296.57 253.722 298.479 252.869 300.573 251.889C302.667 250.909 304.548 249.998 305.907 249.329L307.513 248.539L307.956 248.326L308.113 248.256Z" fill="#263238"/>
<path d="M296.182 254.12C295.988 253.877 295.768 253.656 295.526 253.463C295.262 253.303 294.981 253.175 294.689 253.082C295.011 253.078 295.327 253.175 295.594 253.36C295.861 253.546 296.067 253.811 296.182 254.12Z" fill="#263238"/>
<path d="M298.209 251.514C298.209 251.514 297.996 251.445 297.771 251.295C297.547 251.145 297.384 251.001 297.401 250.972C297.417 250.943 297.614 251.041 297.839 251.191C298.063 251.341 298.226 251.485 298.209 251.514Z" fill="#263238"/>
<path d="M298.759 250.811C298.759 250.839 298.568 250.811 298.349 250.741C298.13 250.672 297.968 250.586 297.973 250.551C298.115 250.537 298.258 250.561 298.389 250.62C298.602 250.672 298.771 250.753 298.759 250.811Z" fill="#263238"/>
<path d="M298.838 249.704C298.838 249.738 298.653 249.859 298.395 249.986C298.246 250.078 298.079 250.135 297.906 250.153C297.906 250.119 298.092 249.998 298.344 249.871C298.495 249.779 298.664 249.722 298.838 249.704Z" fill="#263238"/>
<path d="M298.726 249.023C298.726 249.023 298.563 249.254 298.271 249.421C298.105 249.537 297.909 249.597 297.709 249.594C297.87 249.483 298.042 249.388 298.22 249.312C298.496 249.156 298.698 248.995 298.726 249.023Z" fill="#263238"/>
<path d="M297.575 250.857C297.404 250.977 297.214 251.067 297.013 251.122C296.793 251.188 296.568 251.236 296.34 251.266C296.202 251.284 296.062 251.284 295.924 251.266C295.838 251.259 295.757 251.218 295.7 251.151C295.674 251.11 295.66 251.062 295.66 251.012C295.66 250.963 295.674 250.915 295.7 250.874C295.87 250.662 296.108 250.517 296.371 250.464C296.634 250.412 296.907 250.455 297.143 250.586C297.282 250.661 297.404 250.765 297.502 250.891C297.569 250.984 297.597 251.041 297.592 251.047C297.453 250.889 297.288 250.758 297.103 250.661C296.906 250.565 296.685 250.531 296.469 250.563C296.34 250.576 296.215 250.616 296.102 250.679C295.988 250.743 295.888 250.828 295.806 250.932C295.745 251.041 295.806 251.134 295.958 251.151C296.087 251.162 296.216 251.162 296.345 251.151C296.569 251.128 296.79 251.087 297.008 251.03C297.328 250.938 297.575 250.839 297.575 250.857Z" fill="#263238"/>
<path d="M297.418 250.955C297.292 250.863 297.205 250.728 297.171 250.574C297.121 250.412 297.11 250.24 297.137 250.073C297.147 249.962 297.184 249.856 297.245 249.764C297.305 249.672 297.388 249.598 297.485 249.548C297.625 249.502 297.951 249.796 297.974 249.905C297.996 250.015 297.811 249.957 297.799 250.049C297.781 250.213 297.744 250.374 297.687 250.528C297.646 250.676 297.569 250.811 297.463 250.92C297.463 250.92 297.53 250.764 297.609 250.505C297.649 250.352 297.677 250.196 297.693 250.038C297.693 249.876 297.693 249.629 297.513 249.669C297.333 249.709 297.283 249.934 297.244 250.096C297.209 250.245 297.209 250.401 297.244 250.551C297.29 250.691 297.348 250.826 297.418 250.955Z" fill="#263238"/>
<path d="M306.822 245.829C306.822 245.829 306.552 245.927 306.171 246.164C305.671 246.47 305.265 246.913 304.997 247.444C304.737 247.979 304.627 248.577 304.677 249.173C304.711 249.635 304.817 249.9 304.795 249.911C304.759 249.854 304.73 249.792 304.711 249.727C304.655 249.55 304.616 249.369 304.593 249.185C304.513 248.571 304.616 247.946 304.89 247.394C305.164 246.842 305.595 246.389 306.126 246.094C306.285 246.004 306.452 245.931 306.625 245.875C306.688 245.85 306.755 245.835 306.822 245.829Z" fill="#263238"/>
<path d="M303.29 249.6C302.499 250.165 301.614 250.579 300.68 250.822C300.68 250.788 301.269 250.557 301.988 250.246C302.707 249.934 303.274 249.571 303.29 249.6Z" fill="#263238"/>
<path d="M305.037 248.775C305.065 248.775 305.037 248.92 305.037 249.087C305.037 249.254 305.037 249.392 305.037 249.404C305.037 249.415 304.924 249.277 304.924 249.087C304.924 248.896 305.009 248.758 305.037 248.775Z" fill="#263238"/>
<path d="M305.323 247.622C305.351 247.622 305.323 247.755 305.289 247.893C305.256 248.031 305.171 248.135 305.143 248.124C305.115 248.112 305.143 247.991 305.177 247.853C305.211 247.714 305.289 247.61 305.323 247.622Z" fill="#263238"/>
<path d="M306.098 246.775C306.098 246.809 305.986 246.861 305.873 246.971C305.761 247.08 305.699 247.196 305.671 247.184C305.643 247.172 305.671 247.011 305.795 246.878C305.918 246.746 306.092 246.775 306.098 246.775Z" fill="#263238"/>
<path d="M306.687 246.302C306.687 246.302 306.687 246.394 306.62 246.457C306.553 246.521 306.491 246.555 306.468 246.532C306.446 246.509 306.468 246.44 306.536 246.377C306.603 246.313 306.665 246.279 306.687 246.302Z" fill="#263238"/>
<path d="M295.643 128.945L294.004 108.362L302.426 108.517C302.426 108.517 302.813 105.479 301.572 98.825C300.809 94.7428 298.164 92.2405 295.194 90.7529V90.6953L294.936 90.6261C292.491 89.4988 289.88 88.7992 287.21 88.5562L276.851 88.6772C276.851 88.6772 268.94 87.6394 264.578 93.4571C262.893 95.6884 257.666 110.962 257.666 110.962L270.102 117.108L268.94 108.638C268.94 108.638 269.176 114.779 269.94 116.71C270.361 117.794 271.624 121.162 271.624 121.162L271.461 131.321L295.643 128.945Z" fill="#2E2C5E"/>
<path d="M289.933 105.375L288.395 112.098H302.898L301.943 100.82L289.933 105.375Z" fill="#2E2C5E"/>
<path d="M302.897 112.098C302.264 111.978 301.622 111.912 300.977 111.902C299.787 111.833 298.17 111.769 296.328 111.781C294.487 111.792 292.864 111.873 291.674 111.965C291.03 111.988 290.389 112.069 289.759 112.207C290.402 112.26 291.048 112.26 291.691 112.207C292.875 112.167 294.498 112.121 296.328 112.115C298.159 112.109 299.781 112.115 300.972 112.144C301.614 112.181 302.258 112.165 302.897 112.098Z" fill="#263238"/>
<path d="M289.305 100.768C289.235 101.342 289.22 101.921 289.26 102.498C289.26 103.553 289.305 105.006 289.366 106.615C289.428 108.223 289.501 109.682 289.568 110.731C289.571 111.313 289.631 111.892 289.748 112.461C289.817 111.887 289.832 111.308 289.793 110.731C289.793 109.676 289.748 108.217 289.686 106.609C289.625 105 289.552 103.547 289.484 102.492C289.482 101.913 289.422 101.335 289.305 100.768Z" fill="#263238"/>
<g opacity="0.3">
<path d="M276.11 106.591C276.11 106.591 279.333 131.136 288.395 130.485C288.395 130.485 292.476 130.439 293.785 127.654V126.558L276.11 106.591Z" fill="black"/>
</g>
<g opacity="0.3">
<path d="M289.304 102.215L287.569 114.248L288.692 116.359L290.545 112.23L289.759 112.207L289.304 102.215Z" fill="black"/>
</g>
<path d="M271.573 121.173C271.466 120.993 271.383 120.799 271.326 120.596C271.186 120.222 271.001 119.674 270.765 118.988C270.203 117.2 269.74 115.381 269.378 113.539C269.018 111.696 268.789 109.829 268.693 107.952C268.659 107.231 268.648 106.649 268.659 106.222C268.645 106.014 268.658 105.804 268.699 105.6C268.744 105.6 268.777 106.488 268.895 107.906C269.053 109.766 269.31 111.616 269.664 113.447C270.08 115.592 270.58 117.512 270.961 118.89C271.141 119.53 271.293 120.077 271.416 120.527C271.493 120.735 271.546 120.952 271.573 121.173Z" fill="#263238"/>
<path d="M275.234 128.225C275.156 128.225 274.931 127.723 274.734 127.072C274.565 126.672 274.49 126.238 274.516 125.803C274.763 126.156 274.934 126.559 275.015 126.985C275.176 127.377 275.251 127.8 275.234 128.225Z" fill="#263238"/>
<path d="M276.486 128.133C276.062 126.976 276.044 125.703 276.436 124.535C276.48 125.133 276.48 125.735 276.436 126.334C276.497 126.931 276.514 127.532 276.486 128.133Z" fill="#263238"/>
<path d="M270.355 117.391C270.316 117.46 267.424 116.053 263.893 114.243C260.361 112.432 257.526 110.899 257.559 110.824C257.593 110.749 260.49 112.161 264.022 113.972C267.553 115.782 270.389 117.316 270.355 117.391Z" fill="#263238"/>
<path d="M275.453 90.6663C275.515 87.7489 275.532 84.6815 275.532 84.6815C275.532 84.6815 271.888 83.9608 271.254 79.0368C270.647 74.3435 272.343 63.3251 272.343 63.3251C277.665 61.2609 283.196 63.1348 286.84 67.5629L285.936 91.2429C285.829 93.9932 283.443 96.0919 280.579 95.9535C277.682 95.8094 275.392 93.4454 275.453 90.6663Z" fill="#B78876"/>
<path d="M272.062 72.1296C272.057 72.2912 272.112 72.4487 272.217 72.5698C272.321 72.6909 272.466 72.7665 272.623 72.7811C272.703 72.789 272.783 72.7802 272.86 72.7551C272.936 72.7301 273.006 72.6893 273.067 72.6354C273.127 72.5814 273.176 72.5154 273.211 72.4413C273.246 72.3672 273.266 72.2867 273.269 72.2045C273.274 72.0435 273.218 71.8867 273.114 71.7665C273.009 71.6464 272.864 71.572 272.708 71.5588C272.628 71.5463 272.546 71.5517 272.468 71.5747C272.39 71.5977 272.318 71.6376 272.257 71.6919C272.196 71.7461 272.146 71.8133 272.113 71.8888C272.079 71.9644 272.062 72.0465 272.062 72.1296Z" fill="#263238"/>
<path d="M271.837 71.3049C271.91 71.3857 272.399 71.0455 273.045 71.0685C273.69 71.0916 274.167 71.4376 274.246 71.3568C274.325 71.2761 274.212 71.1723 274.005 71.0051C273.723 70.796 273.386 70.6812 273.039 70.6765C272.697 70.6631 272.36 70.7643 272.079 70.9648C271.871 71.1204 271.798 71.2646 271.837 71.3049Z" fill="#263238"/>
<path d="M278.749 72.5563C278.743 72.7183 278.798 72.8766 278.902 72.998C279.007 73.1194 279.153 73.1946 279.31 73.2079C279.391 73.2204 279.473 73.2148 279.551 73.1915C279.629 73.1682 279.702 73.1278 279.763 73.0729C279.825 73.0181 279.874 72.9502 279.907 72.8739C279.94 72.7977 279.957 72.7149 279.956 72.6313C279.962 72.4699 279.907 72.3123 279.803 72.1918C279.698 72.0713 279.552 71.9974 279.395 71.9855C279.315 71.9731 279.233 71.9785 279.155 72.0015C279.078 72.0244 279.006 72.0644 278.944 72.1186C278.883 72.1728 278.834 72.24 278.8 72.3156C278.766 72.3911 278.749 72.4732 278.749 72.5563Z" fill="#263238"/>
<path d="M278.704 71.7318C278.777 71.8182 279.266 71.4781 279.911 71.4954C280.557 71.5127 281.034 71.8644 281.118 71.7837C281.203 71.7029 281.079 71.5991 280.871 71.4377C280.595 71.2231 280.258 71.1058 279.911 71.1033C279.568 71.0927 279.23 71.1936 278.946 71.3916C278.743 71.5473 278.67 71.6914 278.704 71.7318Z" fill="#263238"/>
<path d="M276.189 76.6845C275.844 76.5628 275.486 76.4873 275.122 76.4597C274.954 76.4597 274.796 76.3962 274.774 76.2809C274.76 76.1007 274.804 75.9208 274.897 75.7678L275.425 74.4705C275.916 73.3679 276.32 72.2264 276.632 71.0571C276.057 72.1165 275.566 73.2213 275.161 74.3609C274.987 74.8164 274.813 75.2546 274.65 75.6697C274.541 75.8757 274.506 76.1142 274.549 76.3443C274.571 76.4068 274.607 76.4633 274.654 76.5093C274.701 76.5553 274.757 76.5896 274.819 76.6096C274.912 76.6373 275.008 76.6528 275.105 76.6557C275.464 76.7124 275.828 76.7221 276.189 76.6845Z" fill="#263238"/>
<path d="M275.532 84.6818C277.778 84.7741 280.005 84.2253 281.966 83.0962C281.966 83.0962 280.332 86.423 275.565 85.8407L275.532 84.6818Z" fill="#A36957"/>
<path d="M280.815 69.7656C280.68 69.9789 280.175 69.8867 279.614 69.7656C279.052 69.6445 278.558 69.5465 278.491 69.2986C278.423 69.0507 279.013 68.722 279.765 68.8777C280.517 69.0334 280.95 69.5811 280.815 69.7656Z" fill="#263238"/>
<path d="M274.263 68.7854C274.212 69.0333 273.673 69.1256 273.056 69.1544C272.438 69.1833 271.893 69.1544 271.82 68.9007C271.747 68.647 272.269 68.2896 273.016 68.255C273.763 68.2204 274.313 68.549 274.263 68.7854Z" fill="#263238"/>
<path d="M276.2 78.3048C276.129 78.2875 276.054 78.2952 275.988 78.3265C275.922 78.3579 275.868 78.4111 275.835 78.4778C275.803 78.5365 275.786 78.6029 275.787 78.6702C275.788 78.7376 275.806 78.8036 275.839 78.8616C275.872 78.9197 275.919 78.9679 275.976 79.0013C276.033 79.0348 276.098 79.0524 276.163 79.0524C276.229 79.0524 276.293 79.0348 276.35 79.0013C276.407 78.9679 276.454 78.9197 276.488 78.8616C276.521 78.8036 276.539 78.7376 276.539 78.6702C276.54 78.6029 276.524 78.5365 276.492 78.4778C276.451 78.4003 276.387 78.3393 276.308 78.3047C276.23 78.2701 276.142 78.264 276.059 78.2875" fill="#A36957"/>
<path d="M276.351 78.3739C276.351 78.3451 276.245 78.1779 275.958 78.2413C275.873 78.2642 275.794 78.3099 275.731 78.3736C275.668 78.4374 275.623 78.517 275.599 78.6045C275.569 78.7149 275.571 78.832 275.606 78.9409C275.641 79.0498 275.707 79.1454 275.795 79.2157C275.889 79.2814 275.999 79.3166 276.113 79.3166C276.226 79.3166 276.337 79.2814 276.43 79.2157C276.505 79.1641 276.563 79.0916 276.599 79.0068C276.635 78.922 276.646 78.8284 276.632 78.7372C276.576 78.4316 276.357 78.3854 276.346 78.4258C276.334 78.4662 276.424 78.5699 276.407 78.7487C276.404 78.7929 276.389 78.8354 276.366 78.8726C276.342 78.9098 276.31 78.9405 276.273 78.962C276.229 78.9878 276.18 79.0014 276.13 79.0014C276.079 79.0014 276.03 78.9878 275.986 78.962C275.947 78.9279 275.917 78.8839 275.9 78.8344C275.882 78.7849 275.877 78.7315 275.885 78.6795C275.892 78.634 275.909 78.5907 275.935 78.5535C275.962 78.5163 275.997 78.4863 276.037 78.4662C276.194 78.3681 276.334 78.4143 276.351 78.3739Z" fill="#263238"/>
<path d="M284.661 73.3462C284.099 74.6954 282.707 75.739 282.898 77.1977C283.021 78.1376 283.611 79.0139 283.499 79.9595C283.353 81.1127 282.157 81.966 281.983 83.148C281.775 84.5952 283.151 85.7195 283.695 87.0687C284.498 89.0406 283.476 91.2547 283.448 93.4111C283.481 95.0482 284.091 96.6176 285.165 97.8283C286.239 99.039 287.703 99.809 289.287 99.9956C290.568 100.105 292.01 99.7073 292.656 98.5772C293.218 97.6431 293.094 96.4554 293.42 95.4233C293.914 93.8781 295.346 92.748 295.666 91.1567C296.227 88.2738 292.802 85.8521 293.027 82.9001C293.122 81.6374 293.88 80.5419 294.2 79.3195C294.404 78.5162 294.42 77.6748 294.246 76.864C294.072 76.0533 293.714 75.2963 293.201 74.655C292.353 73.623 291.129 72.9253 290.393 71.8183C289.579 70.544 289.551 68.9354 289.271 67.4305C288.894 65.6014 288.071 63.9003 286.88 62.4862C285.689 61.072 284.168 59.9911 282.46 59.3443C280.752 58.6976 278.912 58.5062 277.112 58.7879C275.312 59.0697 273.611 59.8155 272.168 60.9556C272.168 60.9556 271.354 64.7552 275.155 65.3952C278.957 66.0352 280.714 65.2972 281.141 66.8597C281.04 67.5034 281.089 68.1624 281.285 68.7827C281.48 69.4031 281.815 69.9671 282.264 70.4287C283.813 72.1469 285.29 71.7779 284.661 73.3462Z" fill="#263238"/>
<path d="M290.697 99.7012C290.58 99.7054 290.463 99.6937 290.349 99.6666C290.019 99.6067 289.696 99.516 289.383 99.3957C288.224 98.9392 287.207 98.168 286.441 97.1643C285.904 96.4717 285.483 95.6924 285.195 94.858C284.866 93.9077 284.694 92.9083 284.684 91.9002C284.672 90.789 284.808 89.6813 285.088 88.6079C285.241 88.041 285.428 87.4845 285.649 86.9416C285.881 86.4013 286.085 85.8489 286.261 85.2868C286.416 84.7329 286.416 84.1456 286.261 83.5917C286.097 83.0464 285.885 82.5176 285.627 82.0119C285.367 81.5104 285.147 80.9878 284.97 80.4494C284.797 79.9164 284.757 79.3476 284.852 78.7946C285.077 77.7106 285.717 76.9034 286.098 76.0789C286.462 75.3157 286.636 74.4717 286.604 73.6227C286.553 72.3802 286.114 71.1875 285.352 70.2209C285.057 69.8823 284.74 69.5645 284.403 69.2695C284.797 69.4967 285.148 69.7934 285.442 70.1459C286.259 71.1111 286.741 72.3281 286.812 73.6054C286.858 74.4914 286.688 75.3754 286.317 76.1769C285.93 77.0302 285.307 77.8432 285.116 78.8349C284.925 79.8266 285.38 80.8703 285.879 81.8735C286.152 82.3937 286.374 82.9403 286.542 83.5052C286.708 84.1084 286.708 84.747 286.542 85.3503C286.355 85.9319 286.14 86.5035 285.896 87.0627C285.676 87.5938 285.488 88.1388 285.335 88.6944C285.056 89.7407 284.918 90.8212 284.925 91.9059C284.908 93.7533 285.488 95.5542 286.576 97.0259C287.303 98.0171 288.271 98.7945 289.383 99.2803C290.22 99.6148 290.702 99.6666 290.697 99.7012Z" fill="#455A64"/>
<path d="M290.136 70.6072C289.862 70.6799 289.581 70.7224 289.299 70.734C288.529 70.8186 287.751 70.7973 286.986 70.6706C286.406 70.5824 285.849 70.3764 285.348 70.0645C284.846 69.7527 284.411 69.3413 284.066 68.8544C283.745 68.2384 283.489 67.5889 283.303 66.9171C283.063 66.246 282.613 65.6759 282.022 65.2969C280.793 64.4955 279.35 64.3974 278.092 64.2418C276.932 64.1824 275.806 63.8213 274.819 63.1924C274.158 62.7426 273.68 62.0595 273.477 61.2724C273.428 61.0591 273.415 60.8388 273.438 60.6209C273.438 60.471 273.471 60.396 273.483 60.396C273.489 60.6816 273.525 60.9657 273.589 61.2436C273.822 61.9795 274.299 62.6081 274.937 63.0194C275.906 63.5999 276.999 63.9247 278.12 63.965C279.378 64.1149 280.871 64.1899 282.185 65.0432C282.828 65.4578 283.318 66.0807 283.578 66.8133C283.754 67.4681 283.996 68.102 284.302 68.7045C284.956 69.6257 285.936 70.2468 287.031 70.4342C287.771 70.5755 288.525 70.6277 289.277 70.5899C289.563 70.5733 289.85 70.5791 290.136 70.6072Z" fill="#455A64"/>
<path d="M288.743 65.9139C288.531 65.9866 288.309 66.0198 288.086 66.012C287.039 66.0192 286.032 65.6053 285.279 64.8588C284.935 64.5051 284.642 64.1033 284.408 63.6653C283.903 62.7889 283.414 61.7107 282.365 61.261C281.353 60.9125 280.275 60.8156 279.22 60.9784C278.33 61.1069 277.427 61.1069 276.537 60.9784C275.917 60.8902 275.334 60.6267 274.852 60.2174C274.728 60.1059 274.618 59.9779 274.527 59.8368C274.459 59.7369 274.431 59.685 274.442 59.6812C274.442 59.6812 274.6 59.8657 274.925 60.1251C275.405 60.4758 275.963 60.6977 276.548 60.7709C277.422 60.8721 278.305 60.8566 279.175 60.7248C280.277 60.5401 281.405 60.6391 282.46 61.013C283.002 61.2632 283.467 61.6623 283.802 62.1662C284.098 62.6157 284.37 63.0815 284.616 63.5615C284.837 63.9806 285.111 64.3682 285.43 64.7147C285.712 65.0076 286.036 65.2546 286.39 65.4469C286.912 65.7269 287.487 65.89 288.075 65.9255C288.507 65.9197 288.737 65.8851 288.743 65.9139Z" fill="#455A64"/>
<path d="M292.37 98.4559C292.342 98.4559 292.522 98.0753 292.73 97.3604C293.011 96.3567 293.136 95.3137 293.1 94.2699C293.059 92.7249 292.649 91.214 291.904 89.8706C291.494 89.1153 290.871 88.4407 290.36 87.6105C290.09 87.1875 289.899 86.7161 289.799 86.2209C289.71 85.6997 289.753 85.1638 289.922 84.6642C290.237 83.6667 290.798 82.8306 290.922 81.9139C291.045 80.9971 290.618 80.1842 290.192 79.4173C289.972 79.0442 289.771 78.6592 289.591 78.2642C289.427 77.881 289.319 77.4749 289.271 77.0591C289.218 76.3265 289.241 75.5901 289.338 74.8624C289.518 73.8336 289.425 72.7741 289.069 71.795C288.91 71.452 288.684 71.1459 288.406 70.8955C288.406 70.8955 288.434 70.8955 288.474 70.9301C288.54 70.964 288.601 71.0088 288.653 71.0627C288.873 71.2506 289.051 71.4845 289.175 71.7488C289.582 72.7364 289.708 73.8216 289.54 74.8797C289.463 75.5939 289.454 76.3142 289.512 77.0303C289.651 77.8359 289.961 78.5999 290.422 79.2674C290.661 79.6571 290.866 80.0681 291.034 80.4955C291.211 80.9569 291.269 81.4573 291.202 81.9485C291.068 82.9575 290.489 83.8108 290.197 84.7506C290.044 85.2041 290.004 85.6897 290.079 86.1633C290.177 86.6214 290.356 87.0571 290.607 87.449C291.084 88.2505 291.73 88.9366 292.14 89.7265C292.892 91.1152 293.294 92.6752 293.308 94.2642C293.326 95.3277 293.166 96.3866 292.836 97.395C292.746 97.6679 292.638 97.9338 292.511 98.1906C292.476 98.2855 292.429 98.3748 292.37 98.4559Z" fill="#455A64"/>
<path d="M269.502 205.89C269.502 205.89 265.717 169.081 265.498 155.48C265.279 141.878 271.455 128.455 271.455 128.455L295.643 127.423C295.643 127.423 300.427 141.221 300.511 147.027C300.68 158.293 297.597 169.415 297.951 178.352L298.759 205.913" fill="#263238"/>
<path d="M299.574 160.634C299.447 160.747 299.314 160.851 299.175 160.946L298.956 161.101L298.72 161.338C298.512 161.522 298.324 161.729 298.159 161.955C297.378 162.935 296.811 164.693 296.267 166.879C295.988 168.091 295.578 169.267 295.043 170.384C294.88 170.69 294.692 170.982 294.481 171.255C294.38 171.393 294.285 171.543 294.167 171.676L293.796 172.056C293.265 172.566 292.649 172.972 291.977 173.256C290.624 173.867 289.091 174.155 287.699 174.876C286.272 175.664 285.17 176.953 284.594 178.508C283.909 180.071 283.471 181.708 282.909 183.242C282.348 184.776 281.59 186.24 280.383 187.174C279.229 187.998 277.858 188.442 276.453 188.448C275.15 188.529 273.943 188.489 272.859 188.656C271.884 188.76 270.952 189.121 270.153 189.705C269.57 190.174 269.132 190.807 268.895 191.527C268.745 191.982 268.712 192.468 268.8 192.94C268.867 193.263 268.951 193.418 268.935 193.424C268.844 193.279 268.78 193.119 268.744 192.951C268.625 192.47 268.641 191.965 268.789 191.493C269.012 190.737 269.452 190.067 270.052 189.573C270.871 188.938 271.84 188.54 272.859 188.42C273.982 188.235 275.178 188.258 276.464 188.172C277.828 188.162 279.157 187.728 280.276 186.926C281.411 185.908 282.248 184.587 282.696 183.109C283.258 181.593 283.667 179.95 284.38 178.358C284.985 176.74 286.137 175.399 287.626 174.582C289.074 173.844 290.607 173.561 291.926 172.973C292.572 172.698 293.166 172.308 293.678 171.82L294.032 171.457C294.144 171.33 294.24 171.186 294.341 171.053C294.539 170.791 294.713 170.511 294.863 170.217C295.401 169.115 295.817 167.955 296.104 166.758C296.665 164.578 297.277 162.796 298.103 161.81C298.267 161.586 298.455 161.381 298.664 161.199C298.754 161.119 298.832 161.038 298.911 160.974L299.141 160.825C299.281 160.752 299.426 160.689 299.574 160.634Z" fill="#FAFAFA"/>
<path d="M299.72 143.602C299.745 143.764 299.757 143.928 299.753 144.092C299.752 144.568 299.695 145.042 299.585 145.505C299.101 147.191 298.152 148.698 296.851 149.841C295.992 150.651 295.051 151.365 294.043 151.968C292.96 152.625 291.764 153.254 290.534 153.969C289.243 154.68 288.04 155.549 286.952 156.558C285.836 157.695 284.917 159.019 284.235 160.473C283.546 161.946 282.76 163.37 281.882 164.734C281.436 165.369 280.92 165.949 280.344 166.463C279.776 166.959 279.152 167.383 278.485 167.726C277.279 168.335 276.022 168.831 274.729 169.208C273.528 169.588 272.405 169.929 271.428 170.361C270.541 170.723 269.697 171.187 268.912 171.745C268.322 172.165 267.791 172.668 267.335 173.238C266.953 173.733 266.634 174.275 266.386 174.853C266.426 174.693 266.478 174.537 266.543 174.385C266.727 173.95 266.963 173.539 267.245 173.163C267.693 172.569 268.222 172.044 268.817 171.606C269.605 171.029 270.455 170.546 271.349 170.165C272.431 169.712 273.535 169.318 274.656 168.983C275.93 168.597 277.17 168.099 278.362 167.495C278.994 167.157 279.587 166.747 280.13 166.273C280.684 165.766 281.182 165.198 281.613 164.578C282.479 163.221 283.257 161.807 283.943 160.346C284.647 158.859 285.597 157.509 286.75 156.356C287.857 155.332 289.083 154.453 290.399 153.738C291.635 153.029 292.831 152.412 293.914 151.761C294.919 151.177 295.86 150.485 296.722 149.696C298.011 148.588 298.969 147.126 299.484 145.482C299.628 144.866 299.707 144.235 299.72 143.602Z" fill="#FAFAFA"/>
<path d="M265.622 157.405C265.6 157.37 265.583 157.331 265.571 157.29C265.529 157.179 265.494 157.065 265.465 156.95C265.368 156.491 265.388 156.015 265.521 155.566C265.835 154.413 267.076 152.931 269.075 152.199C270.074 151.847 271.203 151.622 272.382 151.322C273.361 151.156 274.287 150.751 275.083 150.142C275.879 149.534 276.522 148.738 276.958 147.823C277.277 147.151 277.556 146.459 277.794 145.753C278.233 144.218 278.83 142.735 279.574 141.33C280.427 139.949 281.721 138.916 283.235 138.407C284.612 137.948 286.017 137.582 287.44 137.312C288.71 137.061 289.941 136.63 291.095 136.032C292.073 135.458 292.917 134.671 293.566 133.725C294.524 132.361 295.071 130.736 295.138 129.055C295.14 128.438 295.101 127.821 295.02 127.21C295.19 127.809 295.267 128.431 295.25 129.055C295.228 130.773 294.7 132.443 293.734 133.846C293.077 134.823 292.216 135.636 291.213 136.228C290.043 136.849 288.794 137.297 287.502 137.56C286.092 137.834 284.7 138.202 283.336 138.661C281.883 139.15 280.64 140.142 279.821 141.469C279.089 142.855 278.5 144.316 278.064 145.828C277.821 146.547 277.534 147.25 277.205 147.932C276.872 148.587 276.448 149.19 275.947 149.72C274.961 150.643 273.747 151.271 272.438 151.536C271.248 151.847 270.125 152.043 269.142 152.378C267.194 153.058 265.959 154.459 265.627 155.578C265.491 156.009 265.455 156.467 265.521 156.915C265.568 157.075 265.602 157.239 265.622 157.405Z" fill="#FAFAFA"/>
<path d="M297.642 188.541C297.665 188.66 297.678 188.782 297.681 188.904C297.692 189.253 297.656 189.602 297.575 189.942C297.222 191.192 296.476 192.287 295.452 193.055C294.769 193.614 294.013 194.072 293.207 194.416C292.348 194.791 291.399 195.09 290.399 195.408C289.362 195.719 288.347 196.104 287.362 196.561C286.338 197.063 285.421 197.766 284.661 198.631C283.841 199.507 283.134 200.47 282.348 201.323C281.596 202.15 280.723 202.85 279.76 203.399C278.121 204.317 276.287 204.808 274.42 204.829C273.17 204.843 271.927 204.63 270.748 204.2C270.428 204.087 270.117 203.95 269.816 203.791C269.707 203.744 269.603 203.684 269.507 203.612C269.62 203.644 269.731 203.685 269.839 203.733C270.147 203.869 270.462 203.988 270.782 204.091C271.958 204.47 273.188 204.647 274.42 204.615C276.246 204.567 278.033 204.067 279.63 203.157C280.563 202.614 281.41 201.928 282.14 201.121C282.909 200.28 283.611 199.323 284.448 198.423C285.252 197.526 286.222 196.801 287.3 196.29C288.3 195.831 289.33 195.446 290.382 195.137C291.371 194.825 292.314 194.56 293.19 194.179C293.973 193.85 294.71 193.414 295.379 192.882C296.386 192.152 297.136 191.109 297.519 189.907C297.601 189.456 297.643 188.999 297.642 188.541Z" fill="#FAFAFA"/>
<path d="M294.885 112.121L290.203 112.236C290.023 113.206 289.664 114.131 289.147 114.963C285.217 107.987 282.202 98.6463 281.45 94.8928C281.562 94.518 281.691 94.1028 281.854 93.6416C281.971 92.941 281.95 92.2235 281.792 91.5313C281.657 90.6953 281.433 89.571 281.365 89.052C281.158 87.4607 280.905 87.2128 280.366 87.3915C279.636 87.6394 280.669 91.8484 280.068 91.9407C279.743 91.9868 279.35 90.5454 279.237 89.3634C279.125 88.1814 278.597 84.5374 278.221 84.2953C277.66 83.9378 277.171 84.5028 277.317 85.6791C277.463 86.8553 277.637 90.43 277.031 90.4819C276.425 90.5338 275.908 84.4913 275.908 84.4913C275.908 84.4913 276.003 83.1767 275.296 83.2055C274.027 83.2632 275.021 89.6286 275.128 90.234C275.206 90.6492 274.566 90.7299 274.488 90.2744C274.409 89.8189 274.117 84.2376 272.803 84.2837C271.804 84.2837 273.572 89.5248 273.011 90.7356C272.449 91.9464 272.068 86.6304 271.119 86.6996C270.765 86.7284 270.501 86.7976 271.152 89.8016C271.776 92.1883 272.526 94.5385 273.398 96.8416C274.903 105.173 281.506 131.828 291.854 126.95C297.648 124.217 299.995 112.121 299.995 112.121H294.885Z" fill="#B78876"/>
<path d="M274.925 90.6377C274.969 90.6491 275.016 90.6491 275.06 90.6377C275.128 90.6164 275.186 90.5711 275.224 90.5098C275.262 90.4485 275.278 90.3753 275.268 90.3032C275.268 89.9458 275.2 89.4268 275.122 88.7523C274.99 87.9392 274.904 87.1192 274.864 86.296C274.864 85.8117 274.864 85.2928 274.892 84.745C274.9 84.4665 274.928 84.189 274.976 83.9148C275.021 83.6553 275.189 83.3382 275.386 83.3901H275.419C275.616 83.3901 275.773 83.54 275.835 83.7822C275.904 84.0331 275.931 84.2945 275.913 84.5548C276.029 86.1695 276.23 87.7767 276.514 89.3692C276.559 89.5825 276.604 89.8016 276.671 90.0207C276.701 90.1328 276.739 90.2427 276.784 90.3494C276.812 90.4088 276.844 90.4665 276.879 90.5223C276.904 90.5645 276.939 90.6 276.98 90.626C277.021 90.652 277.067 90.6679 277.115 90.6723C277.197 90.663 277.274 90.629 277.337 90.5746C277.4 90.5202 277.446 90.4479 277.469 90.3667C277.517 90.2539 277.553 90.1359 277.575 90.015C277.619 89.7826 277.649 89.5476 277.665 89.3115C277.716 88.3508 277.703 87.3876 277.626 86.4286C277.555 85.9499 277.536 85.4645 277.57 84.9814C277.59 84.7728 277.689 84.5805 277.845 84.4452C277.881 84.4233 277.921 84.4093 277.963 84.4043C278.004 84.3994 278.046 84.4035 278.086 84.4164C278.134 84.4281 278.179 84.4476 278.221 84.4741C278.25 84.496 278.271 84.5261 278.283 84.5605C278.46 85.0281 278.59 85.513 278.67 86.0078C278.771 86.5151 278.856 87.0398 278.934 87.5645C279.013 88.0892 279.086 88.6196 279.147 89.1559C279.196 89.7092 279.282 90.2583 279.406 90.7991C279.472 91.0756 279.557 91.3472 279.658 91.6121C279.716 91.7603 279.795 91.8985 279.894 92.0214C279.932 92.0726 279.983 92.1116 280.042 92.134C280.101 92.1565 280.164 92.1614 280.225 92.1483C280.282 92.129 280.333 92.095 280.374 92.0496C280.414 92.0041 280.442 91.9488 280.456 91.8888C280.522 91.5942 280.543 91.2907 280.517 90.9894C280.517 90.7011 280.484 90.4128 280.456 90.136C280.416 89.6517 280.371 89.1732 280.355 88.7004C280.34 88.468 280.34 88.235 280.355 88.0027C280.366 87.8999 280.39 87.799 280.428 87.7029C280.439 87.6712 280.456 87.6419 280.478 87.6164H280.551C280.922 87.4607 281.045 87.9912 281.146 88.4178C281.247 88.8445 281.287 89.3288 281.376 89.7843C281.522 90.6896 281.713 91.5948 281.809 92.4596C281.874 92.8738 281.859 93.297 281.764 93.7051C281.629 94.1202 281.494 94.5296 281.365 94.9389V94.9793V95.0139C282.023 97.8465 282.861 100.632 283.875 103.351C284.762 105.813 285.655 107.964 286.435 109.694C287.216 111.423 287.923 112.778 288.406 113.689L288.967 114.721C289.028 114.844 289.102 114.96 289.186 115.067C289.139 114.939 289.081 114.816 289.012 114.698L288.451 113.643C287.991 112.715 287.328 111.337 286.564 109.607C285.801 107.877 284.936 105.727 284.072 103.265C283.082 100.549 282.261 97.7723 281.612 94.9504V95.0312C281.741 94.6276 281.871 94.2182 282.005 93.8088C282.122 93.3595 282.145 92.8899 282.073 92.4308C281.972 91.5256 281.786 90.6492 281.64 89.7382C281.556 89.2885 281.5 88.8272 281.41 88.3544C281.404 88.1115 281.365 87.8708 281.292 87.6395C281.228 87.4988 281.119 87.3849 280.983 87.3166C280.839 87.2682 280.684 87.2682 280.54 87.3166H280.45C280.402 87.3322 280.359 87.3577 280.321 87.3915C280.259 87.4458 280.21 87.5152 280.181 87.5933C280.129 87.7181 280.097 87.8504 280.085 87.9854C280.068 88.235 280.068 88.4854 280.085 88.735C280.085 89.2193 280.152 89.7036 280.192 90.1879C280.192 90.4705 280.237 90.7645 280.248 91.024C280.27 91.284 280.257 91.546 280.209 91.8023C280.209 91.86 280.164 91.8485 280.209 91.8773L280.175 91.8427C280.103 91.7485 280.047 91.6435 280.007 91.5314C279.908 91.2819 279.828 91.0257 279.765 90.7645C279.642 90.2394 279.557 89.7055 279.512 89.1674C279.453 88.6254 279.38 88.0892 279.293 87.5587C279.215 87.0283 279.125 86.5094 279.024 85.9905C278.939 85.4623 278.796 84.9458 278.597 84.451C278.559 84.3683 278.498 84.2984 278.423 84.2492C278.358 84.2102 278.288 84.1793 278.215 84.1569C278.135 84.1354 278.052 84.1304 277.97 84.1422C277.888 84.1541 277.809 84.1826 277.738 84.2261C277.622 84.315 277.526 84.4274 277.454 84.5564C277.383 84.6854 277.338 84.8281 277.323 84.9757C277.286 85.2377 277.286 85.5036 277.323 85.7656C277.323 86.0135 277.379 86.2557 277.396 86.4978C277.474 87.4412 277.491 88.3889 277.446 89.3346C277.433 89.5593 277.405 89.7827 277.362 90.0034C277.346 90.1065 277.318 90.2072 277.278 90.3032C277.263 90.3413 277.242 90.3764 277.216 90.407C277.216 90.4589 277.177 90.407 277.182 90.4762C277.182 90.4186 277.182 90.4762 277.182 90.4013C277.158 90.3623 277.135 90.3219 277.115 90.2802C277.076 90.1879 277.042 90.0842 277.008 89.9861C276.947 89.7786 276.902 89.5652 276.857 89.3577C276.564 87.7788 276.352 86.1853 276.222 84.5836C276.239 84.2937 276.207 84.003 276.127 83.7245C276.09 83.5792 276.014 83.4474 275.908 83.344C275.853 83.2895 275.788 83.247 275.716 83.2193C275.645 83.1915 275.569 83.179 275.492 83.1825H275.526C275.431 83.1683 275.334 83.1831 275.247 83.2251C275.16 83.2672 275.087 83.3346 275.038 83.4189C274.954 83.5565 274.897 83.7091 274.869 83.8687C274.822 84.1545 274.796 84.4436 274.791 84.7335C274.791 85.3101 274.791 85.8117 274.791 86.3018C274.844 87.1301 274.947 87.9543 275.099 88.7696C275.195 89.4384 275.268 89.9573 275.301 90.309C275.312 90.3706 275.302 90.4341 275.272 90.4888C275.242 90.5434 275.195 90.5858 275.139 90.6088C274.97 90.6261 274.92 90.6319 274.925 90.6377Z" fill="#A36957"/>
<path d="M238.357 120.06C237.262 120.036 236.168 120.166 235.107 120.447C232.204 121.231 227.201 124.344 226.993 128.19H230.632C230.632 128.19 228.594 132.641 229.189 132.226C230.744 131.154 233.832 127.931 233.832 127.931L238.357 120.06Z" fill="#B78876"/>
<path d="M287.951 53.0449C287.867 53.0449 287.541 49.9659 287.216 46.1259C286.89 42.286 286.688 39.207 286.766 39.207C286.845 39.207 287.176 42.286 287.502 46.1259C287.828 49.9659 288.03 53.0449 287.951 53.0449Z" fill="#263238"/>
<path d="M303.902 39.4433C303.964 39.4894 301.51 43.1507 298.417 47.6192C295.323 52.0876 292.757 55.6912 292.69 55.622C292.622 55.5529 295.082 51.9147 298.175 47.4462C301.269 42.9777 303.835 39.3972 303.902 39.4433Z" fill="#263238"/>
<path d="M310.528 56.0373C310.528 56.118 307.675 56.7926 304.127 57.5421C300.579 58.2917 297.681 58.8337 297.665 58.7529C297.648 58.6722 300.511 57.9976 304.065 57.2481C307.619 56.4985 310.488 55.9565 310.528 56.0373Z" fill="#263238"/>
<path d="M119.591 135.231L99.7155 240.052L97.1328 253.775L229.638 253.117C235.589 253.089 240.867 247.663 242.77 239.602L266.273 140.645C267.727 134.527 264.538 128.162 260.024 128.167L125.88 128.312C122.96 128.306 120.344 131.143 119.591 135.231Z" fill="#2E2C5E"/>
<g opacity="0.5">
<path d="M119.591 135.231L99.7155 240.052L97.1328 253.775L229.638 253.117C235.589 253.089 240.867 247.663 242.77 239.602L266.273 140.645C267.727 134.527 264.538 128.162 260.024 128.167L125.88 128.312C122.96 128.306 120.344 131.143 119.591 135.231Z" fill="black"/>
</g>
<path d="M216.943 232.937L202.907 116.809C202.345 112.052 198.645 108.5 194.283 108.518L163.514 108.616C162.371 108.629 161.242 108.881 160.197 109.357C159.151 109.833 158.211 110.522 157.434 111.383L142.836 127.337L57.2691 127.81C52.0419 127.839 48.0218 132.924 48.7124 138.632L61.7439 245.962C62.3054 250.713 66.0054 254.259 70.3567 254.253L219.509 253.948C236.117 254.299 237.706 249.266 237.706 249.266C218.639 253.596 216.943 232.966 216.943 232.937Z" fill="#2E2C5E"/>
<g opacity="0.5">
<path d="M152.628 209.712L147.597 215.259L108.856 179.465L113.887 173.918L152.628 209.712Z" fill="white"/>
<path d="M145.492 172.69L151.05 177.828L115.998 216.487L110.434 211.35L145.492 172.69Z" fill="white"/>
</g>
<path d="M238.239 59.8371C238.058 59.7584 237.902 59.6283 237.789 59.4618C237.677 59.2954 237.613 59.0996 237.605 58.8972L237.38 53.5466C237.372 53.3804 237.402 53.2145 237.468 53.0621C237.533 52.9098 237.632 52.7751 237.757 52.6689C237.881 52.5626 238.029 52.4876 238.186 52.4498C238.344 52.412 238.508 52.4124 238.666 52.4511C239.101 52.5474 239.55 52.5516 239.987 52.4634C240.423 52.3751 240.837 52.1964 241.204 51.938C241.542 51.7185 241.832 51.4303 242.057 51.0911C242.282 50.752 242.437 50.3691 242.512 49.9661C242.563 49.558 242.534 49.1436 242.426 48.7474C242.318 48.3513 242.133 47.9814 241.883 47.6598C241.62 47.2938 241.289 46.9848 240.91 46.7503C240.53 46.5158 240.109 46.3605 239.671 46.2933C238.788 46.2428 237.914 46.5 237.19 47.0232C236.467 47.5464 235.936 48.305 235.685 49.1762C235.601 49.4401 235.421 49.6607 235.183 49.7919C234.945 49.9231 234.666 49.9549 234.406 49.8806C234.145 49.8063 233.923 49.6316 233.784 49.393C233.646 49.1544 233.603 48.8702 233.664 48.5996C234.046 47.2293 234.875 46.0359 236.013 45.22C237.151 44.4041 238.528 44.0155 239.913 44.1196C240.633 44.2182 241.327 44.4644 241.953 44.8438C242.579 45.2231 243.124 45.7278 243.556 46.3279C243.977 46.884 244.285 47.5211 244.461 48.2015C244.638 48.8819 244.679 49.5917 244.584 50.289C244.456 50.9852 244.191 51.6472 243.805 52.2343C243.419 52.8213 242.92 53.3209 242.338 53.7023C241.496 54.2847 240.512 54.6141 239.497 54.6536L239.671 58.7819C239.678 58.9633 239.64 59.1434 239.56 59.3056C239.481 59.4678 239.363 59.6068 239.217 59.7097C239.072 59.8127 238.903 59.8762 238.727 59.8944C238.552 59.9126 238.374 59.885 238.211 59.814L238.239 59.8371Z" fill="#2E2C5E"/>
<path d="M239.778 62.0282C239.79 62.2023 239.751 62.3761 239.667 62.5276C239.582 62.6791 239.456 62.8015 239.304 62.8793C239.152 62.9571 238.981 62.9868 238.812 62.9646C238.643 62.9424 238.485 62.8694 238.357 62.7547C238.229 62.6401 238.136 62.489 238.092 62.3205C238.047 62.1521 238.053 61.9738 238.107 61.8084C238.161 61.643 238.262 61.4977 238.396 61.3911C238.531 61.2845 238.693 61.2213 238.863 61.2095C238.975 61.2008 239.089 61.2152 239.196 61.2518C239.303 61.2884 239.402 61.3465 239.487 61.4226C239.572 61.4988 239.642 61.5915 239.692 61.6954C239.741 61.7994 239.771 61.9125 239.778 62.0282Z" fill="#2E2C5E"/>
<path d="M220.2 52.2898C220.224 52.1758 220.241 52.0602 220.25 51.9439C220.25 51.6902 220.312 51.3673 220.357 50.9118C220.412 50.3526 220.504 49.7978 220.632 49.2513C220.705 48.9284 220.744 48.5709 220.857 48.2077C220.969 47.8444 221.081 47.4523 221.205 47.0545C221.855 45.0833 222.802 43.2292 224.012 41.5597C225.598 39.3979 227.608 37.6025 229.913 36.2898C231.225 35.5303 232.622 34.9378 234.073 34.5255C235.64 34.0991 237.253 33.882 238.874 33.8797C239.728 33.8657 240.581 33.9119 241.429 34.0181C241.861 34.0642 242.288 34.1796 242.72 34.2545C243.157 34.3314 243.589 34.4393 244.011 34.5774C245.781 35.0853 247.464 35.8689 249.003 36.901C252.423 39.1792 255.029 42.5388 256.425 46.4722C257.177 48.5791 257.558 50.8069 257.548 53.0509C257.571 55.3626 257.173 57.6584 256.375 59.8199L256.122 60.4772L256.088 60.5637L256.122 60.6502C257.531 63.977 258.929 67.2462 260.249 70.4116L260.485 70.1349L252.063 66.8196L251.962 66.7792L251.877 66.8599C249.649 69.0767 246.922 70.693 243.938 71.5648C241.389 72.2856 238.719 72.4429 236.106 72.0265C233.493 71.6101 230.996 70.6293 228.779 69.1489C226.963 67.9261 225.363 66.3957 224.046 64.6228C222.137 62.035 220.901 58.9915 220.452 55.7781C220.385 55.2015 220.329 54.7172 220.278 54.279C220.228 53.8408 220.278 53.4833 220.25 53.1778C220.222 52.8722 220.25 52.6704 220.25 52.5032C220.278 52.4988 220.304 52.4837 220.321 52.461C220.339 52.4382 220.347 52.4095 220.345 52.3805C220.343 52.3515 220.331 52.3244 220.31 52.3046C220.289 52.2848 220.262 52.2738 220.233 52.2738C220.205 52.2738 220.178 52.2848 220.157 52.3046C220.136 52.3244 220.124 52.3515 220.121 52.3805C220.119 52.4095 220.128 52.4382 220.146 52.461C220.163 52.4837 220.189 52.4988 220.217 52.5032C220.217 52.6704 220.217 52.8952 220.217 53.1778C220.217 53.4603 220.217 53.8523 220.217 54.2905C220.217 54.7287 220.312 55.2304 220.368 55.8012C220.553 57.188 220.875 58.5519 221.328 59.8718C221.971 61.6149 222.836 63.2628 223.9 64.7727C225.222 66.5772 226.834 68.1371 228.667 69.3853C230.911 70.9027 233.444 71.9126 236.097 72.348C238.75 72.7834 241.463 72.6343 244.056 71.9107C247.076 71.03 249.837 69.3982 252.096 67.1597L251.911 67.2001L260.333 70.5327L260.754 70.6999L260.569 70.2559C259.233 67.0905 257.851 63.8271 256.448 60.4945V60.6617L256.706 59.9871C257.525 57.7785 257.933 55.4315 257.907 53.0682C257.925 50.7765 257.545 48.5 256.785 46.3453C255.358 42.3336 252.694 38.9101 249.199 36.5954C247.622 35.5392 245.895 34.7417 244.079 34.2314C243.649 34.0918 243.21 33.9858 242.765 33.9143C242.327 33.8336 241.895 33.7183 241.457 33.6779C240.598 33.5685 239.733 33.5184 238.868 33.528C237.222 33.5352 235.583 33.7639 233.995 34.2084C232.524 34.6373 231.109 35.2451 229.778 36.0188C227.45 37.3637 225.427 39.2013 223.844 41.4098C222.637 43.1069 221.703 44.9911 221.076 46.9911C220.958 47.4062 220.845 47.8041 220.744 48.1442C220.655 48.4918 220.584 48.844 220.531 49.1994C220.411 49.7497 220.332 50.3087 220.295 50.8714C220.261 51.3154 220.239 51.6556 220.222 51.9093C220.199 52.0346 220.191 52.1625 220.2 52.2898Z" fill="#263238"/>
</svg>
