<svg width="586" height="557" viewBox="0 0 586 557" fill="none" xmlns="http://www.w3.org/2000/svg">
<path d="M283.226 527.29L208.253 527.724L213.152 456.907L275.139 456.862L283.226 527.29Z" fill="#EBEBEB"/>
<path d="M263.548 457.308C263.489 457.308 263.478 456.528 263.267 455.136C262.997 453.168 262.494 451.236 261.767 449.376C260.742 446.614 259.066 444.11 256.868 442.058C254.109 439.599 250.452 438.257 246.671 438.314C242.892 438.297 239.242 439.615 236.428 442.013C234.22 444.057 232.567 446.58 231.611 449.365C230.947 451.248 230.46 453.183 230.158 455.147C229.947 456.54 229.865 457.308 229.818 457.308C229.79 457.12 229.79 456.928 229.818 456.74C229.818 456.361 229.818 455.815 229.935 455.114C230.147 453.116 230.576 451.145 231.212 449.232C232.14 446.352 233.807 443.737 236.065 441.623C238.962 439.102 242.754 437.713 246.683 437.735C250.605 437.685 254.391 439.097 257.231 441.668C259.476 443.789 261.163 446.384 262.153 449.243C262.85 451.14 263.295 453.112 263.478 455.114C263.539 455.654 263.566 456.197 263.56 456.74C263.586 456.929 263.582 457.12 263.548 457.308Z" fill="#E0E0E0"/>
<path d="M226.735 457.308C226.911 457.308 226.337 473.071 225.469 492.488C224.602 511.905 223.77 527.646 223.594 527.635C223.418 527.624 223.993 511.883 224.86 492.455C225.727 473.027 226.571 457.297 226.735 457.308Z" fill="#E0E0E0"/>
<path d="M67.6243 443.572C63.5403 441.128 58.922 439.604 54.1229 439.116C51.9078 438.905 49.5052 438.961 47.7355 440.23C47.5302 440.343 47.3601 440.506 47.2427 440.701C47.1253 440.897 47.0648 441.119 47.0675 441.344C47.1755 441.661 47.4002 441.93 47.7003 442.102C50.5674 444.046 53.9395 445.208 57.4515 445.462C60.9635 445.715 64.4814 445.05 67.6243 443.539" fill="#E0E0E0"/>
<path d="M67.2731 443.205C64.1585 441.024 61.2559 438.582 58.6003 435.908C55.9145 433.224 54.0259 429.91 53.1271 426.306C52.9511 425.771 52.8987 425.206 52.9735 424.651C53.0484 424.095 53.2487 423.561 53.5607 423.086C60.5107 428.244 65.9722 434.917 67.32 443.205" fill="#E0E0E0"/>
<path d="M67.5544 443.517C66.9084 439.91 66.96 436.222 67.7067 432.633C68.4918 429.015 70.6798 425.81 73.8363 423.654C75.0083 426.328 74.516 429.402 73.6722 432.187C72.3562 436.507 70.314 440.596 67.6247 444.297" fill="#E0E0E0"/>
<path d="M74.3641 455.125C70.2717 455.749 66.4862 457.572 63.5348 460.338C60.4314 463.024 58.2712 466.551 57.3467 470.442C61.4018 470.208 64.8475 467.49 67.3438 464.438C69.8402 461.385 71.563 458.043 74.3055 455.191" fill="#E0E0E0"/>
<path d="M75.8403 456.985C74.2126 453.053 73.6431 448.797 74.1834 444.603C74.7237 440.409 76.3567 436.41 78.9344 432.967C81.2784 440.943 80.4228 449.945 75.8403 456.985Z" fill="#E0E0E0"/>
<path d="M84.8533 467.178C81.0705 466.95 77.3009 467.787 74.0157 469.584C70.7305 471.381 68.0755 474.059 66.3826 477.282C66.1599 477.717 65.949 478.262 66.2537 478.652C66.4063 478.794 66.5922 478.899 66.7959 478.959C66.9997 479.019 67.2155 479.032 67.4257 478.998C71.0589 478.775 74.2936 476.692 76.954 474.319C79.6145 471.946 81.935 469.217 84.8768 467.167" fill="#E0E0E0"/>
<path d="M84.5598 466.621C82.6263 460.689 82.5084 454.356 84.2199 448.363C84.8996 446.012 86.0365 443.539 88.3219 442.436C88.4119 442.378 88.5135 442.339 88.6203 442.32C88.7272 442.3 88.837 442.302 88.943 442.325C89.1301 442.415 89.273 442.571 89.3415 442.759C90.1075 444.408 90.4413 446.208 90.3143 448.006C90.1703 449.793 89.8803 451.565 89.447 453.309C88.7204 456.551 88.3453 459.993 86.4701 462.822C86.0338 463.497 85.6423 464.196 85.2981 464.917C84.9348 465.63 84.9348 465.875 84.6183 466.443" fill="#E0E0E0"/>
<path d="M108.398 469.997C107.599 466.664 107.572 463.205 108.321 459.862C109.07 456.518 110.576 453.37 112.735 450.635C113.051 450.257 113.461 449.833 113.977 449.878C114.75 449.956 114.95 450.992 114.915 451.682C114.598 458.248 112.339 464.596 108.398 469.997Z" fill="#E0E0E0"/>
<path d="M110.543 471.389C114.713 472.325 119.047 472.389 123.246 471.578C127.444 470.766 131.408 469.098 134.862 466.688C130.793 464.746 126.141 464.207 121.7 465.162C117.322 465.914 113.367 468.121 110.543 471.389Z" fill="#E0E0E0"/>
<path d="M112.36 467.145C114.774 463.614 118.031 460.674 121.866 458.566C125.701 456.458 130.005 455.241 134.429 455.013C133.832 456.678 132.884 458.21 131.643 459.514C130.401 460.819 128.893 461.869 127.21 462.6C123.852 464.034 120.303 465.024 116.662 465.541C115.255 465.808 113.321 466.086 112.407 467.145" fill="#E0E0E0"/>
<path d="M108.856 446.513C110.237 442.532 111.179 438.426 111.669 434.259C112.156 430.057 111.259 425.814 109.102 422.117C106.927 425.921 105.757 430.17 105.691 434.5C105.626 438.829 106.668 443.108 108.727 446.97" fill="#E0E0E0"/>
<path d="M123.225 439.607C128.217 430.984 138.461 424.089 148.716 423.131C144.743 432.533 133.89 439.841 123.225 439.607Z" fill="#E0E0E0"/>
<path d="M120.083 441.3C127.537 442.414 133.877 446.87 140.839 449.633C142.296 450.304 143.912 450.6 145.527 450.49C146.282 450.491 147.019 450.27 147.637 449.858C148.255 449.446 148.724 448.863 148.981 448.188C149.237 447.513 149.268 446.779 149.07 446.086C148.871 445.394 148.452 444.777 147.871 444.319C146.886 443.45 145.726 442.779 144.461 442.347C136.889 439.35 128.756 439.272 120.774 441.099" fill="#E0E0E0"/>
<path d="M115.782 446.257C117.458 446.725 118.032 447.549 119.369 448.63C123.925 452.306 129.311 454.936 135.109 456.317C135.706 456.45 136.491 456.506 136.796 455.994C137.101 455.481 136.726 455.002 136.386 454.601C133.86 451.781 130.58 449.66 126.893 448.463C123.26 447.182 120.107 445.633 115.782 445.968" fill="#E0E0E0"/>
<path d="M110.918 416.28C113.969 418.955 117.576 420.994 121.506 422.266C125.435 423.538 129.602 424.015 133.737 423.665C134.118 423.677 134.489 423.554 134.78 423.32C135.354 422.73 134.663 421.805 133.995 421.315C127.291 416.335 119.157 414.274 110.918 416.291" fill="#E0E0E0"/>
<path d="M116.685 414.274C120.725 411.448 125.412 409.571 130.362 408.796C135.311 408.022 140.384 408.372 145.164 409.818C141.447 413.12 136.664 415.131 131.592 415.522C126.588 415.963 121.541 415.559 116.685 414.33" fill="#E0E0E0"/>
<path d="M114.387 400.494C113.731 394.133 114.153 389.098 113.696 382.67C113.696 382.158 113.543 381.556 113.039 381.367C112.336 381.099 111.75 381.924 111.516 382.603C110.541 385.57 110.293 388.708 110.788 391.78C111.284 394.851 112.511 397.775 114.376 400.327" fill="#E0E0E0"/>
<path d="M113.907 401.196C118.284 398.511 122.056 395.028 125.006 390.947C127.198 388.095 129.038 384.686 128.522 381.188C126.978 381.223 125.461 381.579 124.078 382.231C122.695 382.884 121.479 383.817 120.517 384.965C118.604 387.267 117.215 389.923 116.439 392.763C115.548 395.57 114.927 398.444 113.884 401.196" fill="#E0E0E0"/>
<path d="M124.807 398.322C134.797 394.809 144.045 389.625 152.114 383.015C148.856 381.768 145.082 382.514 141.859 383.762C134.458 386.428 128.341 391.58 124.666 398.244" fill="#E0E0E0"/>
<path d="M116.966 404.683C121.994 405.368 127.097 405.39 132.131 404.75C137.017 403.792 141.768 402.297 146.289 400.294C146.69 400.187 147.033 399.94 147.25 399.603C147.307 399.405 147.305 399.197 147.245 399.001C147.185 398.804 147.069 398.627 146.91 398.489C146.567 398.23 146.166 398.047 145.738 397.954C140.681 396.803 135.378 397.106 130.502 398.823C125.817 400.344 121.311 402.327 117.06 404.738" fill="#E0E0E0"/>
<path d="M88.1812 416.502C86.5548 413.206 85.6884 409.617 85.6399 405.976C85.5913 402.335 86.3619 398.727 87.8999 395.392C89.9978 398.422 90.2439 402.277 89.8689 405.886C89.4938 409.495 88.3335 413.205 88.2515 416.825" fill="#E0E0E0"/>
<path d="M74.4458 409.952C70.1392 409.897 65.8679 410.697 61.906 412.303C57.9441 413.909 54.379 416.284 51.4395 419.276C55.7797 419.767 60.1743 418.99 64.0385 417.048C67.8712 415.113 71.4877 412.814 74.8326 410.186" fill="#E0E0E0"/>
<path d="M65.2103 406.978C61.0028 406.655 57.0063 406.153 52.9278 407.334C50.8848 407.873 48.9889 408.827 47.3704 410.128C45.7519 411.43 44.4491 413.05 43.5518 414.876C47.5209 415.186 51.5045 414.474 55.0842 412.815C58.6366 411.155 62.0289 409.201 65.222 406.978" fill="#E0E0E0"/>
<path d="M78.8874 407.111C75.1018 404.75 71.2225 402.354 66.8275 401.385C62.4325 400.416 57.3226 401.129 54.252 404.282C57.768 406.265 62.1395 406.51 66.265 406.51C70.3904 406.51 75.4652 406.51 79.3562 407.769" fill="#E0E0E0"/>
<path d="M78.9109 407.301C72.4414 401.263 69.9919 390.435 72.5938 382.191C77.6907 389.615 79.9231 398.488 78.9109 407.301Z" fill="#E0E0E0"/>
<path d="M96.667 390.212C97.839 387.516 98.7532 384.642 99.8431 381.946C100.819 379.157 102.333 376.565 104.308 374.304C106.331 372.045 109.205 370.629 112.313 370.36C111.32 374.516 109.426 378.428 106.753 381.848C104.079 385.269 100.684 388.121 96.7842 390.223" fill="#E0E0E0"/>
<path d="M93.4559 393.766C91.44 391.137 89.1078 387.549 86.4239 385.578C85.0883 384.538 83.5301 383.788 81.858 383.38C80.186 382.972 78.4404 382.916 76.7432 383.216C78.473 386.092 80.8839 388.546 83.7848 390.383C86.6857 392.22 89.9969 393.39 93.4559 393.799" fill="#E0E0E0"/>
<path d="M94.0998 390.435C92.654 387.287 91.5847 383.995 90.912 380.62C90.2337 377.201 90.8043 373.664 92.5293 370.594C96.0453 376.966 97.2173 383.806 94.2756 390.457" fill="#E0E0E0"/>
<path d="M96.7022 370.639C98.718 364.278 104.801 359.677 111.34 357.594C112.153 357.279 113.033 357.153 113.907 357.226C114.347 357.266 114.765 357.427 115.109 357.691C115.452 357.954 115.707 358.308 115.841 358.708C116.075 359.822 115.138 360.747 114.259 361.46C109.118 365.634 103.137 368.769 96.6787 370.672" fill="#E0E0E0"/>
<path d="M96.7725 365.47C96.8389 361.385 97.4854 357.326 98.6945 353.405C100.089 349.551 102.773 345.93 106.688 344.237C107.344 348.359 105.434 352.447 103.172 355.99C100.91 359.532 98.0968 362.874 96.7021 366.818" fill="#E0E0E0"/>
<path d="M96.6669 368.277C95.0144 363.676 94.8386 357.828 91.9789 353.795C89.9513 350.988 86.7049 349.083 84.9469 346.109C83.8928 348.956 84.0355 352.081 85.3454 354.831C86.6692 357.548 88.4862 360.022 90.7131 362.139C92.8579 364.311 94.6979 365.949 96.6903 368.255" fill="#E0E0E0"/>
<path d="M96.7021 503.862C96.5732 503.862 96.4677 473.149 96.456 435.273C96.4443 397.397 96.5497 366.673 96.6669 366.673C96.7841 366.673 96.913 397.386 96.9248 435.273C96.9365 473.16 96.831 503.862 96.7021 503.862Z" fill="#E0E0E0"/>
<path d="M124.947 411.868C124.568 412.035 124.176 412.177 123.775 412.291L120.435 413.405C117.611 414.319 113.743 415.633 109.536 417.271C105.328 418.909 101.449 420.346 99.2102 422.184C98.3173 422.894 97.6077 423.79 97.1358 424.802C96.8193 425.515 96.7607 425.916 96.7138 425.916C96.7009 425.808 96.7009 425.7 96.7138 425.593C96.7635 425.289 96.842 424.991 96.9482 424.701C97.37 423.627 98.0669 422.67 98.9758 421.916C100.323 420.831 101.832 419.941 103.453 419.276C105.246 418.485 107.227 417.65 109.313 416.825C113.532 415.188 117.435 413.907 120.283 413.071C121.701 412.648 122.873 412.336 123.67 412.135C124.085 412.005 124.513 411.916 124.947 411.868Z" fill="#E0E0E0"/>
<path d="M134.194 390.256C134.095 390.383 133.981 390.499 133.854 390.602L132.823 391.526L128.944 394.868L116.052 405.774C111.024 410.03 106.676 414.096 103.664 417.148C102.163 418.686 100.968 419.945 100.148 420.836L99.21 421.849C98.999 422.072 98.8818 422.195 98.8584 422.184C98.9385 422.045 99.0327 421.915 99.1397 421.794C99.3389 421.549 99.6202 421.181 100.007 420.68C100.78 419.755 101.929 418.452 103.417 416.892C107.318 412.891 111.438 409.087 115.759 405.496C120.798 401.252 125.392 397.442 128.733 394.69L132.706 391.448L133.796 390.591C133.911 390.461 134.045 390.349 134.194 390.256Z" fill="#E0E0E0"/>
<path d="M110.637 410.097C110.508 410.041 111.551 407.735 112.606 404.816C113.661 401.898 114.153 399.447 114.293 399.469C114.18 401.351 113.757 403.204 113.039 404.961C112.597 406.219 112.077 407.45 111.481 408.649C111.275 409.168 110.991 409.656 110.637 410.097Z" fill="#E0E0E0"/>
<path d="M96.7374 428.689C96.4515 428.428 96.1925 428.14 95.9638 427.832L93.9714 425.414C92.3072 423.365 89.9983 420.535 87.4199 417.438C84.8415 414.341 82.4624 411.567 80.7396 409.562C79.9192 408.604 79.2394 407.802 78.712 407.167C78.4485 406.888 78.213 406.586 78.0088 406.265C78.3159 406.498 78.595 406.764 78.8409 407.056C79.3683 407.59 80.095 408.381 80.9857 409.362C82.7788 411.311 85.1932 414.063 87.7833 417.16C90.3734 420.256 92.6354 423.119 94.241 425.225C95.038 426.272 95.6826 427.13 96.1045 427.731C96.3491 428.03 96.5611 428.351 96.7374 428.689Z" fill="#E0E0E0"/>
<path d="M90.5489 421.092C89.2848 419.795 88.3753 418.223 87.9002 416.513C87.4151 415.011 87.2167 413.437 87.3142 411.868H87.5251C87.4314 412.224 87.361 412.414 87.3259 412.403C87.2907 412.392 87.3259 412.202 87.3259 411.835H87.5368C87.6335 413.366 87.9087 414.883 88.3572 416.357C88.9613 417.986 89.6939 419.568 90.5489 421.092Z" fill="#E0E0E0"/>
<path d="M82.5562 411.578C81.9971 411.173 81.3868 410.837 80.7396 410.576C79.1106 410.113 77.397 409.984 75.7117 410.197C74.0048 410.322 72.3115 410.579 70.6487 410.966C69.9663 411.173 69.2691 411.333 68.5625 411.445C69.183 411.094 69.8543 410.831 70.5549 410.665C72.2212 410.181 73.939 409.875 75.6765 409.751C77.4272 409.527 79.2091 409.71 80.8685 410.286C81.5697 410.521 82.1652 410.977 82.5562 411.578Z" fill="#E0E0E0"/>
<path d="M80.6574 409.261C80.6574 409.328 79.6026 408.86 77.8797 408.303C73.3871 406.834 68.5729 406.485 63.8978 407.289C62.1163 407.59 61.0264 407.902 61.0029 407.835C61.2312 407.699 61.4803 407.598 61.7413 407.535C62.4274 407.307 63.1281 407.121 63.8392 406.978C68.5619 405.99 73.4861 406.346 77.9969 408.002C78.6766 408.246 79.3383 408.532 79.9776 408.86C80.2238 408.961 80.4529 409.096 80.6574 409.261Z" fill="#E0E0E0"/>
<path d="M96.6664 399.469C95.8559 397.281 95.1827 395.049 94.6506 392.785C93.9707 390.555 93.4461 388.285 93.0801 385.99C93.897 388.176 94.5703 390.408 95.0959 392.674C95.7758 394.904 96.3004 397.174 96.6664 399.469Z" fill="#E0E0E0"/>
<path d="M96.7955 399.469C96.1588 398.08 95.4104 396.739 94.557 395.459C93.6105 394.251 92.5035 393.166 91.2637 392.228C91.7312 392.339 92.1648 392.553 92.5294 392.852C93.463 393.507 94.2751 394.305 94.932 395.214C95.9384 396.451 96.5815 397.919 96.7955 399.469Z" fill="#E0E0E0"/>
<path d="M96.7024 487.486C96.7024 487.486 96.5617 486.751 96.1984 485.448C95.6597 483.615 94.9375 481.836 94.0419 480.134C90.9262 474.576 87.0741 469.421 82.5798 464.794C80.0248 462.009 77.5402 459.391 75.4306 456.885C73.5399 454.678 71.8316 452.335 70.3207 449.878C69.3105 448.215 68.4481 446.475 67.7423 444.675C67.5079 444.04 67.3321 443.561 67.2383 443.194C67.1656 443.023 67.1221 442.843 67.1094 442.659C67.1094 442.659 67.3789 443.361 67.9181 444.62C68.6776 446.384 69.5788 448.089 70.6137 449.722C72.1551 452.139 73.8785 454.448 75.7705 456.629C77.8801 459.113 80.3647 461.72 82.9314 464.493C87.452 469.145 91.2881 474.358 94.3349 479.989C95.2175 481.719 95.9012 483.534 96.3742 485.403C96.498 485.914 96.5919 486.431 96.6555 486.952C96.6971 487.127 96.7129 487.307 96.7024 487.486Z" fill="#E0E0E0"/>
<path d="M122.217 460.082C121.79 460.351 121.344 460.589 120.881 460.795C119.654 461.457 118.479 462.202 117.365 463.023C115.744 464.224 114.224 465.542 112.817 466.966C111.212 468.582 109.571 470.442 107.883 472.436C104.531 476.447 101.378 479.989 99.5032 482.83C98.5422 484.234 97.8507 485.414 97.3936 486.239C97.1843 486.684 96.9374 487.112 96.6553 487.52C96.6856 487.397 96.7288 487.278 96.7842 487.163C96.878 486.929 97.0186 486.595 97.2296 486.172C97.8168 484.964 98.4822 483.792 99.222 482.663C101.775 479.014 104.545 475.506 107.52 472.158C109.207 470.164 110.872 468.292 112.501 466.688C113.947 465.26 115.515 463.948 117.189 462.767C118.32 461.98 119.52 461.287 120.775 460.695C121.22 460.483 121.584 460.349 121.818 460.249L122.217 460.082Z" fill="#E0E0E0"/>
<path d="M122.721 468.994C121.791 469.19 120.847 469.321 119.896 469.384C117.625 469.604 115.381 470.025 113.192 470.643C111.029 471.309 109 472.319 107.192 473.628C105.809 474.653 105.152 475.489 105.094 475.444C105.035 475.4 105.199 475.199 105.504 474.82C105.943 474.297 106.438 473.819 106.981 473.394C108.771 471.975 110.832 470.897 113.052 470.219C115.269 469.603 117.554 469.229 119.861 469.105C120.809 468.986 121.766 468.948 122.721 468.994Z" fill="#E0E0E0"/>
<path d="M105.913 474.453C105.761 474.375 107.085 472.525 108.023 469.997C108.961 467.468 109.195 465.284 109.336 465.307C109.421 465.782 109.421 466.268 109.336 466.744C109.202 467.903 108.927 469.043 108.515 470.141C108.086 471.233 107.536 472.279 106.874 473.261C106.627 473.707 106.302 474.11 105.913 474.453Z" fill="#E0E0E0"/>
<path d="M130.479 436.242C130.342 436.335 130.192 436.41 130.034 436.465L128.709 437.044C128.123 437.278 127.42 437.579 126.623 437.98C125.826 438.381 124.889 438.771 123.916 439.328L122.381 440.164C121.842 440.453 121.314 440.799 120.752 441.133C119.58 441.79 118.478 442.592 117.236 443.417C112.029 447.101 107.489 451.567 103.793 456.64C102.972 457.832 102.152 458.935 101.449 459.982C101.121 460.528 100.769 461.096 100.476 461.564L99.6556 463.056C99.1047 463.992 98.718 464.894 98.3312 465.663C97.9445 466.432 97.6515 467.111 97.4171 467.679L96.9366 468.994C96.8824 469.147 96.8075 469.293 96.7139 469.428C96.7443 469.268 96.7914 469.112 96.8545 468.961L97.335 467.646C97.5343 467.078 97.8038 466.387 98.1672 465.596C98.5305 464.805 98.9055 463.903 99.4446 462.945C99.7025 462.466 99.972 461.953 100.242 461.43C100.511 460.906 100.863 460.383 101.191 459.826C101.836 458.712 102.644 457.598 103.465 456.395C107.141 451.237 111.719 446.716 117.001 443.027C118.173 442.202 119.345 441.4 120.517 440.799C121.091 440.464 121.689 440.13 122.17 439.841L123.74 439.027C124.725 438.493 125.674 438.103 126.483 437.735C127.291 437.367 128.018 437.078 128.604 436.855L129.975 436.365C130.315 436.276 130.479 436.22 130.479 436.242Z" fill="#E0E0E0"/>
<path d="M110.285 449.098C110.495 448.471 110.904 447.922 111.457 447.527C112.701 446.499 114.286 445.92 115.934 445.89C117.542 445.89 119.135 446.189 120.622 446.77C121.255 446.96 121.856 447.237 122.404 447.594C121.758 447.466 121.123 447.291 120.505 447.07C119.03 446.589 117.482 446.34 115.922 446.335C114.377 446.367 112.883 446.867 111.656 447.761C111.171 448.18 110.713 448.626 110.285 449.098Z" fill="#E0E0E0"/>
<path d="M107.273 452.061C107.87 450.807 108.296 449.486 108.539 448.129C108.635 446.756 108.541 445.378 108.258 444.029C108.521 444.358 108.701 444.739 108.785 445.143C109.333 447.121 109.073 449.222 108.059 451.025C107.66 451.738 107.32 452.095 107.273 452.061Z" fill="#E0E0E0"/>
<path d="M74.3867 491.887C75.0899 503.628 78.8052 515.57 84.5245 527.635H109.418C114.879 515.682 118.337 503.762 118.958 491.887H74.3867Z" fill="#E0E0E0"/>
<path d="M114.927 510.88C114.927 511.003 106.723 511.103 96.6201 511.103C86.5175 511.103 78.3135 511.003 78.3135 510.88C78.3135 510.758 86.5175 510.658 96.6201 510.658C106.723 510.658 114.927 510.758 114.927 510.88Z" fill="#FAFAFA"/>
<path d="M114.364 515.136C114.364 515.258 106.687 515.359 97.2059 515.359C87.7245 515.359 80.0479 515.258 80.0479 515.136C80.0479 515.013 87.7362 514.913 97.2059 514.913C106.676 514.913 114.364 515.013 114.364 515.136Z" fill="#FAFAFA"/>
<path d="M84.9346 499.596C85.2471 503.221 85.2471 506.865 84.9346 510.49C84.6221 506.865 84.6221 503.221 84.9346 499.596Z" fill="#FAFAFA"/>
<path d="M98.2608 499.596C98.5733 503.351 98.5733 507.125 98.2608 510.88C97.9639 507.124 97.9639 503.352 98.2608 499.596Z" fill="#FAFAFA"/>
<path d="M110.789 499.506C111.102 503.337 111.102 507.184 110.789 511.014C110.477 507.184 110.477 503.337 110.789 499.506Z" fill="#FAFAFA"/>
<path d="M118.161 499.596C118.161 499.718 108.55 499.818 96.7015 499.818C84.8526 499.818 75.2305 499.718 75.2305 499.596C75.2305 499.473 84.8409 499.373 96.7015 499.373C108.562 499.373 118.161 499.473 118.161 499.596Z" fill="#FAFAFA"/>
<path d="M535.382 127.553H528.385V270.613H535.382V127.553Z" fill="#E0E0E0"/>
<path d="M527.213 128.667H426.937C426.878 128.667 426.831 128.712 426.831 128.767V270.724C426.831 270.78 426.878 270.825 426.937 270.825H527.213C527.271 270.825 527.318 270.78 527.318 270.724V128.767C527.318 128.712 527.271 128.667 527.213 128.667Z" fill="#F5F5F5"/>
<path d="M528.385 271.927H425.765C425.739 271.925 425.715 271.913 425.698 271.894C425.68 271.876 425.671 271.852 425.671 271.827V127.653C425.671 127.628 425.68 127.605 425.698 127.586C425.715 127.567 425.739 127.556 425.765 127.553H528.385C528.411 127.556 528.435 127.567 528.452 127.586C528.469 127.605 528.479 127.628 528.479 127.653V271.816C528.48 271.829 528.479 271.843 528.475 271.855C528.472 271.868 528.465 271.88 528.456 271.89C528.448 271.901 528.437 271.909 528.425 271.916C528.412 271.922 528.399 271.926 528.385 271.927ZM428.097 269.699H526.053C526.066 269.701 526.079 269.7 526.092 269.696C526.105 269.692 526.117 269.686 526.127 269.678C526.137 269.669 526.145 269.659 526.15 269.647C526.156 269.636 526.158 269.623 526.158 269.61V129.87C526.158 129.844 526.147 129.818 526.127 129.799C526.107 129.78 526.081 129.77 526.053 129.77H428.097C428.084 129.77 428.07 129.772 428.058 129.778C428.046 129.783 428.035 129.79 428.026 129.8C428.017 129.809 428.011 129.82 428.007 129.833C428.003 129.845 428.001 129.857 428.003 129.87V269.588C427.991 269.601 427.984 269.618 427.984 269.635C427.983 269.653 427.989 269.67 427.999 269.684C428.01 269.698 428.026 269.709 428.043 269.713C428.061 269.718 428.08 269.717 428.097 269.711V269.699Z" fill="#EBEBEB"/>
<path d="M517.262 137.434H437.051C436.993 137.434 436.945 137.479 436.945 137.534V261.857C436.945 261.912 436.993 261.957 437.051 261.957H517.262C517.321 261.957 517.368 261.912 517.368 261.857V137.534C517.368 137.479 517.321 137.434 517.262 137.434Z" fill="#FAFAFA"/>
<path d="M499.589 172.737H454.572C454.533 172.737 454.502 172.767 454.502 172.804V222.978C454.502 223.015 454.533 223.045 454.572 223.045H499.589C499.628 223.045 499.659 223.015 499.659 222.978V172.804C499.659 172.767 499.628 172.737 499.589 172.737Z" fill="#EBEBEB"/>
<path d="M496.084 216.885C496.143 217.052 493.904 217.999 489.674 217.509C487.066 217.189 484.586 216.246 482.466 214.768C479.574 212.729 477.579 209.745 476.864 206.391C476.445 204.295 476.621 202.13 477.373 200.12C478.124 198.109 479.425 196.325 481.141 194.95C482.112 194.183 483.209 193.573 484.388 193.145C485.686 192.686 487.081 192.533 488.455 192.7C489.963 192.839 491.386 193.428 492.522 194.382C493.149 194.945 493.622 195.645 493.9 196.422C494.178 197.199 494.252 198.028 494.115 198.838C493.802 200.311 493.026 201.659 491.889 202.703C490.883 203.647 489.738 204.446 488.49 205.076C485.999 206.404 483.22 207.166 480.368 207.304C477.357 207.46 474.361 206.812 471.719 205.433C468.991 203.987 466.777 201.804 465.355 199.161C463.876 196.461 463.461 193.348 464.183 190.383C464.895 187.515 466.609 184.962 469.046 183.142C470.268 182.249 471.656 181.584 473.137 181.181C474.637 180.803 476.209 180.757 477.731 181.047C479.341 181.336 480.806 182.119 481.903 183.275C482.953 184.46 483.53 185.959 483.532 187.509C483.55 188.924 483.174 190.319 482.442 191.552C481.775 192.668 480.906 193.664 479.876 194.493C478.005 195.985 475.825 197.086 473.477 197.724C471.295 198.331 469.003 198.498 466.749 198.214C464.65 197.941 462.645 197.213 460.889 196.086C459.38 195.142 458.1 193.902 457.136 192.45C456.172 190.997 455.546 189.366 455.299 187.664C454.991 185.093 455.729 182.506 457.362 180.435C458.341 179.151 459.67 178.146 461.206 177.527C462.26 177.148 462.858 177.159 462.882 177.26C462.905 177.36 462.401 177.616 461.546 178.162C460.329 178.954 459.312 179.993 458.569 181.203C457.412 183.06 456.996 185.251 457.397 187.375C457.698 188.745 458.296 190.04 459.151 191.179C460.006 192.318 461.101 193.276 462.366 193.992C463.904 194.846 465.619 195.372 467.392 195.531C469.165 195.691 470.954 195.481 472.633 194.917C474.525 194.345 476.272 193.408 477.766 192.165C478.488 191.613 479.072 190.917 479.477 190.125C479.882 189.334 480.099 188.467 480.11 187.586C480.091 186.784 479.769 186.016 479.203 185.42C478.638 184.825 477.865 184.443 477.028 184.345C476.045 184.173 475.035 184.219 474.074 184.478C473.063 184.772 472.117 185.24 471.285 185.86C469.524 187.215 468.288 189.088 467.769 191.185C467.254 193.339 467.561 195.598 468.636 197.557C469.719 199.577 471.408 201.248 473.488 202.358C475.533 203.427 477.849 203.94 480.18 203.84C482.479 203.751 484.727 203.168 486.755 202.135C487.708 201.662 488.591 201.07 489.381 200.375C490.024 199.826 490.485 199.109 490.705 198.314C490.771 198.017 490.757 197.708 490.663 197.418C490.568 197.127 490.397 196.864 490.166 196.654C489.56 196.144 488.802 195.825 487.998 195.741C487.136 195.619 486.257 195.691 485.431 195.953C484.583 196.239 483.791 196.656 483.087 197.189C481.725 198.216 480.672 199.567 480.035 201.104C479.397 202.641 479.196 204.311 479.454 205.945C479.936 208.768 481.461 211.335 483.755 213.186C485.538 214.598 487.64 215.601 489.896 216.116C493.752 216.996 496.049 216.584 496.084 216.885Z" fill="#E0E0E0"/>
<path d="M553.642 527.624C553.642 527.791 436.945 527.913 293.012 527.913C149.079 527.913 32.3594 527.791 32.3594 527.624C32.3594 527.457 149.032 527.334 293.012 527.334C436.992 527.334 553.642 527.468 553.642 527.624Z" fill="#263238"/>
<path d="M535.756 69.5692H425.307V82.1351H535.756V69.5692Z" fill="#455A64"/>
<path d="M518.2 69.2017H447.88C446.204 69.2017 444.597 68.5691 443.413 67.443C442.228 66.317 441.563 64.7897 441.563 63.1972C441.561 62.4078 441.723 61.6258 442.04 60.896C442.357 60.1662 442.822 59.503 443.409 58.9442C443.995 58.3855 444.692 57.9422 445.459 57.6398C446.227 57.3373 447.049 57.1816 447.88 57.1816H518.2C519.876 57.1846 521.483 57.8197 522.667 58.9475C523.851 60.0753 524.517 61.6037 524.517 63.1972C524.514 64.7888 523.847 66.3144 522.663 67.4398C521.479 68.5652 519.874 69.1988 518.2 69.2017Z" fill="#E03832"/>
<path d="M446.801 69.0679C447.307 68.3667 447.893 67.7204 448.547 67.1407L450.563 65.1801C450.966 64.8201 451.327 64.4205 451.641 63.9881C451.8 63.7888 451.908 63.5579 451.959 63.3128C452.01 63.0677 452.001 62.8148 451.934 62.5733C451.728 62.0906 451.345 61.6949 450.856 61.4593C450.376 61.1808 449.848 60.9469 449.368 60.7018L446.813 59.3984C445.996 59.0481 445.229 58.6028 444.527 58.0728C445.387 58.3037 446.216 58.625 447 59.0308L449.614 60.1559C450.106 60.3899 450.622 60.6015 451.161 60.9023C451.793 61.2177 452.278 61.7461 452.52 62.3839C452.613 62.7078 452.627 63.0473 452.562 63.3772C452.497 63.707 452.355 64.0187 452.145 64.2889C451.804 64.744 451.411 65.1624 450.973 65.5366L448.875 67.3858C448.253 68.0196 447.557 68.584 446.801 69.0679Z" fill="#263238"/>
<path d="M511.671 62.8296C511.671 62.9855 498.475 63.1192 482.219 63.1192C465.963 63.1192 452.767 62.9855 452.767 62.8296C452.767 62.6736 465.952 62.5399 482.219 62.5399C498.486 62.5399 511.671 62.6625 511.671 62.8296Z" fill="#263238"/>
<path d="M520.368 69.068C519.445 68.8481 518.555 68.5187 517.719 68.0877C516.774 67.6785 515.872 67.1862 515.023 66.6172C514.519 66.2888 514.048 65.9158 513.617 65.5032L513.008 64.7791C512.762 64.5167 512.568 64.215 512.433 63.8879C512.383 63.6936 512.383 63.4905 512.434 63.2963C512.485 63.1021 512.585 62.9227 512.726 62.7739C512.931 62.5219 513.159 62.2871 513.406 62.0721C513.863 61.6488 514.332 61.27 514.777 60.9581C515.691 60.2674 516.488 59.6659 517.121 59.1089C517.783 58.4373 518.58 57.8993 519.465 57.527C519.465 57.5827 518.68 58.2177 517.461 59.4096C516.84 60.0001 516.043 60.6685 515.117 61.3591C514.683 61.7156 514.238 62.0944 513.793 62.4731C513.347 62.8519 512.843 63.3643 512.996 63.732C513.57 64.7266 514.371 65.5867 515.34 66.2496C516.143 66.8264 516.993 67.3405 517.883 67.7869C518.75 68.1429 519.581 68.5716 520.368 69.068Z" fill="#263238"/>
<path d="M518.199 57.137H447.879C446.204 57.137 444.597 56.5044 443.412 55.3784C442.228 54.2523 441.562 52.7251 441.562 51.1326C441.55 50.3447 441.708 49.5627 442.027 48.8355C442.347 48.1083 442.82 47.4515 443.418 46.9059C444.017 46.3603 444.727 45.9377 445.504 45.6644C446.282 45.3911 447.11 45.273 447.938 45.3175H518.258C519.077 45.2855 519.894 45.4129 520.659 45.6921C521.425 45.9713 522.122 46.3962 522.708 46.9408C523.294 47.4855 523.757 48.1382 524.068 48.8591C524.379 49.5799 524.531 50.3536 524.516 51.1326C524.516 52.7251 523.851 54.2523 522.666 55.3784C521.481 56.5044 519.875 57.137 518.199 57.137Z" fill="#E03832"/>
<path d="M446.801 56.9477C447.306 56.2489 447.892 55.6062 448.547 55.0316L450.563 53.0598C450.969 52.7024 451.33 52.3025 451.641 51.8678C451.8 51.6706 451.908 51.4416 451.959 51.1983C452.01 50.955 452.001 50.7039 451.934 50.4642C451.723 49.9846 451.341 49.5905 450.856 49.3502C450.376 49.0717 449.848 48.8377 449.368 48.5927L446.813 47.2893C445.996 46.939 445.229 46.4937 444.527 45.9636C445.388 46.1959 446.218 46.5211 447 46.9328L449.614 48.1136C450.106 48.3476 450.622 48.5592 451.161 48.86C451.781 49.1575 452.265 49.6609 452.52 50.2748C452.611 50.597 452.624 50.9345 452.559 51.2622C452.495 51.59 452.353 51.8998 452.145 52.1686C451.807 52.6261 451.413 53.0447 450.973 53.4163L448.875 55.3212C448.254 55.9398 447.558 56.4858 446.801 56.9477Z" fill="#263238"/>
<path d="M511.671 50.765C511.671 50.9209 498.475 51.0546 482.219 51.0546C465.963 51.0546 452.767 50.9209 452.767 50.765C452.767 50.609 465.952 50.4753 482.219 50.4753C498.486 50.4753 511.671 50.609 511.671 50.765Z" fill="#263238"/>
<path d="M520.368 56.9588C519.445 56.7388 518.555 56.4095 517.719 55.9785C516.774 55.5692 515.872 55.0769 515.023 54.508C514.514 54.1861 514.042 53.8126 513.617 53.394L513.008 52.6699C512.76 52.4093 512.565 52.1071 512.433 51.7787C512.383 51.5844 512.383 51.3812 512.434 51.187C512.485 50.9928 512.585 50.8135 512.726 50.6647C512.935 50.4153 513.162 50.1807 513.406 49.9629C513.863 49.5395 514.332 49.1608 514.777 48.8489C515.691 48.1582 516.488 47.5566 517.121 46.9996C518.41 45.8856 519.372 45.3286 519.465 45.4289C519.559 45.5291 518.68 46.1084 517.461 47.3004C516.84 47.8908 516.043 48.5592 515.117 49.261C514.683 49.6175 514.238 49.9963 513.793 50.375C513.347 50.7538 512.843 51.2662 512.996 51.6339C513.295 52.1293 513.644 52.5957 514.039 53.0264C514.43 53.4407 514.866 53.8142 515.34 54.1404C516.148 54.7094 516.998 55.2231 517.883 55.6777C518.751 56.0313 519.583 56.4601 520.368 56.9588Z" fill="#263238"/>
<path d="M517.332 57.4267C517.332 57.5827 501.639 57.7164 482.277 57.7164C462.916 57.7164 447.223 57.5827 447.223 57.4267C447.223 57.2708 462.916 57.1371 482.277 57.1371C501.639 57.1371 517.332 57.2596 517.332 57.4267Z" fill="#263238"/>
<path d="M520.215 64.4226C520.332 64.4226 520.426 68.1991 520.426 72.8667C520.426 77.5344 520.367 81.322 520.215 81.322C520.062 81.322 520.004 77.5344 520.004 72.8667C520.004 68.1991 520.098 64.4226 520.215 64.4226Z" fill="#263238"/>
<path d="M528.372 79.8738H512.222V106.454H528.372V79.8738Z" fill="white"/>
<path d="M528.501 93.7543H512.351V106.454H528.501V93.7543Z" fill="#E03832"/>
<path d="M525.747 89.3985C522.069 89.6659 518.374 89.6659 514.695 89.3985C518.374 89.1312 522.069 89.1312 525.747 89.3985Z" fill="#263238"/>
<path d="M525.536 91.348C521.865 91.6142 518.179 91.6142 514.508 91.348C518.186 91.0806 521.881 91.0806 525.56 91.348H525.536Z" fill="#263238"/>
<path d="M520.918 103.134V104.059H519.864V103.168C519.069 103.128 518.297 102.907 517.613 102.521L518.188 101.296C518.802 101.665 519.512 101.866 520.239 101.875C520.965 101.875 521.246 101.675 521.246 101.396C521.246 100.46 517.73 101.14 517.73 98.9455C517.73 98.0208 518.434 97.241 519.875 97.0739V96.1382H520.93V97.0517C521.562 97.0948 522.178 97.2657 522.735 97.553L522.196 98.7895C521.669 98.5066 521.078 98.3498 520.473 98.3328C519.735 98.3328 519.465 98.5667 519.465 98.8675C519.465 99.7698 522.981 99.0903 522.981 101.263C522.981 102.165 522.301 102.934 520.918 103.134Z" fill="white"/>
<path d="M521.505 84.4189H514.895V86.5801H521.505V84.4189Z" fill="#263238"/>
<path d="M528.372 106.454C528.358 106.276 528.358 106.097 528.372 105.919C528.372 105.529 528.372 105.039 528.372 104.437C528.372 103.09 528.372 101.229 528.29 98.8674C528.29 94.1218 528.208 87.5269 528.161 79.818L528.442 80.0854H512.292C512.222 80.1522 512.866 79.5395 512.597 79.8069V87.2261C512.597 89.6324 512.597 91.9718 512.597 94.2221C512.597 98.6781 512.597 102.8 512.538 106.376L512.304 106.153L524.024 106.276H527.282C528.032 106.276 528.454 106.276 528.454 106.276C528.091 106.301 527.727 106.301 527.364 106.276H524.164L512.304 106.387H512.069V106.164C512.069 102.588 512.069 98.4887 512.069 94.0104C512.069 91.7824 512.069 89.4207 512.069 87.0145V79.8849L512.374 79.5841H528.524H528.805V79.8515C528.747 87.6495 528.7 94.3335 528.665 99.0791C528.665 101.363 528.606 103.201 528.595 104.527C528.595 105.117 528.595 105.641 528.595 105.964C528.541 106.135 528.466 106.299 528.372 106.454Z" fill="#263238"/>
<path d="M152.149 159.447H41.7002V172.013H152.149V159.447Z" fill="#455A64"/>
<path d="M132.519 159.447H62.1989C60.5224 159.447 58.9145 158.815 57.7279 157.689C56.5414 156.563 55.8732 155.036 55.8701 153.442C55.8701 151.847 56.5369 150.317 57.7238 149.189C58.9107 148.061 60.5204 147.427 62.1989 147.427H132.519C134.197 147.427 135.807 148.061 136.994 149.189C138.181 150.317 138.848 151.847 138.848 153.442C138.845 155.036 138.176 156.563 136.99 157.689C135.803 158.815 134.195 159.447 132.519 159.447Z" fill="#E03832"/>
<path d="M61.1321 159.302C61.6335 158.597 62.2196 157.951 62.8784 157.375L64.8942 155.414C65.2937 155.051 65.6548 154.652 65.9724 154.222C66.1286 154.022 66.2358 153.791 66.2865 153.546C66.3372 153.301 66.33 153.049 66.2654 152.807C66.0591 152.325 65.6762 151.929 65.1872 151.693C64.7067 151.415 64.1676 151.181 63.6988 150.936L61.1438 149.633C60.3048 149.29 59.5167 148.844 58.7998 148.307C59.659 148.538 60.4885 148.859 61.2727 149.265L63.9449 150.39C64.4371 150.624 64.9528 150.836 65.4919 151.136C66.1075 151.459 66.5752 151.987 66.8046 152.618C66.897 152.942 66.9113 153.281 66.8464 153.611C66.7814 153.941 66.6389 154.253 66.4295 154.523C66.088 154.978 65.695 155.397 65.2575 155.771C64.4957 156.439 63.7925 157.074 63.1362 157.664C62.5306 158.276 61.8588 158.825 61.1321 159.302Z" fill="#263238"/>
<path d="M125.991 153.075C125.991 153.231 112.806 153.364 96.55 153.364C80.2944 153.364 67.0977 153.231 67.0977 153.075C67.0977 152.919 80.2827 152.785 96.55 152.785C112.817 152.785 125.991 152.908 125.991 153.075Z" fill="#263238"/>
<path d="M134.687 159.302C133.765 159.08 132.875 158.751 132.038 158.322C131.099 157.91 130.2 157.418 129.354 156.851C128.847 156.505 128.376 156.114 127.948 155.682C127.725 155.436 127.526 155.191 127.339 154.957C127.093 154.695 126.899 154.393 126.764 154.066C126.714 153.872 126.714 153.669 126.765 153.475C126.816 153.28 126.916 153.101 127.057 152.952C127.262 152.703 127.485 152.469 127.725 152.25C128.194 151.827 128.663 151.448 129.108 151.136C130.022 150.446 130.819 149.844 131.452 149.287C132.114 148.616 132.911 148.078 133.796 147.705C133.796 147.705 133.011 148.396 131.792 149.588C131.171 150.178 130.374 150.847 129.448 151.537C129.015 151.894 128.557 152.273 128.124 152.651C127.69 153.03 127.175 153.543 127.327 153.91C127.619 154.413 127.969 154.884 128.37 155.314C128.762 155.723 129.194 156.096 129.659 156.428C130.466 157.005 131.32 157.519 132.214 157.965C133.08 158.337 133.908 158.785 134.687 159.302Z" fill="#263238"/>
<path d="M132.519 147.382H62.1989C61.3684 147.384 60.5457 147.229 59.7779 146.928C59.0101 146.627 58.3123 146.185 57.7245 145.627C57.1367 145.07 56.6703 144.407 56.3521 143.678C56.0339 142.949 55.8701 142.167 55.8701 141.378C55.8701 140.588 56.0339 139.807 56.3521 139.077C56.6703 138.348 57.1367 137.686 57.7245 137.128C58.3123 136.57 59.0101 136.128 59.7779 135.827C60.5457 135.526 61.3684 135.372 62.1989 135.373H132.519C133.349 135.372 134.172 135.526 134.94 135.827C135.708 136.128 136.406 136.57 136.993 137.128C137.581 137.686 138.048 138.348 138.366 139.077C138.684 139.807 138.848 140.588 138.848 141.378C138.848 142.167 138.684 142.949 138.366 143.678C138.048 144.407 137.581 145.07 136.993 145.627C136.406 146.185 135.708 146.627 134.94 146.928C134.172 147.229 133.349 147.384 132.519 147.382Z" fill="#E03832"/>
<path d="M61.1321 147.193C61.6323 146.491 62.2185 145.848 62.8784 145.277L64.8942 143.305C65.2965 142.945 65.6579 142.545 65.9724 142.113C66.1283 141.915 66.2356 141.686 66.2863 141.443C66.337 141.2 66.3298 140.949 66.2654 140.709C66.0538 140.23 65.6724 139.836 65.1872 139.595C64.7067 139.317 64.1676 139.083 63.6988 138.838C62.7846 138.381 61.929 137.947 61.1438 137.535C60.3048 137.192 59.5167 136.746 58.7998 136.209C59.6603 136.441 60.49 136.766 61.2727 137.178L63.8863 138.359C64.3785 138.593 64.8942 138.804 65.4333 139.105C66.0607 139.402 66.5495 139.911 66.8046 140.531C66.9014 140.853 66.9179 141.191 66.8528 141.52C66.7877 141.849 66.6427 142.159 66.4295 142.425C66.091 142.883 65.6977 143.301 65.2575 143.673C64.4957 144.341 63.7925 144.976 63.1362 145.566C62.534 146.178 61.8618 146.723 61.1321 147.193Z" fill="#263238"/>
<path d="M125.991 141.01C125.991 141.166 112.806 141.3 96.55 141.3C80.2944 141.3 67.0977 141.166 67.0977 141.01C67.0977 140.854 80.2827 140.72 96.55 140.72C112.817 140.72 125.991 140.854 125.991 141.01Z" fill="#263238"/>
<path d="M134.687 147.204C133.765 146.982 132.875 146.653 132.038 146.224C131.099 145.812 130.2 145.319 129.354 144.753C128.842 144.414 128.37 144.021 127.948 143.583C127.725 143.338 127.526 143.093 127.339 142.859C127.091 142.599 126.896 142.297 126.764 141.968C126.714 141.774 126.714 141.571 126.765 141.376C126.816 141.182 126.916 141.003 127.057 140.854C127.265 140.608 127.488 140.373 127.725 140.152C128.194 139.729 128.663 139.35 129.108 139.038C130.022 138.348 130.819 137.746 131.452 137.189C132.742 136.075 133.703 135.518 133.796 135.618C133.89 135.719 133.011 136.298 131.792 137.49C131.171 138.08 130.374 138.749 129.448 139.45C129.015 139.807 128.557 140.186 128.124 140.564C127.69 140.943 127.175 141.467 127.327 141.834C127.619 142.334 127.969 142.801 128.37 143.227C128.759 143.638 129.191 144.012 129.659 144.341C130.471 144.91 131.325 145.424 132.214 145.878C133.081 146.244 133.909 146.688 134.687 147.204Z" fill="#263238"/>
<path d="M131.663 147.672C131.663 147.828 115.958 147.961 96.6082 147.961C77.2585 147.961 61.5537 147.828 61.5537 147.672C61.5537 147.516 77.2468 147.382 96.6082 147.382C115.97 147.382 131.663 147.505 131.663 147.672Z" fill="#263238"/>
<path d="M126.576 151.504C126.693 151.504 126.787 155.292 126.787 159.959C126.787 164.627 126.693 168.403 126.576 168.403C126.459 168.403 126.365 164.627 126.365 159.959C126.365 155.292 126.482 151.504 126.576 151.504Z" fill="#263238"/>
<path d="M134.757 166.978H118.606V193.558H134.757V166.978Z" fill="white"/>
<path d="M134.886 180.858H118.735V193.558H134.886V180.858Z" fill="#E03832"/>
<path d="M132.132 176.502C130.296 176.703 128.447 176.77 126.6 176.703C124.754 176.769 122.904 176.702 121.068 176.502C122.904 176.302 124.754 176.235 126.6 176.302C128.447 176.235 130.296 176.302 132.132 176.502Z" fill="#263238"/>
<path d="M131.921 178.396C130.085 178.597 128.236 178.664 126.389 178.597C124.547 178.663 122.701 178.596 120.869 178.396C122.701 178.196 124.547 178.129 126.389 178.196C128.236 178.129 130.085 178.196 131.921 178.396Z" fill="#263238"/>
<path d="M127.303 190.227V191.162H126.237V190.26C125.447 190.228 124.677 190.01 123.998 189.625L124.572 188.389C125.186 188.761 125.895 188.966 126.623 188.979C127.35 188.979 127.631 188.779 127.631 188.489C127.631 187.553 124.115 188.244 124.115 186.049C124.115 185.125 124.818 184.345 126.248 184.167V183.242H127.315V184.155C127.948 184.193 128.565 184.364 129.12 184.657L128.581 185.893C128.054 185.61 127.462 185.454 126.858 185.437C126.119 185.437 125.85 185.67 125.85 185.971C125.85 186.862 129.366 186.194 129.366 188.366C129.366 189.258 128.686 190.037 127.303 190.227Z" fill="white"/>
<path d="M127.889 171.523H121.279V173.684H127.889V171.523Z" fill="#263238"/>
<path d="M134.78 193.558C134.766 193.38 134.766 193.201 134.78 193.023C134.78 192.633 134.78 192.143 134.78 191.541C134.78 190.193 134.78 188.333 134.698 185.971C134.698 181.237 134.616 174.642 134.569 166.933L134.85 167.2H118.7C118.63 167.2 119.275 166.654 119.005 166.911V174.319C119.005 176.725 119.005 179.064 119.005 181.304C119.005 185.76 119.005 189.893 119.005 193.468L118.771 193.246L130.491 193.368L133.749 193.424C134.499 193.424 134.921 193.424 134.921 193.424C134.558 193.444 134.194 193.444 133.831 193.424L130.631 193.48L118.606 193.836H118.372V193.613C118.372 190.037 118.372 185.927 118.372 181.448C118.372 179.22 118.372 176.87 118.372 174.464V167.056L118.677 166.766H134.827H135.108V167.033C135.108 174.831 135.003 181.515 134.968 186.25C134.968 188.545 134.968 190.383 134.897 191.708C134.897 192.299 134.897 192.822 134.897 193.145C134.871 193.286 134.832 193.424 134.78 193.558Z" fill="#263238"/>
<path d="M152.149 105.485H41.7002V118.051H152.149V105.485Z" fill="#455A64"/>
<path d="M129.072 82.1686H60.1588C57.3172 82.1686 55.0137 84.3581 55.0137 87.059V89.4319C55.0137 92.1328 57.3172 94.3223 60.1588 94.3223H129.072C131.914 94.3223 134.217 92.1328 134.217 89.4319V87.059C134.217 84.3581 131.914 82.1686 129.072 82.1686Z" fill="#263238"/>
<path d="M129.882 70.0149H60.9683C58.1268 70.0149 55.8232 72.2044 55.8232 74.9054V77.2782C55.8232 79.9791 58.1268 82.1686 60.9683 82.1686H129.882C132.723 82.1686 135.027 79.9791 135.027 77.2782V74.9054C135.027 72.2044 132.723 70.0149 129.882 70.0149Z" fill="#263238"/>
<path d="M70.8359 82.1685C70.8359 82.0794 84.0209 82.0126 100.277 82.0126C116.532 82.0126 129.717 82.0794 129.717 82.1685C129.717 82.2577 116.544 82.3356 100.277 82.3356C84.0092 82.3356 70.8359 82.2577 70.8359 82.1685Z" fill="#263238"/>
<path d="M82.2746 94.378C82.0264 93.8478 81.8493 93.2902 81.7472 92.7181C81.1184 89.9565 81.0905 87.1019 81.6651 84.3297C81.7529 83.7536 81.9224 83.1915 82.1691 82.6587C82.1154 83.2352 82.0253 83.808 81.8995 84.3743C81.4849 87.1304 81.5324 89.9315 82.0402 92.6736C82.1602 93.2358 82.2385 93.8053 82.2746 94.378Z" fill="white"/>
<path d="M94.1242 94.6231C93.8972 94.0593 93.7399 93.4724 93.6554 92.8741C93.1205 90.0171 93.0927 87.0951 93.5733 84.2295C93.6461 83.618 93.7916 83.0163 94.007 82.4359C93.9828 83.0331 93.9202 83.6284 93.8194 84.2183C93.6437 85.6417 93.5615 87.0741 93.5733 88.5072C93.5951 89.9417 93.7047 91.3737 93.9015 92.7961C94.01 93.4009 94.0843 94.0107 94.1242 94.6231Z" fill="white"/>
<path d="M106.289 94.6231C106.097 94.0506 105.967 93.4607 105.902 92.863C105.678 91.4243 105.561 89.9726 105.551 88.5184C105.531 87.0625 105.617 85.6071 105.809 84.1626C105.859 83.5757 105.981 82.9963 106.172 82.4359C106.169 83.0391 106.13 83.6416 106.055 84.2406C105.961 85.3546 105.867 86.8696 105.879 88.5629C105.891 90.2562 106.02 91.7712 106.137 92.8741C106.237 93.4523 106.288 94.0371 106.289 94.6231Z" fill="white"/>
<path d="M119.896 94.1886C119.746 93.634 119.651 93.067 119.614 92.4954C119.486 91.4482 119.357 90 119.251 88.3847C119.146 86.7694 119.099 85.3212 119.099 84.274C119.058 83.7014 119.081 83.1263 119.169 82.5585C119.272 83.1215 119.327 83.6915 119.333 84.2629C119.403 85.3769 119.497 86.8251 119.591 88.3736C119.685 89.922 119.779 91.3145 119.849 92.4731C119.92 93.0423 119.936 93.6166 119.896 94.1886Z" fill="white"/>
<path d="M126.038 82.2131C125.829 80.2292 125.735 78.2358 125.756 76.2421C125.645 74.2457 125.645 72.2451 125.756 70.2488C125.838 70.2488 125.967 72.9224 126.038 76.231C126.149 78.2236 126.149 80.2205 126.038 82.2131Z" fill="white"/>
<path d="M112.231 81.9569C112.052 81.3828 111.934 80.7932 111.879 80.1968C111.508 77.3256 111.567 74.4187 112.055 71.5633C112.145 70.9671 112.298 70.3811 112.512 69.8143C112.503 70.4125 112.44 71.0088 112.324 71.5967C112.196 72.7107 112.055 74.2035 112.02 75.8745C111.985 77.5455 112.02 79.0717 112.149 80.1745C112.22 80.7661 112.247 81.3617 112.231 81.9569Z" fill="white"/>
<path d="M98.7176 82.3022C98.555 81.7087 98.4646 81.0995 98.448 80.4864C98.3076 79.0049 98.2762 77.516 98.3543 76.0304C98.4226 74.5359 98.5948 73.0473 98.8699 71.5744C98.9612 70.9676 99.1143 70.3706 99.327 69.792C99.2928 70.4011 99.2185 71.0076 99.1043 71.6078C98.952 72.7218 98.7762 74.2703 98.6941 75.9858C98.6121 77.7014 98.6941 79.2499 98.6941 80.375C98.7478 81.0162 98.7557 81.66 98.7176 82.3022Z" fill="white"/>
<path d="M86.3419 82.4359C86.1082 81.8696 85.9469 81.2786 85.8614 80.6758C85.3144 77.7915 85.3144 74.8374 85.8614 71.9531C85.9436 71.3461 86.105 70.7511 86.3419 70.1819C86.2981 70.7839 86.2159 71.3829 86.0958 71.9754C85.8968 73.4085 85.795 74.8522 85.7911 76.2977C85.7923 77.7474 85.898 79.1953 86.1075 80.6312C86.2213 81.2281 86.2996 81.8306 86.3419 82.4359Z" fill="white"/>
<path d="M72.3482 81.9347C72.3482 81.9347 72.2427 81.7899 72.1138 81.5002C71.9345 81.0975 71.7818 80.6845 71.6567 80.2637C71.236 78.8718 71.0075 77.4338 70.9769 75.9859C70.9471 74.5372 71.1205 73.0911 71.4926 71.6859C71.645 71.1512 71.7856 70.7167 71.9028 70.4271C72.02 70.1374 72.0903 69.9815 72.1138 69.9926C72.1372 70.0038 71.9497 70.661 71.727 71.7305C71.1328 74.5341 71.1888 77.4271 71.8911 80.208C72.1606 81.322 72.395 81.9124 72.3482 81.9347Z" fill="white"/>
<path d="M70.0743 93.7542C69.7165 93.2928 69.4359 92.7818 69.2421 92.2391C68.7096 90.9578 68.3702 89.6114 68.2342 88.2399C68.0912 86.864 68.1583 85.4757 68.4335 84.1181C68.5102 83.5362 68.6801 82.9689 68.9374 82.4359C68.9374 82.4359 68.8202 83.082 68.6679 84.1069C68.2573 86.799 68.5305 89.5454 69.4648 92.1166C69.8281 93.1415 70.1211 93.7319 70.0743 93.7542Z" fill="white"/>
<path d="M61.9754 93.3197C61.6321 92.8777 61.3778 92.3791 61.2253 91.8492C60.7838 90.5872 60.5467 89.2688 60.5221 87.9391C60.5074 86.6204 60.5936 85.3024 60.78 83.9955C60.8332 83.4673 60.9392 82.9451 61.0964 82.4359C61.1274 82.9827 61.1038 83.531 61.0261 84.0735C60.9013 85.3734 60.8465 86.6785 60.862 87.9836C60.8929 89.2826 61.0896 90.5731 61.448 91.8269C61.741 92.7404 62.0223 93.2974 61.9754 93.3197Z" fill="white"/>
<path d="M64.0149 70.0149C64.0149 70.0149 63.7102 70.661 63.3117 71.7193C62.8158 73.1114 62.5663 74.572 62.5733 76.0416C62.5905 77.5109 62.7911 78.9731 63.171 80.3974C63.3609 80.9823 63.5135 81.5775 63.6281 82.1798C63.6281 82.1798 63.5226 82.035 63.4054 81.7342C63.2882 81.4334 63.1124 80.9989 62.9366 80.4531C62.4785 79.0075 62.2417 77.5068 62.2334 75.9971C62.2128 74.4731 62.5034 72.9599 63.089 71.5411C63.2659 71.123 63.4735 70.7173 63.7102 70.3268C63.886 70.182 63.9914 70.0038 64.0149 70.0149Z" fill="white"/>
<path d="M123.037 61.0026H72.0434C69.9397 61.0026 68.2344 62.6235 68.2344 64.6231V66.3832C68.2344 68.3827 69.9397 70.0037 72.0434 70.0037H123.037C125.141 70.0037 126.846 68.3827 126.846 66.3832V64.6231C126.846 62.6235 125.141 61.0026 123.037 61.0026Z" fill="#455A64"/>
<path d="M123.635 52.0015H72.641C70.5374 52.0015 68.832 53.6224 68.832 55.622V57.3821C68.832 59.3816 70.5374 61.0026 72.641 61.0026H123.635C125.738 61.0026 127.444 59.3816 127.444 57.3821V55.622C127.444 53.6224 125.738 52.0015 123.635 52.0015Z" fill="#455A64"/>
<path d="M79.6963 60.9023C79.6963 60.8132 89.4473 60.7463 101.472 60.7463C113.497 60.7463 123.26 60.8132 123.26 60.9023C123.26 60.9914 113.508 61.0694 101.472 61.0694C89.4356 61.0694 79.6963 60.9914 79.6963 60.9023Z" fill="#263238"/>
<path d="M80.2472 52.2799C79.7858 52.6337 79.2915 52.947 78.7705 53.2157L75.1373 55.3768L71.4923 57.5937C71.0131 57.9296 70.5032 58.2241 69.9688 58.4737C70.3904 58.0561 70.858 57.6826 71.3634 57.3597C72.2424 56.747 73.4965 55.9227 74.8794 55.0649C76.2624 54.2071 77.6102 53.483 78.583 52.9706C79.1084 52.6813 79.6667 52.4496 80.2472 52.2799Z" fill="white"/>
<path d="M93.7608 52.358C93.7608 52.4359 90.8776 54.3966 87.2093 56.736C83.5409 59.0754 80.5172 60.9135 80.4703 60.8355C80.4234 60.7575 83.3417 58.808 87.0218 56.4686C90.7018 54.1292 93.7608 52.2911 93.7608 52.358Z" fill="white"/>
<path d="M107.895 52.358C107.895 52.4359 105.011 54.3966 101.343 56.736C97.6747 59.0754 94.651 60.9135 94.6041 60.8355C94.5572 60.7575 97.4872 58.808 101.156 56.4686C104.824 54.1292 107.824 52.2911 107.895 52.358Z" fill="white"/>
<path d="M89.1543 61.1139C89.2129 61.1919 86.2712 63.1414 82.6028 65.4808C78.9345 67.8202 75.9107 69.6583 75.8638 69.5915C75.817 69.5246 78.747 67.564 82.4153 65.2246C86.0837 62.8852 89.0723 61.0471 89.1543 61.1139Z" fill="white"/>
<path d="M105.328 61.1139C105.328 61.1919 102.445 63.1414 98.7767 65.4808C95.1083 67.8202 92.0845 69.6583 92.0377 69.5915C91.9908 69.5246 94.9208 67.564 98.5891 65.2246C102.258 62.8852 105.281 61.0471 105.328 61.1139Z" fill="white"/>
<path d="M121.501 61.1139C121.501 61.1919 118.618 63.1414 114.95 65.4808C111.281 67.8202 108.258 69.6583 108.199 69.5915C108.141 69.5246 111.082 67.564 114.762 65.2246C118.442 62.8852 121.443 61.0471 121.501 61.1139Z" fill="white"/>
<path d="M121.994 52.358C121.994 52.4359 119.111 54.3966 115.443 56.736C111.774 59.0754 108.751 60.9135 108.704 60.8355C108.657 60.7575 111.587 58.808 115.255 56.4686C118.924 54.1292 121.947 52.2911 121.994 52.358Z" fill="white"/>
<path d="M129.53 94.0995H60.6168C57.7752 94.0995 55.4717 96.289 55.4717 98.9899V101.363C55.4717 104.064 57.7752 106.253 60.6168 106.253H129.53C132.372 106.253 134.675 104.064 134.675 101.363V98.9899C134.675 96.289 132.372 94.0995 129.53 94.0995Z" fill="#E03832"/>
<path d="M129.448 94.1886C129.448 94.2777 114.118 94.3445 95.2253 94.3445C76.3327 94.3445 61.0029 94.2777 61.0029 94.1886C61.0029 94.0995 76.321 94.0215 95.2253 94.0215C114.13 94.0215 129.448 94.0995 129.448 94.1886Z" fill="#263238"/>
<path d="M130.245 105.017C130.245 105.017 130.245 105.017 130.069 105.017L129.542 104.95L127.502 104.716L120.013 103.602C113.696 102.688 104.965 101.441 95.3192 100.137C85.6736 98.8341 76.907 97.7089 70.5782 96.918L63.0774 95.9711L61.0382 95.7037L60.5108 95.6257C60.4485 95.6333 60.3855 95.6333 60.3232 95.6257H60.5108H61.0382L63.0892 95.8263L70.6017 96.6729C76.9539 97.4193 85.7088 98.4999 95.366 99.8032C105.023 101.107 113.743 102.388 120.048 103.346L127.526 104.527L129.542 104.872L130.069 104.961L130.245 105.017Z" fill="#263238"/>
<path d="M126.236 94.1329C125.914 94.2554 125.581 94.3487 125.24 94.4114L122.486 95.0576C120.142 95.6034 116.93 96.3609 113.403 97.2856C109.875 98.2102 106.652 99.0123 104.367 99.6472L101.624 100.382C101.295 100.485 100.958 100.563 100.616 100.616C100.929 100.471 101.255 100.352 101.589 100.26L104.308 99.4244C106.652 98.7449 109.781 97.8426 113.321 96.9514C116.86 96.0602 120.095 95.3249 122.439 94.8348L125.216 94.2889C125.551 94.2095 125.892 94.1573 126.236 94.1329Z" fill="#263238"/>
<path d="M60.1826 89.4875C60.2998 89.4875 60.3936 93.264 60.3936 97.9317C60.3936 102.599 60.2998 106.387 60.1826 106.387C60.0654 106.387 59.9717 102.599 59.9717 97.9317C59.9717 93.264 60.0654 89.4875 60.1826 89.4875Z" fill="#263238"/>
<path d="M68.3396 104.939H52.1895V131.519H68.3396V104.939Z" fill="white"/>
<path d="M68.4685 118.819H52.3184V131.519H68.4685V118.819Z" fill="#E03832"/>
<path d="M65.7141 114.463C63.8782 114.664 62.0289 114.731 60.1822 114.664C58.3356 114.731 56.4863 114.664 54.6504 114.463C56.4863 114.263 58.3356 114.196 60.1822 114.263C62.0289 114.196 63.8782 114.263 65.7141 114.463Z" fill="#263238"/>
<path d="M65.5031 116.368C63.6672 116.569 61.8179 116.636 59.9713 116.569C58.1247 116.636 56.2754 116.569 54.4395 116.368C56.2754 116.168 58.1247 116.101 59.9713 116.168C61.8179 116.101 63.6672 116.168 65.5031 116.368Z" fill="#263238"/>
<path d="M60.9447 128.199V129.135H59.7727V128.232C58.9826 128.192 58.2145 127.97 57.5342 127.586L58.1085 126.361C58.722 126.732 59.4324 126.932 60.1595 126.94C60.8861 126.94 61.1674 126.751 61.1674 126.461C61.1674 125.525 57.6514 126.205 57.6514 124.01C57.6514 123.086 58.3546 122.306 59.7844 122.139V121.214H60.9447V122.117C61.577 122.16 62.1923 122.331 62.7496 122.618L62.1167 123.854C61.5947 123.57 61.0069 123.413 60.4056 123.398C59.6672 123.398 59.3977 123.632 59.3977 123.932C59.3977 124.835 62.9137 124.155 62.9137 126.327C62.9371 127.23 62.2691 127.998 60.9447 128.199Z" fill="white"/>
<path d="M61.4714 109.484H54.8613V111.645H61.4714V109.484Z" fill="#263238"/>
<path d="M68.3396 131.519C68.3257 131.341 68.3257 131.162 68.3396 130.984C68.3396 130.605 68.3396 130.104 68.3396 129.502C68.3396 128.154 68.3396 126.294 68.2576 123.932C68.2576 119.198 68.1755 112.603 68.1169 104.883L68.4099 105.15H52.2598C52.1895 105.217 52.8341 104.604 52.5645 104.872V108.626C52.5645 109.863 52.5645 111.088 52.5645 112.291C52.5645 114.705 52.5645 117.037 52.5645 119.287C52.5645 123.743 52.5645 127.865 52.5645 131.441L52.3301 131.218L64.0501 131.34H67.2965C68.0466 131.34 68.4685 131.34 68.4685 131.34C68.1057 131.366 67.7414 131.366 67.3786 131.34H64.179L52.3184 131.452H52.084V131.218C52.084 127.642 52.084 123.542 52.084 119.064C52.084 116.836 52.084 114.504 52.084 112.068V104.95L52.3887 104.649H68.5389H68.8201V104.916C68.8201 112.714 68.7147 119.398 68.6795 124.144C68.6795 126.428 68.6795 128.266 68.5975 129.592C68.5975 130.182 68.5975 130.706 68.5975 131.029C68.5975 131.352 68.3396 131.53 68.3396 131.519Z" fill="#263238"/>
<path d="M339.517 527.234L253.902 527.724L259.493 446.859L330.282 446.803L339.517 527.234Z" fill="#455A64"/>
<path d="M315.972 449.031C315.901 449.031 315.889 448.14 315.667 446.547C315.36 444.299 314.79 442.091 313.967 439.963C312.796 436.802 310.88 433.936 308.365 431.586C306.869 430.229 305.11 429.162 303.185 428.444C301.113 427.691 298.911 427.313 296.692 427.33C292.367 427.316 288.19 428.828 284.972 431.575C282.445 433.91 280.558 436.797 279.475 439.985C278.715 442.135 278.162 444.347 277.823 446.592L277.565 448.43C277.545 448.644 277.505 448.856 277.448 449.065C277.42 448.85 277.42 448.633 277.448 448.418C277.448 447.995 277.518 447.36 277.6 446.558C277.852 444.288 278.347 442.049 279.077 439.874C280.125 436.586 282.027 433.601 284.609 431.196C287.909 428.321 292.227 426.73 296.704 426.74C299.001 426.737 301.278 427.141 303.419 427.932C305.409 428.685 307.225 429.802 308.764 431.218C311.322 433.638 313.245 436.595 314.378 439.852C315.182 442.01 315.698 444.255 315.913 446.536C315.983 447.338 316.018 447.973 316.007 448.396C316.02 448.608 316.008 448.821 315.972 449.031Z" fill="#263238"/>
<path d="M275.01 447.316C275.174 447.316 274.506 465.307 273.521 487.486C272.537 509.666 271.588 527.59 271.424 527.59C271.259 527.59 271.916 509.599 272.912 487.42C273.908 465.24 274.846 447.304 275.01 447.316Z" fill="#263238"/>
<path d="M387.979 527.29L313.006 527.724L317.905 456.907L379.892 456.863L387.979 527.29Z" fill="#E03832"/>
<path d="M368.301 457.308C368.242 457.308 368.231 456.528 368.02 455.136C367.75 453.168 367.247 451.236 366.519 449.376C365.495 446.614 363.819 444.11 361.62 442.058C358.863 439.597 355.206 438.255 351.424 438.314C347.649 438.3 344.003 439.618 341.193 442.013C338.975 444.05 337.321 446.575 336.376 449.365C335.706 451.246 335.219 453.182 334.922 455.147C334.7 456.54 334.618 457.308 334.571 457.308C334.543 457.12 334.543 456.928 334.571 456.74C334.571 456.361 334.629 455.815 334.688 455.114C334.9 453.115 335.332 451.144 335.977 449.232C336.895 446.35 338.559 443.734 340.817 441.623C343.716 439.103 347.508 437.715 351.436 437.735C355.357 437.685 359.144 439.097 361.984 441.668C364.229 443.789 365.916 446.384 366.906 449.243C367.603 451.14 368.048 453.112 368.231 455.114C368.291 455.654 368.319 456.197 368.313 456.74C368.339 456.929 368.335 457.12 368.301 457.308Z" fill="#263238"/>
<path d="M331.489 457.308C331.665 457.308 331.091 473.071 330.223 492.488C329.356 511.905 328.524 527.646 328.348 527.635C328.172 527.624 328.747 511.883 329.614 492.455C330.481 473.027 331.325 457.297 331.489 457.308Z" fill="#263238"/>
<path d="M398.773 342.366H398.762V55.4661H180.688L180.992 348.17L180.418 362.095L191.388 354.107L202.358 362.095L213.316 354.107L224.286 362.095L235.256 354.107L246.226 362.095L257.196 354.107L268.166 362.095L279.136 354.107L290.105 362.095L301.075 354.107L312.045 362.095L323.015 354.107L333.985 362.095L344.955 354.107L355.925 362.095L366.907 354.107L377.877 362.095L388.858 354.107L399.828 362.095L398.773 342.366Z" fill="#F5F5F5"/>
<path d="M398.785 342.366C398.785 342.9 399.172 349.139 399.957 362.083V362.251L399.816 362.15L388.823 354.185H388.952L377.982 362.184L377.912 362.239L377.841 362.184L366.836 354.252H367L356.03 362.251L355.937 362.317L355.843 362.251L344.861 354.252H345.049L334.091 362.239L333.985 362.317L333.88 362.239L322.91 354.252H323.132L312.163 362.251L312.045 362.329L311.928 362.251L300.958 354.252H301.204L290.234 362.251L290.105 362.34L289.977 362.251L279.007 354.252H279.264L268.306 362.251L268.166 362.351L268.025 362.251L257.055 354.252H257.336L246.366 362.251L246.226 362.351L246.085 362.251L235.104 354.252H235.408L224.438 362.251L224.286 362.351L224.134 362.251L213.164 354.252H213.48L202.51 362.239L202.358 362.362L202.194 362.239C198.842 359.8 195.056 357.037 191.224 354.263H191.552L180.582 362.251L180.137 362.574V362.039C180.324 357.293 180.512 352.499 180.699 347.657C180.699 342.807 180.699 337.917 180.699 332.986C180.699 323.101 180.699 313.038 180.699 302.796C180.699 282.306 180.672 261.174 180.617 239.399C180.617 195.897 180.512 150.1 180.465 102.878C180.465 86.8586 180.465 71.0063 180.465 55.4215V55.1318H180.77H398.844H399.113V55.3881C399.113 141.032 399.031 212.752 398.996 263.06C398.996 288.203 398.996 308.01 398.926 321.534C398.926 328.285 398.926 333.465 398.926 336.974C398.926 338.723 398.926 340.048 398.926 340.94C398.926 340.048 398.926 338.712 398.926 336.974C398.926 333.465 398.926 328.285 398.926 321.534C398.926 308.01 398.926 288.203 398.844 263.06C398.844 212.752 398.785 141.032 398.738 55.3881L399.008 55.6443H180.934L181.238 55.3546C181.238 70.9506 181.238 86.7917 181.238 102.811C181.238 150.034 181.332 195.841 181.379 239.332C181.379 261.077 181.379 282.254 181.379 302.729C181.379 312.978 181.379 323.041 181.379 332.919C181.379 337.865 181.379 342.759 181.379 347.601C181.192 352.451 181 357.249 180.805 361.994L180.383 361.783L191.341 353.795L191.505 353.673L191.669 353.795L202.627 361.783H202.311L213.281 353.806L213.433 353.684L213.597 353.806L224.556 361.794H224.251L235.221 353.806L235.373 353.706L235.525 353.806L246.484 361.805H246.12L257.09 353.818L257.231 353.717L257.372 353.818L268.341 361.816H268.06L279.042 353.829L279.171 353.728L279.3 353.829L290.27 361.827H290.012L300.993 353.84L301.111 353.751L301.239 353.84L312.198 361.838H311.963L322.945 353.851L323.05 353.773L323.168 353.851L334.126 361.849H333.915L344.896 353.873L344.99 353.795L345.096 353.873L356.054 361.872H355.866L366.86 353.884H366.942H367.024L377.982 361.883H377.841L388.823 353.918H388.893L399.887 362.05L399.758 362.117C399.113 349.139 398.808 342.9 398.785 342.366Z" fill="#263238"/>
<path d="M227.837 179.978V186.316H234.506V179.978V173.65H227.837V179.978Z" fill="#263238"/>
<path d="M234.506 141.957H227.837V148.296H234.506V141.957Z" fill="#263238"/>
<path d="M275.702 211.727H269.033V218.065H275.702V211.727Z" fill="#263238"/>
<path d="M234.506 154.634V160.973H227.837V167.312H234.506V173.65H241.174H247.843V179.978H254.512V173.65H261.169V167.312V160.973H254.512V167.312H247.843H241.174V160.973V154.634V148.296H234.506V154.634Z" fill="#263238"/>
<path d="M247.843 141.957H241.175V148.296H247.843H254.512V141.957H247.843Z" fill="#263238"/>
<path d="M277.834 192.9H281.421V186.562H277.834H274.26V192.9H277.834Z" fill="#263238"/>
<path d="M261.18 148.296H254.512V154.634H261.18V148.296Z" fill="#263238"/>
<path d="M307.838 173.65H301.169V179.989H307.838V173.65Z" fill="#263238"/>
<path d="M314.507 103.936H307.838V110.275H314.507V103.936Z" fill="#263238"/>
<path d="M274.506 154.634V148.296H281.175V141.957H274.506V135.63H267.838V141.957H261.169V148.296H267.838V154.634V160.973V167.312V173.65H274.506V167.312V160.973H281.175V154.634H274.506Z" fill="#263238"/>
<path d="M307.838 217.999H314.506V211.671H307.838H301.169V217.999H307.838Z" fill="#263238"/>
<path d="M301.18 103.936H294.512V110.275H301.18V103.936Z" fill="#263238"/>
<path d="M299.505 154.634V148.296H292.836V141.957H286.179V148.296V154.634H279.511V160.973H286.179H292.836V154.634H299.505Z" fill="#263238"/>
<path d="M337.137 141.957H330.469V148.296H337.137V141.957Z" fill="#263238"/>
<path d="M268.037 173.65H261.368V179.989H268.037V173.65Z" fill="#263238"/>
<path d="M294.512 135.629V129.291H301.169V122.952H307.838H314.506V116.613H307.838V110.275H301.169V116.613H294.512V122.952H287.843V129.291H281.175V135.629H287.843H294.512Z" fill="#263238"/>
<path d="M294.512 179.978V173.65H301.169V167.312H294.512H287.843V173.65H281.175V179.978H287.843H294.512Z" fill="#263238"/>
<path d="M314.506 205.321V198.994H307.838H301.169V192.655H294.512V198.994H287.843V205.321H281.175H274.506V211.66H281.175H287.843H294.512V205.321H301.169V211.66H307.838V205.321H314.506Z" fill="#263238"/>
<path d="M287.844 110.275V103.936H281.175H274.507V110.275H267.838V116.613H274.507H281.175V110.275H287.844Z" fill="#263238"/>
<path d="M287.843 116.614H281.175V122.952H287.843V116.614Z" fill="#263238"/>
<path d="M304.51 141.957H297.841V148.296V154.634V160.973H304.51H311.178V154.634H304.51V148.296H311.178V141.957H317.835V135.629H311.178V129.291H304.51V135.629V141.957Z" fill="#263238"/>
<path d="M281.175 122.952H274.506V129.291H281.175V122.952Z" fill="#263238"/>
<path d="M301.169 186.316V192.655H307.838H314.506V186.316H321.175H327.844V179.978H321.175H314.506H307.838V186.316H301.169Z" fill="#263238"/>
<path d="M337.137 160.973H330.469V167.312H337.137V160.973Z" fill="#263238"/>
<path d="M314.507 167.312H307.838V173.65H314.507V167.312Z" fill="#263238"/>
<path d="M331.172 148.296H324.504H317.835V154.634H324.504V160.973H331.172V154.634V148.296Z" fill="#263238"/>
<path d="M327.843 167.312H321.175V173.65H327.843V167.312Z" fill="#263238"/>
<path d="M254.512 205.444H274.518V179.978H247.715V186.316H241.175V192.655H247.715V198.994H241.175V205.332H247.715V205.444H247.843V211.66H241.175V224.326H247.843V217.987H254.512V205.444ZM269.385 184.857V200.698H252.719V184.857H269.385Z" fill="#263238"/>
<path d="M341.169 179.978H347.838V173.65H341.169H334.512H327.844V179.978H334.512H341.169Z" fill="#263238"/>
<path d="M341.17 154.634H347.839V148.296V141.957H341.17V148.296V154.634Z" fill="#263238"/>
<path d="M288.09 186.562H281.421V192.9V199.239H288.09V192.9V186.562Z" fill="#263238"/>
<path d="M354.507 179.978H347.838V186.316H354.507V179.978Z" fill="#263238"/>
<path d="M354.507 167.312V160.973H347.838V167.312V173.65H354.507V167.312Z" fill="#263238"/>
<path d="M234.506 211.671H227.837V217.999V224.337H234.506V217.999V211.671Z" fill="#263238"/>
<path d="M354.507 135.629V103.936H321.128V135.629H354.507ZM326.179 130.873V108.693H349.502V130.873H326.179Z" fill="#263238"/>
<path d="M344.509 113.45H331.172V126.127H344.509V113.45Z" fill="#263238"/>
<path d="M354.507 192.655H321.128V224.337H354.46L354.507 192.655ZM326.179 219.592V197.412H349.502V219.592H326.179Z" fill="#263238"/>
<path d="M344.509 202.158H331.172V214.835H344.509V202.158Z" fill="#263238"/>
<path d="M227.755 103.936V135.629H261.087V103.936H227.755ZM256.094 108.693V130.873H232.759V108.693H256.094Z" fill="#263238"/>
<path d="M251.089 113.45H237.752V126.127H251.089V113.45Z" fill="#263238"/>
<path d="M218.25 126.027V103.524C218.105 101.457 218.774 99.4122 220.125 97.7869C220.941 96.9312 221.947 96.2585 223.07 95.8173C224.193 95.3762 225.405 95.1776 226.618 95.2359H251.512C251.693 95.2142 251.86 95.1304 251.98 95.0001C252.101 94.8699 252.168 94.7022 252.168 94.5285C252.168 94.3548 252.101 94.1871 251.98 94.0568C251.86 93.9266 251.693 93.8428 251.512 93.8211H226.9C224.817 93.7168 222.749 94.2139 220.969 95.247C219.694 96.0609 218.649 97.1601 217.925 98.448C217.202 99.7358 216.823 101.173 216.82 102.633C216.75 106.331 216.82 110.041 216.82 113.773V126.027C216.843 126.199 216.931 126.358 217.068 126.473C217.205 126.587 217.382 126.651 217.565 126.651C217.747 126.651 217.924 126.587 218.061 126.473C218.198 126.358 218.286 126.199 218.309 126.027H218.25Z" fill="#E03832"/>
<path d="M249.332 235.054H225.658C223.482 235.196 221.329 234.56 219.622 233.272C218.719 232.497 218.009 231.541 217.543 230.474C217.077 229.407 216.866 228.254 216.926 227.1V203.427C216.903 203.255 216.815 203.097 216.678 202.982C216.541 202.867 216.365 202.803 216.182 202.803C215.999 202.803 215.823 202.867 215.686 202.982C215.549 203.097 215.461 203.255 215.438 203.427V226.821C215.334 228.801 215.856 230.764 216.938 232.458C217.79 233.68 218.946 234.683 220.303 235.379C221.661 236.075 223.178 236.441 224.72 236.446C228.611 236.513 232.514 236.446 236.44 236.446H249.332C249.513 236.425 249.68 236.341 249.801 236.211C249.922 236.08 249.988 235.913 249.988 235.739C249.988 235.565 249.922 235.398 249.801 235.267C249.68 235.137 249.513 235.053 249.332 235.032V235.054Z" fill="#E03832"/>
<path d="M363.32 203.205V225.708C363.473 227.776 362.804 229.823 361.445 231.445C360.629 232.3 359.623 232.973 358.5 233.414C357.378 233.855 356.166 234.054 354.952 233.996H330.035C329.854 234.017 329.687 234.101 329.566 234.231C329.446 234.362 329.379 234.529 329.379 234.703C329.379 234.877 329.446 235.044 329.566 235.175C329.687 235.305 329.854 235.389 330.035 235.41H354.647C356.734 235.513 358.804 235.016 360.589 233.985C361.871 233.174 362.923 232.077 363.653 230.789C364.383 229.501 364.767 228.062 364.773 226.599C364.844 222.9 364.773 219.191 364.773 215.459V203.205C364.751 203.032 364.662 202.874 364.525 202.759C364.388 202.644 364.212 202.581 364.029 202.581C363.847 202.581 363.67 202.644 363.533 202.759C363.396 202.874 363.308 203.032 363.285 203.205H363.32Z" fill="#E03832"/>
<path d="M330.504 95.2359H354.179C356.354 95.0905 358.508 95.7266 360.214 97.0183C361.113 97.7927 361.82 98.7468 362.284 99.8121C362.748 100.877 362.958 102.027 362.898 103.179V126.851C362.921 127.024 363.009 127.182 363.146 127.297C363.283 127.412 363.46 127.475 363.642 127.475C363.825 127.475 364.002 127.412 364.139 127.297C364.276 127.182 364.364 127.024 364.387 126.851V103.457C364.489 101.476 363.971 99.5105 362.898 97.8092C362.046 96.5874 360.89 95.5842 359.533 94.8885C358.175 94.1929 356.658 93.8262 355.116 93.8211C351.225 93.7542 347.322 93.8211 343.396 93.8211H330.504C330.323 93.8428 330.156 93.9266 330.035 94.0568C329.914 94.1871 329.848 94.3548 329.848 94.5285C329.848 94.7022 329.914 94.8699 330.035 95.0001C330.156 95.1304 330.323 95.2142 330.504 95.2359Z" fill="#E03832"/>
<path d="M230.157 270.501L231.868 266.881C233.674 267.973 235.764 268.567 237.904 268.597C240.049 268.597 240.881 268.017 240.881 267.171C240.881 264.419 230.474 266.424 230.474 259.963C230.474 256.866 233.146 254.326 238.584 254.326C240.894 254.29 243.176 254.812 245.217 255.841L243.623 259.495C242.077 258.66 240.338 258.201 238.56 258.158C236.381 258.158 235.595 258.849 235.595 259.718C235.595 262.38 245.979 260.386 245.979 266.803C245.979 269.833 243.319 272.373 237.881 272.373C235.172 272.451 232.496 271.802 230.157 270.501Z" fill="#E03832"/>
<path d="M247.421 263.372C247.421 258.08 251.687 254.326 257.488 254.326C258.979 254.26 260.465 254.522 261.831 255.092C263.198 255.662 264.407 256.525 265.364 257.612L262.059 260.442C261.555 259.808 260.903 259.294 260.155 258.941C259.407 258.587 258.582 258.403 257.746 258.403C256.36 258.403 255.03 258.927 254.05 259.859C253.07 260.79 252.519 262.054 252.519 263.372C252.519 264.69 253.07 265.953 254.05 266.885C255.03 267.817 256.36 268.34 257.746 268.34C258.583 268.343 259.408 268.161 260.157 267.807C260.906 267.453 261.557 266.937 262.059 266.302L265.364 269.142C264.404 270.226 263.194 271.085 261.828 271.653C260.462 272.221 258.978 272.482 257.488 272.418C251.687 272.418 247.421 268.663 247.421 263.372Z" fill="#E03832"/>
<path d="M279.616 268.686H271.904L270.474 272.028H265.188L273.264 254.627H278.362L286.472 272.028H281.081L279.616 268.686ZM278.092 265.065L275.748 259.495L273.404 265.065H278.092Z" fill="#E03832"/>
<path d="M305.318 254.672V272.072H301.052L293.001 262.804V272.072H287.926V254.672H292.192L300.267 263.94V254.672H305.318Z" fill="#E03832"/>
<path d="M321.644 256.833H315.374V254.672H330.505V256.833H324.223V272.072H321.632L321.644 256.833Z" fill="#E03832"/>
<path d="M331.677 263.372C331.677 258.281 335.802 254.46 341.428 254.46C343.914 254.46 346.299 255.399 348.058 257.07C349.816 258.741 350.804 261.008 350.804 263.372C350.804 265.735 349.816 268.002 348.058 269.674C346.299 271.345 343.914 272.284 341.428 272.284C335.744 272.273 331.677 268.474 331.677 263.372ZM348.507 263.372C348.523 262.028 348.117 260.71 347.342 259.586C346.567 258.462 345.456 257.583 344.153 257.062C342.85 256.541 341.413 256.4 340.025 256.658C338.638 256.917 337.363 257.563 336.363 258.513C335.363 259.463 334.684 260.675 334.412 261.994C334.14 263.313 334.288 264.679 334.836 265.918C335.385 267.156 336.309 268.212 337.492 268.949C338.674 269.686 340.061 270.071 341.475 270.056C342.399 270.07 343.318 269.906 344.174 269.574C345.03 269.242 345.808 268.749 346.459 268.125C347.11 267.501 347.622 266.758 347.964 265.941C348.306 265.125 348.47 264.251 348.448 263.372H348.507Z" fill="#E03832"/>
<path d="M441.762 489.692L444.106 513.086C444.106 513.086 417.268 522.622 416.975 527.334L467.722 527.468V523.948L465.601 511.905L462.46 488.511L441.762 489.692Z" fill="#455A64"/>
<path d="M459.424 509.466C459.925 509.611 460.352 509.926 460.625 510.351C460.897 510.776 460.995 511.282 460.9 511.772C460.768 512.243 460.452 512.65 460.018 512.91C459.583 513.17 459.061 513.265 458.556 513.175C458.027 513.022 457.576 512.688 457.29 512.238C457.004 511.787 456.904 511.252 457.009 510.736C457.2 510.247 457.583 509.849 458.078 509.624C458.572 509.4 459.139 509.367 459.658 509.532" fill="#E0E0E0"/>
<path d="M467.746 527.479V523.959L419.072 524.839C419.072 524.839 416.728 525.797 417.033 527.345L467.746 527.479Z" fill="#263238"/>
<path d="M443.286 512.852C443.286 513.097 444.563 513.198 445.817 513.966C447.071 514.735 447.728 515.749 447.962 515.648C448.196 515.548 447.821 514.167 446.286 513.253C444.751 512.34 443.227 512.629 443.286 512.852Z" fill="#263238"/>
<path d="M437.848 515.002C437.848 515.236 438.891 515.648 439.758 516.662C440.625 517.676 440.871 518.756 441.118 518.745C441.364 518.734 441.528 517.375 440.426 516.127C439.324 514.88 437.848 514.779 437.848 515.002Z" fill="#263238"/>
<path d="M434.812 521.207C435.047 521.263 435.398 520.093 434.742 518.734C434.086 517.375 432.902 516.896 432.796 517.096C432.691 517.297 433.418 517.999 433.968 519.091C434.519 520.182 434.519 521.185 434.812 521.207Z" fill="#263238"/>
<path d="M441.492 507.227C441.598 507.449 442.758 507.104 444.188 507.227C445.618 507.349 446.743 507.75 446.872 507.538C447 507.327 445.934 506.48 444.235 506.424C442.535 506.369 441.363 507.037 441.492 507.227Z" fill="#263238"/>
<path d="M504.124 490.36L506.304 513.365C506.304 513.365 479.875 522.577 479.559 527.212L529.404 527.624V524.159L527.4 512.317L524.47 489.324L504.124 490.36Z" fill="#455A64"/>
<path d="M521.33 509.889C521.813 510.031 522.224 510.336 522.488 510.746C522.751 511.156 522.848 511.644 522.759 512.117C522.629 512.588 522.313 512.993 521.876 513.248C521.44 513.504 520.916 513.589 520.415 513.487C519.894 513.337 519.451 513.006 519.174 512.561C518.896 512.116 518.804 511.588 518.915 511.081C519.108 510.606 519.485 510.219 519.97 510.001C520.454 509.784 521.008 509.751 521.517 509.911" fill="#E0E0E0"/>
<path d="M529.405 527.624V524.159L481.575 524.75C481.575 524.75 479.302 525.686 479.559 527.212L529.405 527.624Z" fill="#263238"/>
<path d="M505.472 513.12C505.472 513.353 506.726 513.465 507.956 514.234C509.187 515.002 509.82 515.994 510.054 515.905C510.289 515.815 509.914 514.434 508.413 513.532C506.913 512.629 505.425 512.897 505.472 513.12Z" fill="#263238"/>
<path d="M500.116 515.203C500.057 515.426 501.135 515.838 501.979 516.84C502.823 517.843 503.057 518.901 503.303 518.901C503.55 518.901 503.725 517.553 502.647 516.317C501.569 515.08 500.127 514.98 500.116 515.203Z" fill="#263238"/>
<path d="M497.057 521.274C497.28 521.33 497.632 520.16 496.999 518.846C496.366 517.531 495.194 517.03 495.088 517.23C494.983 517.431 495.71 518.121 496.26 519.191C496.811 520.26 496.811 521.252 497.057 521.274Z" fill="#263238"/>
<path d="M503.749 507.572C503.843 507.795 504.991 507.472 506.398 507.572C507.804 507.672 508.906 508.095 509.035 507.895C509.163 507.694 508.109 506.848 506.456 506.781C504.804 506.714 503.62 507.394 503.749 507.572Z" fill="#263238"/>
<path d="M440.672 286.12C440.672 286.12 428.635 319.239 428.225 343.87C427.815 368.5 427.393 407.668 432.784 450.88C438.175 494.092 440.672 511.449 440.672 511.449H468.05C469.779 494.417 470.609 477.315 470.534 460.205C470.112 435.975 468.12 428.3 470.534 401.653C472.949 375.006 476.863 358.986 480.942 350.91C480.942 350.91 492.24 338.144 493.072 320.631C493.416 309.529 491.481 298.469 487.376 288.069L440.672 286.12Z" fill="#263238"/>
<path d="M464.991 332.585C465.448 333.91 473.57 388.196 479.501 412.147C485.431 436.098 492.018 442.425 493.178 461.898C494.502 484.312 500.972 511.449 500.972 511.449H530.131C530.131 511.449 526.029 470.041 521.927 437.668C517.825 405.296 511.906 365.392 512.821 353.417C513.735 341.441 516.008 326.681 512.821 309.893C509.633 293.105 502.741 288.727 502.741 288.727L478.012 287.613L464.991 332.585Z" fill="#263238"/>
<path d="M492.428 301.526C492.609 301.794 492.762 302.077 492.885 302.373C493.289 303.195 493.618 304.049 493.869 304.924C494.709 308.165 495.033 311.507 494.83 314.839C494.63 319.779 493.844 324.682 492.486 329.454C491.694 332.281 490.631 335.033 489.31 337.676C487.773 340.45 486.009 343.106 484.036 345.618C480.075 350.799 478.176 356.758 476.641 362.05C475.4 366.817 474.476 371.654 473.875 376.532C473.336 380.698 473.008 384.085 472.773 386.424C472.645 387.538 472.551 388.452 472.48 389.12C472.463 389.435 472.416 389.749 472.34 390.056C472.319 389.741 472.319 389.424 472.34 389.109C472.34 388.441 472.434 387.538 472.504 386.413C472.68 384.063 472.938 380.665 473.418 376.487C473.964 371.58 474.849 366.713 476.067 361.916C476.805 359.084 477.725 356.298 478.821 353.572C479.423 352.132 480.104 350.723 480.86 349.35C481.663 347.949 482.547 346.592 483.509 345.284C485.472 342.799 487.224 340.169 488.748 337.419C490.061 334.813 491.124 332.098 491.924 329.309C493.313 324.583 494.154 319.727 494.432 314.827C494.665 311.527 494.409 308.212 493.67 304.98C493.441 304.107 493.147 303.251 492.791 302.418C492.651 302.128 492.529 301.83 492.428 301.526Z" fill="#455A64"/>
<path d="M405.055 173.784C404.987 173.593 404.844 173.433 404.657 173.338C404.328 173.205 403.977 173.483 403.731 173.728L400.895 176.591L403.696 181.638C404.711 180.602 405.382 179.303 405.624 177.906C405.866 176.509 405.668 175.075 405.055 173.784Z" fill="#FFBF9D"/>
<path d="M409.907 182.072C409.906 181.566 409.782 181.066 409.544 180.613C409.414 180.39 409.218 180.21 408.98 180.095C408.742 179.98 408.473 179.935 408.207 179.967C407.721 180.141 407.326 180.489 407.106 180.936C406.262 182.184 405.418 183.431 404.586 184.679L407.434 190.583C409.198 188.072 410.065 185.088 409.907 182.072Z" fill="#FFBF9D"/>
<path d="M411.244 189.592C411.126 189.168 410.857 188.667 410.4 188.7C409.943 188.734 409.849 189.057 409.696 189.347L408.009 192.466L410.47 196.688C411.593 194.481 411.866 191.97 411.244 189.592Z" fill="#FFBF9D"/>
<path d="M376.505 174.374L394.32 216.484C394.475 216.855 394.757 217.166 395.12 217.368C395.483 217.57 395.907 217.651 396.324 217.598L414.748 215.136C415.025 215.099 415.291 215.003 415.525 214.856C415.758 214.709 415.954 214.514 416.098 214.285C416.242 214.056 416.33 213.8 416.356 213.535C416.382 213.269 416.345 213.002 416.248 212.752L400.355 170.888C400.209 170.511 399.935 170.192 399.576 169.98C399.217 169.768 398.795 169.676 398.375 169.718L378.04 171.946C377.754 171.976 377.478 172.069 377.236 172.217C376.993 172.365 376.789 172.564 376.641 172.799C376.492 173.034 376.403 173.299 376.379 173.572C376.356 173.845 376.399 174.12 376.505 174.374Z" fill="#263238"/>
<path d="M378.556 174.575L395.374 214.334C395.418 214.435 395.495 214.52 395.595 214.574C395.695 214.629 395.811 214.65 395.925 214.634L414.677 212.117C414.752 212.108 414.823 212.083 414.886 212.044C414.949 212.005 415.002 211.953 415.042 211.892C415.081 211.831 415.106 211.763 415.114 211.692C415.121 211.621 415.112 211.549 415.087 211.482L400.086 171.99C400.043 171.89 399.968 171.806 399.871 171.749C399.774 171.693 399.66 171.668 399.547 171.679L378.943 173.907C378.866 173.917 378.793 173.945 378.729 173.987C378.665 174.029 378.613 174.085 378.575 174.15C378.538 174.214 378.516 174.286 378.513 174.36C378.51 174.434 378.525 174.507 378.556 174.575Z" fill="#455A64"/>
<path d="M389.995 190.26L390.147 189.692C390.494 189.846 390.881 189.901 391.261 189.848C391.694 189.781 391.847 189.614 391.811 189.425C391.718 188.856 389.936 189.536 389.737 188.422C389.643 187.898 390.007 187.408 390.909 187.308C391.301 187.233 391.707 187.264 392.081 187.397L391.94 187.965C391.646 187.858 391.327 187.823 391.014 187.865C390.581 187.943 390.44 188.121 390.475 188.311C390.569 188.868 392.351 188.188 392.55 189.302C392.644 189.803 392.269 190.305 391.378 190.416C390.911 190.508 390.426 190.453 389.995 190.26Z" fill="white"/>
<path d="M392.738 188.578C392.698 188.366 392.704 188.148 392.757 187.938C392.81 187.728 392.907 187.531 393.043 187.358C393.18 187.186 393.352 187.042 393.549 186.935C393.747 186.829 393.965 186.762 394.191 186.74C394.436 186.692 394.689 186.696 394.932 186.752C395.175 186.808 395.402 186.914 395.597 187.063L395.199 187.564C395.082 187.465 394.944 187.393 394.793 187.352C394.643 187.312 394.485 187.304 394.332 187.33C394.198 187.351 394.069 187.398 393.954 187.466C393.839 187.534 393.739 187.623 393.66 187.728C393.581 187.833 393.525 187.952 393.494 188.078C393.464 188.203 393.46 188.334 393.482 188.461C393.504 188.588 393.553 188.71 393.625 188.82C393.696 188.929 393.79 189.024 393.901 189.099C394.011 189.174 394.136 189.228 394.268 189.257C394.401 189.286 394.538 189.29 394.671 189.269C394.825 189.245 394.971 189.188 395.099 189.103C395.227 189.018 395.333 188.907 395.41 188.778L395.961 189.124C395.769 189.4 395.496 189.618 395.176 189.749C394.856 189.879 394.503 189.918 394.16 189.86C393.817 189.802 393.499 189.65 393.247 189.422C392.994 189.194 392.817 188.9 392.738 188.578Z" fill="white"/>
<path d="M398.48 188.556L397.003 188.79L396.839 189.491L396.077 189.603L396.968 186.35L397.694 186.239L399.652 189.046L398.878 189.168L398.48 188.556ZM398.163 188.066L397.448 186.952L397.144 188.188L398.163 188.066Z" fill="white"/>
<path d="M402.36 185.492L402.887 188.522L402.278 188.623L400.367 187.03L400.695 188.868L399.969 188.99L399.43 185.96L400.039 185.86L401.949 187.453L401.621 185.615L402.36 185.492Z" fill="white"/>
<path d="M380.713 199.183L382.682 179.788C382.682 179.788 385.682 179.788 386.573 183.91C387.187 187.636 387.5 191.401 387.511 195.173C387.511 195.173 392.82 197.523 394.378 209.655L397.988 213.81L389.608 221.786C389.608 221.786 381.029 206.023 380.713 199.183Z" fill="#FFBF9D"/>
<path d="M405.148 199.774L395.268 201.422C394.767 201.504 394.25 201.416 393.809 201.174C393.368 200.932 393.03 200.551 392.854 200.097C392.745 199.814 392.702 199.512 392.728 199.212C392.755 198.912 392.85 198.621 393.008 198.36C393.165 198.099 393.381 197.873 393.64 197.7C393.899 197.527 394.195 197.409 394.507 197.356L404.387 195.696C404.852 195.612 405.333 195.675 405.757 195.876C406.181 196.077 406.523 196.406 406.731 196.81C406.884 197.099 406.964 197.418 406.964 197.742C406.964 198.065 406.883 198.384 406.729 198.673C406.575 198.961 406.352 199.211 406.077 199.403C405.802 199.594 405.484 199.721 405.148 199.774Z" fill="#E03832"/>
<path d="M396.593 183.81C396.593 183.966 395.784 184.211 394.694 184.356C394.24 184.416 393.782 184.449 393.323 184.456V184.033L393.687 184.1V184.378C393.534 184.378 393.452 184.289 393.452 184.245C393.452 184.2 393.534 184.144 393.687 184.1V184.378L393.335 184.456V184.033C393.77 183.92 394.212 183.835 394.659 183.777C395.679 183.643 396.558 183.654 396.593 183.81Z" fill="white"/>
<path d="M403.344 191.129C401.508 191.744 399.612 192.18 397.683 192.432C395.793 192.863 393.86 193.106 391.917 193.156C393.752 192.538 395.649 192.102 397.578 191.853C399.468 191.422 401.401 191.18 403.344 191.129Z" fill="white"/>
<path d="M506.374 152.451C503.936 136.387 499.623 118.764 475.48 120.401C475.48 120.401 462.588 122.696 455.556 133.134C451.396 139.272 458.345 180.401 463.819 196.331L509.327 199.74L516.981 197.579C516.981 197.579 507.886 162.432 506.374 152.451Z" fill="#263238"/>
<path d="M472.316 126.383L473.828 125.013L490.154 131.263C491.294 131.324 492.368 131.789 493.165 132.566C493.961 133.344 494.422 134.378 494.455 135.462L494.268 186.038C494.442 189.304 493.424 192.527 491.385 195.162L489.041 198.036C487.843 199.559 486.266 200.774 484.45 201.572C482.635 202.37 480.639 202.725 478.642 202.606C476.646 202.487 474.713 201.896 473.017 200.888C471.321 199.88 469.916 198.486 468.929 196.833C468.675 196.425 468.482 195.987 468.355 195.529C468.247 195.164 468.165 194.791 468.109 194.415C467.628 190.349 467.593 186.829 467.593 186.829C467.3 182.373 467.206 180.524 467.206 180.568C467.206 180.613 457.209 179.454 454.513 167.278C453.166 161.218 453.423 152.874 453.799 144.664C454.373 133.234 462.659 126.372 472.316 126.383Z" fill="#FFBF9D"/>
<path d="M473.336 153.732C473.357 154.143 473.545 154.53 473.859 154.812C474.174 155.095 474.591 155.25 475.024 155.247C475.236 155.253 475.447 155.219 475.645 155.146C475.843 155.073 476.024 154.963 476.177 154.823C476.33 154.683 476.452 154.515 476.535 154.33C476.619 154.144 476.663 153.945 476.664 153.743C476.643 153.332 476.456 152.945 476.141 152.663C475.827 152.381 475.409 152.225 474.977 152.228C474.764 152.222 474.553 152.257 474.355 152.329C474.157 152.402 473.976 152.512 473.823 152.652C473.671 152.792 473.549 152.96 473.465 153.145C473.381 153.331 473.337 153.53 473.336 153.732Z" fill="#263238"/>
<path d="M456.764 154.222C456.782 154.634 456.969 155.023 457.284 155.306C457.599 155.589 458.018 155.743 458.451 155.737C458.663 155.743 458.874 155.709 459.071 155.636C459.269 155.563 459.449 155.453 459.601 155.313C459.752 155.173 459.873 155.005 459.956 154.819C460.038 154.634 460.081 154.435 460.08 154.233C460.065 153.823 459.881 153.434 459.568 153.151C459.254 152.867 458.837 152.712 458.404 152.718C458.192 152.712 457.981 152.747 457.783 152.82C457.585 152.892 457.404 153.002 457.251 153.142C457.098 153.282 456.976 153.45 456.893 153.635C456.809 153.821 456.765 154.02 456.764 154.222Z" fill="#263238"/>
<path d="M455.556 147.85C455.767 148.051 456.974 147.104 458.767 147.026C460.561 146.948 461.897 147.728 462.084 147.516C462.272 147.304 461.944 147.059 461.358 146.692C460.561 146.214 459.625 145.988 458.685 146.045C457.757 146.084 456.865 146.404 456.142 146.959C455.615 147.382 455.439 147.761 455.556 147.85Z" fill="#263238"/>
<path d="M473.664 148.028C473.898 148.207 475.011 147.148 476.769 146.914C478.527 146.68 479.969 147.304 480.133 147.07C480.297 146.836 479.946 146.636 479.313 146.324C478.466 145.93 477.511 145.798 476.582 145.945C475.67 146.065 474.821 146.455 474.156 147.059C473.675 147.56 473.546 147.95 473.664 148.028Z" fill="#263238"/>
<path d="M467.429 160.416C466.473 160.173 465.488 160.049 464.499 160.048C464.042 160.048 463.608 159.959 463.515 159.67C463.459 159.226 463.54 158.777 463.749 158.377L464.921 155.035C466.538 150.245 467.687 146.324 467.488 146.257C467.288 146.19 465.8 150.034 464.183 154.813L463.069 158.155C462.805 158.687 462.751 159.292 462.917 159.859C462.992 160.009 463.102 160.14 463.238 160.244C463.374 160.348 463.532 160.422 463.702 160.461C463.956 160.513 464.216 160.536 464.476 160.527C465.461 160.6 466.453 160.563 467.429 160.416Z" fill="#263238"/>
<path d="M467.253 180.468C473.347 180.269 479.263 178.464 484.341 175.255C484.341 175.255 480.438 183.966 467.429 183.442L467.253 180.468Z" fill="#FF9A6C"/>
<path d="M468.401 164.426C468.721 164.005 469.148 163.668 469.642 163.446C470.135 163.224 470.68 163.124 471.226 163.156C471.62 163.173 472.006 163.264 472.363 163.425C472.719 163.586 473.038 163.812 473.3 164.092C473.556 164.363 473.717 164.701 473.763 165.062C473.81 165.422 473.738 165.788 473.558 166.109C473.285 166.433 472.915 166.672 472.497 166.793C472.078 166.915 471.631 166.913 471.214 166.788C470.357 166.543 469.56 166.137 468.87 165.596C468.658 165.473 468.475 165.31 468.331 165.117C468.265 165.025 468.23 164.916 468.23 164.805C468.23 164.694 468.265 164.585 468.331 164.493" fill="#FF9A6C"/>
<path d="M472.75 161.307C472.457 161.307 472.551 163.145 470.957 164.527C469.363 165.908 467.3 165.808 467.288 166.064C467.277 166.32 467.769 166.409 468.648 166.387C469.782 166.348 470.865 165.93 471.707 165.206C472.519 164.509 473.011 163.537 473.078 162.499C473.113 161.731 472.879 161.285 472.75 161.307Z" fill="#263238"/>
<path d="M471.953 141.411C472.199 141.846 473.934 141.411 476.043 141.311C478.153 141.211 479.923 141.534 480.122 141.088C480.216 140.876 479.864 140.487 479.114 140.141C478.13 139.717 477.052 139.526 475.973 139.584C474.893 139.617 473.837 139.891 472.891 140.386C472.176 140.798 471.847 141.211 471.953 141.411Z" fill="#263238"/>
<path d="M455.802 140.564C456.142 140.932 457.35 140.475 458.826 140.386C460.303 140.297 461.569 140.509 461.838 140.097C461.955 139.896 461.733 139.517 461.17 139.183C460.42 138.766 459.55 138.587 458.686 138.671C457.829 138.734 457.012 139.04 456.342 139.551C455.814 139.974 455.662 140.364 455.802 140.564Z" fill="#263238"/>
<path d="M494.081 157.074C494.081 157.074 484.939 159.781 479.759 138.337C478.001 130.995 470.84 125.058 470.84 125.058L473.746 124.233C473.746 124.233 491.772 129.057 492.076 129.269C492.381 129.48 496.624 138.181 496.624 138.181L494.081 157.074Z" fill="#263238"/>
<path d="M491.83 156.227C491.83 155.314 492.779 153.108 493.729 152.885C496.249 152.384 500.831 152.362 501.194 158.455C501.698 166.833 492.744 165.585 492.721 165.351C492.697 165.117 491.982 159.391 491.83 156.227Z" fill="#FFBF9D"/>
<path d="M495.217 162.098C495.217 162.098 495.381 162.187 495.651 162.288C495.837 162.362 496.036 162.4 496.237 162.4C496.438 162.4 496.638 162.362 496.823 162.288C497.725 161.92 498.429 160.472 498.382 158.946C498.361 158.225 498.173 157.517 497.831 156.874C497.736 156.623 497.58 156.396 497.377 156.213C497.173 156.029 496.927 155.893 496.659 155.815C496.478 155.782 496.29 155.809 496.128 155.892C495.965 155.975 495.838 156.11 495.768 156.272C495.663 156.506 495.768 156.673 495.686 156.695C495.604 156.718 495.487 156.562 495.546 156.216C495.577 156.006 495.685 155.813 495.85 155.67C496.084 155.479 496.387 155.383 496.694 155.403C497.059 155.454 497.404 155.593 497.697 155.805C497.99 156.017 498.222 156.297 498.37 156.617C498.791 157.322 499.024 158.113 499.05 158.923C499.05 160.617 498.276 162.265 497.022 162.666C496.789 162.744 496.541 162.771 496.296 162.746C496.051 162.721 495.814 162.644 495.604 162.522C495.253 162.299 495.194 162.109 495.217 162.098Z" fill="#FF9A6C"/>
<path d="M431.73 206.458C434.835 211.181 437.836 219.748 437.836 219.748L429.901 229.573C429.901 229.573 416.458 222.889 412.638 220.75C411.648 220.146 410.525 219.765 409.356 219.636C408.886 219.591 408.447 219.387 408.12 219.063C407.793 218.738 407.597 218.314 407.569 217.865C407.541 217.416 407.682 216.972 407.966 216.613C408.251 216.254 408.66 216.003 409.122 215.904C410.342 215.911 411.555 216.092 412.72 216.439C414.102 216.921 415.575 217.122 417.044 217.029C417.044 217.029 416.4 216.339 415.134 214.623C413.868 212.908 407.563 206.769 405.594 203.806C403.086 200.03 404.129 197.757 405.5 198.236C407.2 198.86 414.794 208.741 416.048 208.362C416.048 208.362 417.162 206.402 418.463 206.134C419.329 205.969 420.221 205.969 421.088 206.134C421.088 206.134 421.228 204.319 422.447 203.817C423.422 203.522 424.472 203.538 425.436 203.862C425.436 203.862 425.565 202.18 426.526 201.968C427.487 201.756 429.397 202.904 431.73 206.458Z" fill="#FFBF9D"/>
<path d="M399.125 212.83C399.277 213.275 420.947 234.363 420.947 234.363C420.947 234.363 439.031 215.002 444.54 207.872C450.048 200.743 455.568 192.02 462.753 190.383C469.937 188.745 478.961 192.722 478.961 192.722L470.031 218.043L453.951 239.042C453.951 239.042 436.593 259.774 428.331 262.982C420.068 266.19 411.923 261.578 408.407 258.091C404.891 254.605 384.029 224.46 384.029 224.46L399.125 212.83Z" fill="#E03832"/>
<path d="M494.713 289.462L439.887 286.565C439.887 286.565 445.747 262.247 450.974 237.895C456.201 213.543 469.972 190.383 469.972 190.383L519.841 198.593C519.841 198.593 521.634 211.705 515.446 235.622C512.598 246.651 505.882 259.451 499.295 275.08L505.87 290.052L494.689 289.462" fill="#E03832"/>
<path d="M468.8 221.753C468.573 222.126 468.302 222.474 467.992 222.789L465.648 225.496C463.667 227.791 460.96 230.999 458.03 234.53C455.1 238.062 452.322 241.214 450.259 243.442C449.228 244.556 448.384 245.448 447.775 246.038C447.481 246.372 447.147 246.671 446.778 246.929C447.011 246.559 447.282 246.212 447.587 245.893C448.232 245.158 449.005 244.244 449.931 243.175C451.9 240.88 454.619 237.683 457.549 234.14C460.479 230.598 463.245 227.456 465.308 225.228C466.339 224.114 467.195 223.223 467.804 222.622C468.101 222.298 468.435 222.006 468.8 221.753Z" fill="#263238"/>
<path d="M496.834 274.545C495.457 274.476 494.087 274.32 492.732 274.077C490.212 273.743 486.72 273.298 482.864 272.908C479.008 272.518 475.492 272.273 472.949 272.106C471.57 272.077 470.196 271.958 468.835 271.749C469.22 271.672 469.614 271.645 470.007 271.671C470.722 271.671 471.753 271.671 473.031 271.671C475.586 271.727 479.113 271.927 482.981 272.306C486.849 272.685 490.353 273.209 492.861 273.654C494.115 273.877 495.123 274.066 495.826 274.222C496.175 274.289 496.514 274.397 496.834 274.545Z" fill="#263238"/>
<path d="M519.454 195.429C518.013 190.371 514.192 187.508 513.114 182.373C512.188 177.917 514.555 172.703 513.665 168.27C512.774 163.836 510.676 160.55 509.223 156.361C507.969 152.763 506.246 149.276 505.566 145.544C505.328 143.362 504.964 141.194 504.476 139.049C503.832 136.944 501.218 133.401 495.815 126.105L480.392 140.709C482.736 151.749 487.33 154.478 487.201 161.285C487.201 163.88 486.568 166.587 487.529 169.027C488.338 171.066 490.19 172.737 490.447 174.909C490.799 177.861 488.103 180.357 487.529 183.286C486.955 186.216 488.701 189.28 489.217 192.343C489.955 197.033 487.599 201.612 486.709 206.279C486.118 208.526 486.401 210.9 487.506 212.963C489.299 215.704 493.014 216.55 496.354 217.141C499.003 217.62 501.781 218.088 504.336 217.297C506.891 216.506 509.024 213.955 508.414 211.515C509.059 213.142 509.715 214.757 510.36 216.383C511.769 216.836 513.293 216.859 514.717 216.45C516.142 216.041 517.396 215.219 518.306 214.1C520.169 211.872 519.243 209.265 519.056 206.446C518.868 203.628 520.216 198.158 519.454 195.429Z" fill="#263238"/>
<path d="M506.96 208.775C507.887 207.946 508.625 206.945 509.128 205.834C509.692 204.518 509.975 203.11 509.96 201.69C509.916 199.807 509.519 197.948 508.788 196.198C508.027 194.226 506.925 192.176 505.835 189.915C504.582 187.516 503.788 184.925 503.491 182.262C503.394 180.802 503.573 179.339 504.018 177.939C504.541 176.553 504.933 175.125 505.19 173.673C505.345 172.188 504.891 170.704 503.925 169.529C502.891 168.313 501.711 167.218 500.409 166.265C499.069 165.279 497.885 164.116 496.893 162.811C495.962 161.467 495.483 159.886 495.521 158.277C495.521 155.169 496.518 152.317 496.26 149.588C495.945 146.994 494.614 144.608 492.533 142.904C490.749 141.368 488.823 139.989 486.778 138.782C483.04 136.554 480.309 134.103 479.125 131.976C478.645 131.184 478.293 130.327 478.082 129.436C478.023 129.124 478 128.89 477.977 128.734C477.966 128.652 477.966 128.57 477.977 128.489C478.234 129.666 478.694 130.795 479.336 131.831C480.508 133.881 483.286 136.187 487.024 138.415C489.107 139.61 491.068 140.986 492.884 142.525C495.073 144.296 496.479 146.786 496.822 149.499C497.092 152.373 496.107 155.258 496.119 158.221C496.084 159.719 496.529 161.192 497.397 162.444C498.373 163.707 499.533 164.832 500.842 165.786C502.187 166.76 503.407 167.882 504.476 169.128C505.525 170.416 506.012 172.04 505.835 173.661C505.592 175.153 505.199 176.619 504.663 178.04C504.224 179.375 504.046 180.776 504.136 182.172C504.389 184.788 505.123 187.34 506.304 189.714C507.37 191.942 508.46 194.048 509.199 196.064C509.922 197.86 510.295 199.767 510.3 201.69C510.289 203.147 509.966 204.588 509.351 205.923C508.955 206.751 508.408 207.505 507.734 208.151C507.506 208.391 507.246 208.6 506.96 208.775Z" fill="#455A64"/>
<path d="M226.203 301.172V297.078H231.906C232.74 297.078 233.411 296.943 233.922 296.672C234.443 296.401 234.823 296.031 235.062 295.562C235.312 295.083 235.438 294.536 235.438 293.922C235.438 293.297 235.312 292.714 235.062 292.172C234.823 291.63 234.443 291.193 233.922 290.859C233.411 290.526 232.74 290.359 231.906 290.359H227.984V309H222.891V286.25H231.906C233.708 286.25 235.255 286.583 236.547 287.25C237.849 287.906 238.844 288.807 239.531 289.953C240.229 291.099 240.578 292.411 240.578 293.891C240.578 295.359 240.229 296.641 239.531 297.734C238.844 298.828 237.849 299.677 236.547 300.281C235.255 300.875 233.708 301.172 231.906 301.172H226.203ZM252.312 286.25C254.073 286.25 255.589 286.516 256.859 287.047C258.13 287.568 259.109 288.339 259.797 289.359C260.484 290.37 260.828 291.63 260.828 293.141C260.828 294.401 260.625 295.469 260.219 296.344C259.812 297.219 259.24 297.943 258.5 298.516C257.76 299.078 256.896 299.547 255.906 299.922L254.281 300.859H246.953L246.922 296.75H252.297C253.057 296.75 253.693 296.625 254.203 296.375C254.724 296.115 255.109 295.75 255.359 295.281C255.609 294.802 255.734 294.234 255.734 293.578C255.734 292.578 255.453 291.792 254.891 291.219C254.328 290.646 253.469 290.359 252.312 290.359H248.734V309H243.656V286.25H252.312ZM251.094 298.906L256.484 298.875L261.641 308.766V309H256.203L251.094 298.906ZM283.172 298.078C283.172 300.411 282.755 302.417 281.922 304.094C281.099 305.771 279.948 307.062 278.469 307.969C277 308.865 275.307 309.312 273.391 309.312C271.474 309.312 269.771 308.865 268.281 307.969C266.802 307.062 265.641 305.771 264.797 304.094C263.964 302.417 263.547 300.411 263.547 298.078V297.188C263.547 294.854 263.964 292.849 264.797 291.172C265.63 289.495 266.786 288.203 268.266 287.297C269.745 286.391 271.443 285.938 273.359 285.938C275.276 285.938 276.974 286.391 278.453 287.297C279.932 288.203 281.089 289.495 281.922 291.172C282.755 292.849 283.172 294.854 283.172 297.188V298.078ZM278.031 297.156C278.031 295.615 277.849 294.323 277.484 293.281C277.12 292.24 276.589 291.453 275.891 290.922C275.193 290.38 274.349 290.109 273.359 290.109C272.349 290.109 271.5 290.38 270.812 290.922C270.125 291.453 269.599 292.24 269.234 293.281C268.88 294.323 268.703 295.615 268.703 297.156V298.078C268.703 299.599 268.885 300.885 269.25 301.938C269.615 302.99 270.141 303.792 270.828 304.344C271.526 304.885 272.38 305.156 273.391 305.156C274.38 305.156 275.219 304.885 275.906 304.344C276.604 303.792 277.13 302.99 277.484 301.938C277.849 300.885 278.031 299.599 278.031 298.078V297.156ZM304.469 301.344C304.375 302.896 303.948 304.276 303.188 305.484C302.438 306.682 301.385 307.62 300.031 308.297C298.677 308.974 297.062 309.312 295.188 309.312C293.208 309.312 291.505 308.87 290.078 307.984C288.661 307.089 287.573 305.818 286.812 304.172C286.052 302.516 285.672 300.552 285.672 298.281V296.984C285.672 294.703 286.062 292.74 286.844 291.094C287.635 289.448 288.745 288.177 290.172 287.281C291.599 286.375 293.276 285.922 295.203 285.922C297.141 285.922 298.771 286.276 300.094 286.984C301.417 287.693 302.443 288.661 303.172 289.891C303.901 291.12 304.339 292.51 304.484 294.062H299.422C299.339 292.771 298.99 291.786 298.375 291.109C297.76 290.432 296.703 290.094 295.203 290.094C294.214 290.094 293.396 290.333 292.75 290.812C292.104 291.281 291.62 292.021 291.297 293.031C290.984 294.042 290.828 295.349 290.828 296.953V298.281C290.828 299.865 290.969 301.161 291.25 302.172C291.542 303.182 292.005 303.932 292.641 304.422C293.286 304.911 294.135 305.156 295.188 305.156C296.104 305.156 296.865 305.021 297.469 304.75C298.073 304.469 298.531 304.047 298.844 303.484C299.156 302.911 299.339 302.198 299.391 301.344H304.469ZM322.734 309H310.719V304.906H322.734V309ZM312.391 309H307.297V286.25H312.391V309ZM321.172 299.297H310.719V295.328H321.172V299.297ZM322.734 290.359H310.719V286.25H322.734V290.359ZM340.703 309H328.688V304.906H340.703V309ZM330.359 309H325.266V286.25H330.359V309ZM339.141 299.297H328.688V295.328H339.141V299.297ZM340.703 290.359H328.688V286.25H340.703V290.359ZM345.422 309L345.453 304.906H350.359C351.526 304.906 352.505 304.646 353.297 304.125C354.089 303.604 354.688 302.839 355.094 301.828C355.5 300.818 355.703 299.573 355.703 298.094V297.125C355.703 295.635 355.5 294.391 355.094 293.391C354.688 292.391 354.089 291.635 353.297 291.125C352.505 290.615 351.531 290.359 350.375 290.359H345.328V286.25H350.375C352.438 286.25 354.255 286.708 355.828 287.625C357.401 288.542 358.63 289.823 359.516 291.469C360.401 293.104 360.844 295 360.844 297.156V298.094C360.844 300.26 360.401 302.161 359.516 303.797C358.63 305.432 357.401 306.708 355.828 307.625C354.255 308.542 352.432 309 350.359 309H345.422ZM348.328 309H343.234V286.25H348.328V309Z" fill="#E03832"/>
</svg>
